<?xml version="1.0" encoding="UTF-8"?><svg id="Layer_1" xmlns="http://www.w3.org/2000/svg" width="2500.58" height="1605.13" viewBox="0 0 2500.58 1605.13"><polygon points="1079.57 910.92 1075.32 915.16 1074.62 934.14 1100.44 940.27 1089.5 943.76 1089.23 958.37 1174.79 975.62 1207.14 957.1 1289.28 959.97 1433.26 911.89 1349.98 885.28 1112.77 888.03 1079.57 910.92" fill="#6c552a"/><polygon points="1095.5 894.98 1075.32 915.16 1120.81 920.67 1089.5 943.76 1176.11 958.37 1207.15 928.63 1289.28 934.63 1420.55 907.24 1368.37 891.07 1095.5 894.98" fill="#fff597"/><polygon points="1383.24 759 1383.24 896.57 1391.87 894.46 1391.87 759 1383.24 759" fill="#b2804e"/><path d="M1139.07,761.03l-17.33,13.79-.78-11.87c-.91,3.39-11.87,10.43-11.87,10.43l1.83-11.87c-1.13,2.52-5.2,5.9-7.8,7.88v136.13h-8.48l44.44,3.54v-148.03Z" fill="#f4d669"/><path d="M1280.72,775.46l-2.72-2.47s-1.96,9.26-2.09,8.61c-.13-.65-8.09-8.61-8.09-8.61l-1.57,6.91-4.57-5.61-2.61,7.83-7.43-9.52-4.3,8.61-3.52-7.83-3.52,7.83-3.91-11.09c-.26,2.74-8.61,8.09-8.61,8.09l-1.04-2.56v140.39l53.98,4.3v-144.88Z" fill="#f4d669"/><polygon points="1391.87 772.72 1389.78 772.08 1391.87 778.21 1391.87 772.72" fill="#f4d669"/><path d="M1376.61,770.77l-2.87,4.43-9.78-4.17-2.35,7.04-18.65-10.3.78,12.39-11.61-10.83,3.39,9.78-11.22-9.39,1.43,9.26-16.3-9,4.43,8.61c-6.78-1.57-13.57-12.26-13.57-12.26l4.83,13.7c-2.86-1.25-5.33-3.36-7.29-5.47v142.94l94.02-23.05v-110.77l-15.26-12.92Z" fill="#f4d669"/><polygon points="1281.98 920.44 1284.91 920.67 1297.84 917.5 1281.98 920.44" fill="#f4d669"/><rect x="1310.98" y="812.87" width="54.65" height="36.91" fill="#b2804e"/><rect x="1316.98" y="817.03" width="9.65" height="28.59" fill="#261b10"/><rect x="1328.65" y="817.03" width="9.65" height="28.59" fill="#261b10"/><rect x="1340.33" y="817.03" width="9.65" height="28.59" fill="#261b10"/><rect x="1352" y="817.03" width="9.65" height="28.59" fill="#261b10"/><rect x="1240.99" y="924.98" width="21.13" height="94.96" fill="#a03300"/><path d="M1249.3,935.8l-8.32.29-57.72-3.03-3.62,9.68v72h10.27l25.14-31.4,28.86,35.71.49-11.05-24.36-29.25,29.25-33.75v-9.2ZM1186.99,1006.34l-.59-56.45,25.24,29.74-24.65,26.71ZM1215.85,974.05l-24.85-28.76,48.52,1.76-23.67,27Z" fill="#a03300"/><path d="M1262.12,937.63l-4.89.78v14.28l72.2,16.83-72.2,40.11v10.3h7.83l75.13-48.65,71.8,19.17,10.96-1.76,1.17-75.72-162,24.65ZM1338.81,962.09l-70.04-15.46,133.63-21.65-63.59,37.11ZM1412.96,980.67l-64.17-15.07,64.17-38.93v54Z" fill="#a03300"/><path d="M1037.96,896.58s-1.86,58.89-1.86,59.18v.98h5.48l21.23-31.21,18.68,21.62,2.64-3.52-19.08-24.07,23.18-28.08,5.77.49v-9.88l-56.05,14.48ZM1041.39,947.74l.98-41.87,16.04,15.75-17.02,26.12ZM1060.07,915.36l-14.77-14.77,31.3-6.55-16.53,21.33Z" fill="#a03300"/></svg>