<?xml version="1.0" encoding="UTF-8"?><svg id="Layer_1" xmlns="http://www.w3.org/2000/svg" width="2500.58" height="1605.13" viewBox="0 0 2500.58 1605.13"><polygon points="1026.73 1105.01 906.7 1106.7 906.7 1148.83 1028.91 1148.83 1026.73 1105.01" fill="#9e8859"/><polygon points="1174.22 1134.22 1184.13 1115.7 1184.13 1105.01 1030.48 1100.83 1002.83 1131.62 1174.22 1134.22" fill="#eac775"/><polygon points="1164.57 1166.83 1176.05 1146.48 1000.22 1144.4 989.39 1162.92 1164.57 1166.83" fill="#eac775"/><polyline points="1002.83 1131.62 1000.22 1144.4 1176.05 1146.48 1174.22 1134.22" fill="#d0b269"/><polygon points="1165.34 1181.15 1164.57 1166.83 989.39 1162.92 989.39 1177.01 1165.34 1181.15" fill="#d0b269"/><path d="M1563.25,836.51c-6.03,2.38-11.26,6.33-15.57,11.18-13.89,15.64-32.9,5.97-32.9,5.97-33.39-18.91-74.48,8.22-74.48,8.22-40.3,24.39-60,11.48-60,11.48,0,0-57.26-22.57-72.26-13.43s-26.87,3.26-26.87,3.26c-8.22-4.96-26.35-1.04-26.35-1.04-36.78,10.04-38.35,1.57-38.35,1.57-11.35-18-40.3-8.22-40.3-8.22-12.39-2.09-27-22.04-27-22.04-41.61-4.96-48.91-27-48.91-27l-16.83,18-6.91-2.07c-48.52,31.71-81,23.47-81,23.47-16.83-18-38.35-14.48-38.35-14.48-1.96-11.74-11.35-8.61-11.35-8.61-12.52,7.83-18,3.52-18,3.52-4.48-2.31-12.45-2.1-21.13-.77v323.33h91.3l-8.61,14.09v14.09l199.57,4.7v-21.13h118.96l346.62-54.78v-256.17c-45.92-23.65-75.87-19.19-91.28-13.1Z" fill="#fad890"/><path d="M1176.18,853.78c-12.39-2.09-27-22.04-27-22.04-41.61-4.96-48.91-27-48.91-27l-16.83,18-6.91-2.07c-16.8,10.98-31.68,17.17-43.96,20.57v259.87l149.48,2.61v-251.42c-3.56.71-5.87,1.49-5.87,1.49Z"/><polygon points="1654.53 1049.44 1306.35 1103.7 1184.13 1105.01 1188.96 1160.57 1307.91 1160.57 1654.53 1105.79 1654.53 1049.44" fill="#9e8859"/></svg>