<?xml version="1.0" encoding="UTF-8"?><svg id="Layer_1" xmlns="http://www.w3.org/2000/svg" width="2500.58" height="1605.13" viewBox="0 0 2500.58 1605.13"><polygon points="1086.82 910.92 1082.58 915.16 1081.87 934.14 1107.7 940.27 1096.76 943.76 1096.48 958.37 1182.05 975.62 1214.4 957.1 1296.54 959.97 1440.52 911.89 1357.24 885.28 1120.03 888.03 1086.82 910.92" fill="#6c552a"/><polygon points="1102.76 894.98 1082.58 915.16 1128.07 920.67 1096.76 943.76 1183.37 958.37 1214.41 928.63 1296.54 934.63 1427.8 907.24 1375.63 891.07 1102.76 894.98" fill="#fff597"/><polygon points="1399.12 894.46 1399.12 749.67 1095.67 749.67 1095.67 905.02 1292.17 920.67 1399.12 894.46" fill="#f4d669"/><path d="M1218.9,641.15l27.68-.78s-4.3-23.18,6.46-41.48l-12.03-13.7-27,12.33s9.49,34.14,4.89,43.63Z" fill="#c13e1a"/><rect x="1095.15" y="741.03" width="15.23" height="164.48" fill="#b2804e"/><polyline points="1305.1 917.5 1305.1 753.26 1287.98 753.26 1287.98 920.67" fill="#b2804e"/><polygon points="1390.5 759 1390.5 896.57 1399.12 894.46 1399.12 759 1390.5 759" fill="#b2804e"/><polyline points="1234 916.04 1234 749.67 1146.33 749.67 1146.33 909.24" fill="#b3804e"/><path d="M1071.41,735.91s-19.96,10.7-24.26,10.57l7.83.65-11.61,6.91s24-4.3,30.52-9.07l-26.48,15.85s18.13-3.91,21-6.78l-12.39,12.65s16.57-9.65,18.52-11.61-5.22,12.78-5.22,12.78c0,0,5.87-4.96,6.26-5.35s0,6.91,0,6.91c0,0,4.57-1.83,5.22-3.91s2.35,3,2.35,3c0,0,15.13-12.85,16.83-15.85s-10.04,15.2-10.04,15.2c0,0,11.74-3.91,12.26-6.52s0,9.52,0,9.52c0,0,8.22-7.04,10.3-9.78s3.65,7.43,3.65,7.43c0,0,8.35-5.74,10.04-9.52l-1.83,11.87s10.96-7.04,11.87-10.43l.78,11.87,17.87-14.22,2.09,9.26s10.3-3.52,12-6.65l.65,5.48s9-6.13,10.7-7.96l1.57,10.3s10.04-5.61,10.83-8.22l3.65,6.52,6.26-4.83.91,4.04,8.09-4.3,4.3,6.26s4.43-7.43,4.57-7.04,8.48,11.35,8.48,11.35l10.04-6.52,4.04,9.91s8.35-5.35,8.61-8.09l3.91,11.09,3.52-7.83,3.52,7.83,4.3-8.61,7.43,9.52,2.61-7.83,4.57,5.61,1.57-6.91s7.96,7.96,8.09,8.61,2.09-8.61,2.09-8.61l5.74,5.22v-8.61s6.26,8.09,11.35,9.78l-2.22-11.61s4.83,9,12.26,12.26l-4.83-13.7s6.78,10.7,13.57,12.26l-4.43-8.61,16.3,9-1.43-9.26,11.22,9.39-3.39-9.78,11.61,10.83-.78-12.39,18.65,10.3,2.35-7.04,9.78,4.17,2.87-4.43,17.87,15.13-4.7-13.83,16.57,5.09-8.87-11.22,27.91,5.74-32.09-25.11s-155.93-93.78-159.07-113.35l-1.43-2.22h-30.39s-69.33,76.63-146.28,107.41Z" fill="#c74929"/><polygon points="1169.28 777.57 1217.54 777.57 1217.54 913.74 1169.28 910.89 1169.28 777.57" fill="#231910"/><rect x="1318.24" y="812.87" width="54.65" height="36.91" fill="#b2804e"/><rect x="1324.24" y="817.03" width="9.65" height="28.59" fill="#261b10"/><rect x="1335.91" y="817.03" width="9.65" height="28.59" fill="#261b10"/><rect x="1347.59" y="817.03" width="9.65" height="28.59" fill="#261b10"/><rect x="1359.26" y="817.03" width="9.65" height="28.59" fill="#261b10"/><rect x="1248.24" y="924.98" width="21.13" height="94.96" fill="#a03300"/><path d="M1256.56,935.8l-8.32.29-57.72-3.03-3.62,9.68v72h10.27l25.14-31.4,28.86,35.71.49-11.05-24.36-29.25,29.25-33.75v-9.2ZM1194.24,1006.34l-.59-56.45,25.24,29.74-24.65,26.71ZM1223.1,974.05l-24.85-28.76,48.52,1.76-23.67,27Z" fill="#a03300"/><path d="M1269.37,937.63l-4.89.78v14.28l72.2,16.83-72.2,40.11v10.3h7.83l75.13-48.65,71.8,19.17,10.96-1.76,1.17-75.72-162,24.65ZM1346.07,962.09l-70.04-15.46,133.63-21.65-63.59,37.11ZM1420.22,980.67l-64.17-15.07,64.17-38.93v54Z" fill="#a03300"/><path d="M1045.22,896.58s-1.86,58.89-1.86,59.18v.98h5.48l21.23-31.21,18.68,21.62,2.64-3.52-19.08-24.07,23.18-28.08,5.77.49v-9.88l-56.05,14.48ZM1048.65,947.74l.98-41.87,16.04,15.75-17.02,26.12ZM1067.33,915.36l-14.77-14.77,31.3-6.55-16.53,21.33Z" fill="#a03300"/></svg>