<?xml version="1.0" encoding="UTF-8"?><svg id="Layer_1" xmlns="http://www.w3.org/2000/svg" width="2500.58" height="1605.13" viewBox="0 0 2500.58 1605.13"><path d="M879.66,830.43c16.72-3.35,11.33,11.49,11.61,22.17,5.94-.35,12.03-.57,17.95-1.06-.45,4.06-5.06,9.81-7.89,12.69-4.94,5.02-11.8,6.56-14.06,13.39.8,18.66,9.62,11.47,11.18,29.88.8,9.39-31.38-19.15-23.69-14.92,16.4,9.02,33.63,16.69,50.32,25.15-1-4.04,3.9-10.99,3.25-14.06-.2-.94-2.87-1.52-3.87-2.72-1.14-1.36-1.3-3.76-1.7-4.1-.79-.66-3.82-.11-6.07-1.86-3.68-2.87-5.81-10.12-5.36-14.75.31-3.23,1.61-3.35,2.14-4.72,1.83,1.61,4.09-1.92,6.68-1.84,3.46.11,5.87,3.44,9.15,3.95.52-6.19-1.18-13.12,1.06-18.99,2.4-1.17,2.95-1.26,5.28-2.11.28,2.63-1.5,4.81,2.43,4.02s11.92-3.76,12.35-8.24c3.14-.5,5.01-1.01,8.45-1.06,3.09,5.47,9.96,7.45,15.74,9.08,3.36.95,2.06-.34,2.21-2.74,1.96,16.08-.39,38.1-12.12,50.68-6.79,7.28-14.94,2.25-15.25,11.98l47.7,39.42c-.56-10.18,7.21-23.94,7.43-33.29.09-3.92-5.64-24.42-4.25-25.81,1.76-.03,4.82.05,6.08,1.31,1.74,1.74,1.11,7.01,3.4,8.18,2.16-3.17,5.39-23.49,6.42-24.19,1.33-.91,3.71.84,4.75.89.49.03.08-3.03,3.02-1.95,5.94,2.17,1.41,25.54.3,30.77-.59,2.77-2.42,5.24-2.81,7.75-2.38,15.45,6.24,30.81-7.48,41.95-7.89,6.41-31.42,1.42-41.47-.51-2.71-.52-7.83-3.42-9.51-2.23l-14.73,43.88c-20.34,4.39-46.97,6.62-65.45-4.22.69-4.23-.58-9.82.02-14.23,2.16-16.07,5.61-32.06,6.1-48.34-9.84-8.7,18.27,14.73,7.97,6.35-5.79-4.71-20.73-16.81-23.62-22.82-2.95-6.14-2.71-15.1-2.15-21.85,1.39-16.7-2.99-9.08-2.08-24.95.58-10.11-1.71-14.5,0-26.88.36-2.64-.76-16.86,5.76-14.76,1.54.49.92,3.41,2.67,3.15-.53-2.37,2.06-5.78,2.12-7.38l.02-.06ZM954.66,883.95c10.81,2.69,10.02-7.54,6.85-14.76-1.44,1.97.17,11.98-.52,12.66-.86.86-7.52-1.95-6.33,2.1h0ZM944.1,892.4c-.43-.04-2.27-2.34-3.16-.53,5.05,5.88,8.02,11.18,17,8.51,2.64-.78,1.72-2.4,2-2.7.23-.24,2.08.58,2.13-.53.47-1.43-.93-2.06-2.13-2.63-4.54-2.19-10.77-1.7-15.84-2.11h0ZM964.15,895.56c.52-4.39-1.56-4.39-1.03,0h1.03Z" fill="#a4370c"/><path d="M948.32,1006.38c5.84,22.82,18.69,42.95,28.01,64.37.82,1.89.12,4.26.49,5.28-10.45.07-19.53,8.53-29.56,11.61-7.47,2.29-15.49,2.85-23.23,3.17-10.28.43-22.7.61-32.73-1.06-3.84-.64-17.83-4.32-20.07-6.85-1.76-1.98-1.17-8.61-1.03-11.61,1.05-23.6,9.06-47.08,12.66-69.14,18.49,10.84,45.12,8.62,65.45,4.22h.01Z" fill="#d4480b"/><path d="M976.83,1076.04c.06.16,1.74,1.01,2.32,2.38,2.8,6.72,6.97,11.1,6.05,19.15-1.3,11.29-12.71,33.34-16.83,45.46-1.36,4.02-6.56,18.89-6.12,21.96,1.14,7.85,23.7,13.38,27.33,18.09,2.47,3.21-.34,5.14-3.25,6.4-9.51,4.1-38.37-.47-48.35-4.43-1.73-.68-3.67-1.14-4.27-3.18-1.13-3.86,7.25-25.96,8.82-31.96,3.9-14.92,6.35-30.26,11.02-45,.35-5.85-5.45-11.34-6.28-17.27,10.03-3.08,19.11-11.53,29.56-11.61h0Z" fill="#a4370c"/><path d="M924.04,1090.81c2.19,18.33-4.3,33.65-12.09,49.65-1.95,4-13.27,22.44-13.22,24.78.09,4.4,24.05,15.61,22.01,24.03-1.25,5.17-16.99,2.88-21.33,3.18-.86.06-1.92,1.64-3.31,1.72-.88.05-9.98-2.75-11.37-3.37-4.99-2.22-15.35-10.43-15.53-16.2,3.39-9.09,8.3-17.02,11.61-26.23,2.48-6.91,13.64-42.51,13.36-47.38-.18-3.09-3.15-7.6-2.84-11.23,10.03,1.66,22.44,1.48,32.73,1.06h-.02Z" fill="#a4370c"/><path d="M966.27,820.64c-.11.61-1.57,3.4-2.11,6.33-.93,1.73-2.08,3.04-2.11,5.28-.9,2.78-6.4,2.75-8.77,2.13-1.17-.3-1.85-4.58-3.9-3.18-.33.22,2.98,2.87-5.04,3.96-3.95.54-9.52,1.51-13.97,3.42-2.36-.11-5.22-2.18-7.39-2.11-4.29-5.19-14.43-14.29-13.72-21.54,1.16-11.79,14.34-1.89,18.51,2.5,3.44,3.62,5.15,9.4,8.92,12.7-3.4-8.46-11.47-31.1-6.83-39.03,4.12-7.05,12.95,7.58,14.43,10.87l6.14,23.94v-16.36c0-2.37,2.69-13.8,3.8-16.25,2.82-6.25,7.3-9.32,11.19-1.89,3.34,6.38,2.13,21.93.85,29.23h0Z" fill="#fdebaf"/><path d="M971.55,839.63c-4.45-2.66-8.96-.64-8.45-7.39.07-.88.8-3.86,1.06-5.28,1.14-2.12,2.06-4.27,3.17-6.33,1.48-2.76,1.8-5.03,4.25-7.89,2.81-3.28,14.17-12.37,16.69-5.13,2.87,8.25-9.14,27.58-16.72,32.02h0Z" fill="#fdebaf"/><path d="M930.38,838.58c4.45-1.91,10.02-2.88,13.97-3.42,8.02-1.09,4.71-3.73,5.04-3.96,2.05-1.4,2.74,2.87,3.9,3.18,2.36.62,7.86.65,8.77-2.13h1.06c-.51,6.75,4,4.73,8.45,7.39s3.41,9.37,4.22,13.72c-5.59-1.43-11.12-2.18-16.89-2.11-3.44.04-5.31.56-8.45,1.06-5.56.88-9.68,2.35-14.78,4.22-2.32.85-2.88.94-5.28,2.11-2.83,1.38-12.31,6.37-13.72,8.44.85-6.16-2.57-10.71-2.11-16.89,6.48-1.6,9.93-9.08,15.84-11.61h-.02Z" fill="#d4480b"/><path d="M930.38,858.63c-2.24,5.87-.54,12.8-1.06,18.99-3.28-.51-5.69-3.84-9.15-3.95-2.59-.08-4.85,3.45-6.68,1.84.77-1.98,2.43-7.36,3.17-8.44,1.41-2.08,10.9-7.06,13.72-8.44h0Z" fill="#66250a"/><path d="M975.77,853.35c.22,1.18.8,2.14,1.06,4.22-.15,2.4,1.16,3.69-2.21,2.74-5.78-1.62-12.65-3.6-15.74-9.08,5.78-.07,11.3.68,16.89,2.11h0Z" fill="#66250a"/><path d="M922.99,836.47c2.17-.07,5.03,2,7.39,2.11-5.9,2.53-9.36,10.01-15.84,11.61.31-4.13,3.58-13.57,8.45-13.72Z" fill="#66250a"/><path d="M963.1,832.25h-1.06c.04-2.23,1.19-3.55,2.11-5.28-.26,1.42-.99,4.4-1.06,5.28h.01Z" fill="#f7be2e"/><path d="M967.33,820.64c-1.11,2.07-2.03,4.21-3.17,6.33.54-2.93,2-5.72,2.11-6.33h1.06Z" fill="#f7be2e"/><path d="M959.94,894.51c-1.41.31.27,2.74,0,3.17-1.69,2.67-15.89,1.26-15.84-5.28,5.06.41,11.3-.08,15.84,2.11h0Z" fill="#fdebaf"/><path d="M950.43,852.3c-.44,4.48-8.58,7.48-12.35,8.24s-2.14-1.39-2.43-4.02c5.1-1.87,9.22-3.34,14.78-4.22h0Z" fill="#66250a"/><path d="M954.66,883.95c-1.19-4.05,5.47-1.24,6.33-2.1.69-.68-.92-10.7.52-12.66,3.16,7.23,3.96,17.46-6.85,14.76h0Z" fill="#66250a"/><path d="M944.1,892.4c-.05,6.54,14.14,7.95,15.84,5.28.27-.42-1.41-2.86,0-3.17,1.2.58,2.59,1.21,2.13,2.63-.04,1.11-1.9.29-2.13.53-.28.3.64,1.92-2,2.7-8.98,2.66-11.95-2.63-17-8.51.89-1.81,2.73.5,3.16.53h0Z" fill="#66250a"/><path d="M964.15,895.56h-1.03c-.52-4.39,1.56-4.39,1.03,0Z" fill="#66250a"/><path d="M815.1,1065.68c.15.5.28.96.39,1.37M799.09,1174.47c4.83-6.44,18.98-24.43,20.99-31.18.78-2.62-.06-14.66.58-19.39.32-2.38,3.53-18.69,4.33-19.27.64-.46,2.57-.47,3.28-.09,3.86,2.1-1.15,13.14.77,16.84,2.61-2.94,5.58-15.27,9.17-16.18,6.06-1.55,2.72,12.59,3.03,15.17,2.18-2.59,6.25-14.68,9.5-8.34,2.74,5.34-7.82,20.21-10.6,24.82,3.29-1.39,7.75-5.04,11.45-4.9,6.7.25,3.44,3.45.19,6.12-5.37,4.41-13.35,7.75-17.72,11.27-4.73,3.81-15.22,30.44-19.96,39.86M799.09,1078.88c3.32,12.66,10.91,7.06,7.98,20.03-4.89,21.69-5.33,31.47-1.82,55.76.89,6.18,3.28,13.49,4.34,19.79,1.57.4,1.82-.65,2.73-1.36,2.53-1.96,18.8-17.03,19.55-18.69,1.82-4.03-.59-8.56-.49-12.24.22-7.46,12.04-21.55,18.92-23.07s3.9,4,4.95,5.16c.35.39,2.24-.02,3.05,1.02.17.23,2.07,5.01,2.13,5.29.4,2.07-2.35,3.76-1.66,4.73.2.28,3.43.3,3.59,3.16.31,5.5-12.16,16.56-15.28,21.13-2.13,3.12-3.39,7.66-5.46,10.93-5.25,8.32-17.62,26.02-26.31,30.13-5.68,2.68-15.49-1.78-20.29-5.26-.93-.67,1.38-.22-2.73-1.82-.28-.78.02-1.36-.9-2.25-2.98-2.87-11.13-5.85-14.48-9.23l-15.57-13.1c.82,4.79,6,7.99,9.59,10.88,5.45,4.38,15.01,11.21,21.36,13.69,1,2.81.29,5.86,1.82,8.19-.58,4.86-.87,9.76-1.82,14.57-.19.97.42,2.64-.15,3.47-17.14,8.81-38.68,12.29-56.31,2.9,1.84-20.09,8.54-74.62,21.86-88.76,1.58-1.67,3.98-2.31,5.46-4.1.17.04,1.67-1.2,1.81-.92.25.48-.29,2.02.05,2.96.39,1.11,8.32,10.82,9.32,11.38,5.39,3.02,3.81,2.27,7.97,6.09,2.01,1.85,7.06,6.57,7.71,2.33-.54,3.66,7.21,1.92,7.76,1.43.88-.78.56-2.45,1.15-3.04.43-.43,1.75-.04,2.24-.39s1.31-6.73,1.21-7.55c-.29-2.25-2.32-1.95-2.61-2.42-.21-.35,1.73-3.62-2.91-4.41-.57,2.61,2.13,12.02.81,13.57-.24.28-6.73,1.62-7.23,1.42-.45-.17-6.63-5.06-7.54-5.85-.58-.5-2.87-2.89-3.98-3.96-4.7-4.53-9.08-8.28-9.38-15.19,2.89-1.9,4.64-3.65,4.19-7.29-.9-7.37-8.06-5.16-10.09-10.02-4.59-10.98,6.13-18.4,15-10.91l-4.54-14.57c2.69-1.77,5.52-3.66,8.2-5.46-.98,14.9,4.93-1.41,10.02-4.55.16.12,3.01,1.35,3.62,1.38l-1.8-8.66-.04.03M788.61,999.68c.65-1.28-.58-2.43-.89-1.81-.65,1.28.58,2.43.89,1.81ZM806.83,1102.56c-5.42,2.25-10.46,1.42-15.94,1.82-1.32.1-2.67-.69-2.24,1.35.83,3.99,8.86,2.58,12.04,2.07,3.63-.59,7.35-.94,6.14-5.23h0ZM802.04,1123.71c-1.07-.37-2.27.68-3.44.31-6.79-2.14-11.28-5.15-15.92-10.52-1.2-1.39-3.96-8.48-5.89-4.11-.3.68,6.87,8.78,7.83,10.36,5.59,4.51,12.13,7.4,19.48,6.46-.14-.49-1.9-2.45-2.06-2.5Z" fill="#a4370c"/><path d="M835.06,1212.71c.08,3.17-.13,6.37,0,9.55.27,6.39.71,13.5,0,20.04-.55,5.09-4.15,9.74-3.65,15.01-.99,1.19-11.69-9.81-15.47-7.79-1.32.7-14.83,23.02-15.46,25.56l4.52,2.24c-9.13-.76-19.34-1.31-28.27-3.13-11.29-2.3-23.41-8.41-34.56-12.34-2.87-1.01-3.06.09-4.91-3.74-4.37-9.05-2.37-25.49-1.46-35.4,17.63,9.4,39.17,5.91,56.31-2.9.57-.83-.04-2.51.15-3.47,13.64-2.64,28.85-4.41,42.8-3.64h0Z" fill="#66250a"/><path d="M742.17,1261.87c11.15,3.93,23.27,10.04,34.56,12.34,8.94,1.82,19.14,2.37,28.27,3.13l-4.52-2.24c.63-2.55,14.14-24.86,15.46-25.56,3.78-2.02,14.48,8.98,15.47,7.79-.5-5.27,3.1-9.92,3.65-15.01.71-6.55.27-13.66,0-20.04-.13-3.18.08-6.38,0-9.55,25.17,1.39,22.96,18.42,14.44,36.74-1.66,3.56-9.43,14.5-9.77,15.81s2.17,6.31,2.26,9.05c.31,9.03-6.27,18.42-15.59,19.43-21.89,2.37-47.8-5.63-70.17-4.59-6.72.31-13.49,3.1-20,3.66-2.88.25-15.15.54-17.16-.12s-2.02-3.78-1.06-5.35c.83-1.36,4.63-1.83,6.26-2.84,6.7-4.15,12.85-16.41,17.89-22.63v-.02ZM808.89,1278.24c0-.62-.5-1.12-1.12-1.12s-1.12.5-1.12,1.12.5,1.12,1.12,1.12,1.12-.5,1.12-1.12ZM811.84,1279.16v.91c.59-.3.59-.61,0-.91Z" fill="#a4370c"/><path d="M774.05,1082.53l4.54,14.57c-8.86-7.5-19.59-.07-15,10.91,2.04,4.87,9.19,2.66,10.09,10.02.45,3.64-1.3,5.39-4.19,7.29-1.48.97-5.4,2.19-7.29,2.73-6.05,1.74-12.73,3.81-16.18-3.39-3.66-7.67,2.9-9.05,3.41-14.44.09-1-1.44-10.31-1.81-11.3,8.61-5.69,17.79-10.74,26.41-16.39h.02Z" fill="#66250a"/><path d="M784.98,1058.86l-43.71,29.13c-4.45-15.12,3.65-20.86,12.75-30.04,5.78-1.49,10.43-2.89,16.39-3.64,1.32-.17,3.1-.89,3.64-.91,6.86-.32,6.76,2.57,10.93,5.46h0Z" fill="#66250a"/><path d="M760.39,1021.53c1.22,3.44,4.5,12.09-.91,10.92-2.93-.92-6.25-.65-9.11-2.73s-15.57-15.39-18.19-18.68c-.82-1.03-4.33-5.85-3.66-6.8,11.34-3.91,24.73,9.48,31.87,17.29h0Z" fill="#fdebaf"/><path d="M770.4,1054.3c-5.96.75-10.61,2.15-16.39,3.64,1.1-1.11,3.84-2.37,1.83-3.2-2.26-.93-5.54-.83-8.19-1.83-7.54-2.84-8.67-5.03-13.68-9.54,4.23-.86,10.81-1.89,14.12-4.57.53-.43.29-1.63.45-1.8.11-.12.61.07.91,0l20.95,17.3h0Z" fill="#f7be2e"/><path d="M748.55,1037.01c-.16.17.08,1.37-.45,1.8-3.31,2.69-9.89,3.72-14.12,4.57-.21-.19-2.36-.43-3.57-1.42-4.01-3.25-21.41-16.75-6.93-15.88,8.8.53,17.84,6.22,25.07,10.92h0Z" fill="#fdebaf"/><path d="M759.48,1032.46c2.42.76,5.13,3.04,8.2,2.73,1.52,3.2,6.47,11.06,7.1,13.44.45,1.72.24,3.28-.73,4.77-.54.03-2.32.74-3.64.91l-20.95-17.3c1.82-1.57.62-5,.91-7.28,2.86,2.08,6.18,1.81,9.11,2.73h0Z" fill="#d4480b"/><path d="M769.49,1125.31c.3,6.91,4.68,10.66,9.38,15.19,1.12,1.07,3.41,3.46,3.98,3.96.9.79,7.09,5.68,7.54,5.85.51.19,6.99-1.14,7.23-1.42,1.32-1.55-1.38-10.95-.81-13.57,4.64.8,2.7,4.07,2.91,4.41.28.47,2.32.17,2.61,2.42.1.81-.73,7.21-1.21,7.55s-1.81-.04-2.24.39c-.59.59-.26,2.26-1.15,3.04-.55.49-8.3,2.23-7.76-1.43-.66,4.25-5.7-.48-7.71-2.33-4.15-3.82-2.58-3.07-7.97-6.09-1-.56-8.93-10.27-9.32-11.38-.33-.94.2-2.48-.05-2.96-.14-.28-1.65.96-1.81.92-.11-.02-.62-1.55-.91-1.82,1.89-.54,5.81-1.76,7.29-2.73h0Z" fill="#fdebaf"/><path d="M760.39,1021.53c4.77,5.22,4.54,7.89,7.29,13.66-3.06.31-5.78-1.97-8.2-2.73,5.41,1.16,2.13-7.48.91-10.92h0Z" fill="#f7be2e"/><path d="M792.26,1193.59c-6.36-2.48-15.91-9.32-21.36-13.69-3.6-2.89-8.77-6.09-9.59-10.88l15.57,13.1c3.35,3.38,11.51,6.36,14.48,9.23.92.89.62,1.47.9,2.25,4.11,1.61,1.81,1.15,2.73,1.82-.94,2.06-.66,4.25-.91,6.37-1.53-2.33-.82-5.38-1.82-8.19h0Z" fill="#66250a"/><path d="M802.04,1123.71c.15.05,1.92,2.02,2.06,2.5-7.35.94-13.9-1.95-19.48-6.46-.96-1.58-8.13-9.68-7.83-10.36,1.93-4.37,4.68,2.72,5.89,4.11,4.64,5.37,9.13,8.38,15.92,10.52,1.17.37,2.37-.69,3.44-.31Z" fill="#66250a"/><path d="M806.83,1102.56c1.21,4.29-2.51,4.64-6.14,5.23-3.18.52-11.21,1.93-12.04-2.07-.43-2.04.92-1.25,2.24-1.35,5.49-.4,10.53.44,15.94-1.82h0Z" fill="#66250a"/><path d="M782.24,1077.06c1.7-1.15,7.85-7.89,9.91-6.22.36.29-.02,1.57.11,1.67-5.09,3.14-10.99,19.46-10.02,4.55h0Z" fill="#66250a"/><path d="M788.61,999.68c-.32.62-1.55-.53-.89-1.81.32-.62,1.55.53.89,1.81Z" fill="#c49326"/><path d="M794.09,1065.23l1.8,8.66c-.61-.02-3.46-1.25-3.62-1.38-.13-.1.25-1.38-.11-1.67-2.06-1.67-8.21,5.07-9.91,6.22-2.68,1.81-5.5,3.7-8.2,5.46-8.62,5.65-17.8,10.69-26.41,16.39-.98-2.62-5.23-7.04-6.37-10.92l43.71-29.13h0c.27.19,1.93-.1,3.2.86,2.03,1.53,3.47,4.31,5.91,5.51" fill="#d4480b"/><circle cx="807.76" cy="1278.24" r="1.12" fill="#66250a"/><path d="M811.84,1279.16c.59.3.59.61,0,.91v-.91Z" fill="#66250a"/><path d="M1134.83,884.44c.3,2.73-.81,5.25-.98,7.93-.69,11.41-1.31,34.11.12,44.93.53,4.04,3.26,9.21,4.34,13.46,5.11,20.03,15.08,55.97,15.34,75.62.09,7.04-7.11,8.09-13.19,9.84-7.42,2.14-18.6,4.21-26.24,4.68-5.9.37-11.11-.15-16.87-.94-7.63-1.04-20.03-3.25-27.18-5.62-3.89-1.29-10.74-4.63-14.34-6.74-2.06-1.21-8-4.6-8.11-6.8,6.54-19.56,11.4-39.64,17.52-59.32,3.51-11.28,10.03-22.62,9.66-34.46-.27-8.49-1.56-17.15-1.91-25.72-.18-4.35.13-8.76,0-13.12,3.6.35,7.43-1.19,10.31-3.28-3.63-.14-5.01-4.52-1.64-6.32,4.35-2.33,3.04.77,5.39,3.05.86.83,7.94,6.7,8.45,6.99,8.56,5,16.86.73,21.54-6.99.5-.83,2.76-4.42,2.81-4.68,3.93-.7,3.32,2.72,5.13,4.71,2.45,2.7,6.42,3.22,9.87,2.79h-.02Z" fill="#d4480b"/><path d="M1152.76,827.8c-3.18-.87-5.36-3.93-2.86-7.07,2.99-3.75,6.82,2.99,9.41,4.26l-.93-10.31,5.61.94c-3.02-6.83,2.99-8.74,8.87-8.39,9.27.56,7.39,23.65,8.55,24.43l6.96,38.31c3.03,18.25,1.23,16.19-12.96,29.48-5.54,5.19-34.12-15.83-40.59-15.01-3.45.44-7.42-.09-9.87-2.79-1.81-1.99-1.2-5.41-5.13-4.71.11-.6-1.15-11.25-1.45-12.14-.32-.97-3.3-4.8-4.21-5.23-2.08-.99-2.6.32-3.71.5-11.97,1.99-13.22-.96-21.6-7.93-.99-.82-3.22-1.15-3.53-1.61-.69-1.05-.86-7.38-1.12-9.19-2.17-.06-2.66,1.91-5.12,1.95-9.93.15-9.58-18.94.72-15.83,1.73.52,2.23,3.04,4.41,2.63-.22-12.94,15.89-19.46,21.09-30.9,4.32,7.28,12.42,9.64,14.53,17.78-2.57.14-11.26-3.08-11.26,1.41,0,3.98,8.92,2.21,11.26,1.41,1.12,5.55,2.37,8.91,1.87,14.99-.23,2.82-2.06,11.57-3.05,14.28-1.27,3.47-4.49,5.51-4.43,9.13,4.28,1.72,7.63,1.93,12.17,1.89.1,0,.48.98,1.84.58,7.43-2.2,27.92,21.59,35.93,18.14l.88-1.77,3.65-11.76s-3.85-34.16-15.94-37.48h0ZM1071.15,796.02c-4.36,3.46.59-11.67-1.7-6.45-6.13,13.97-7.65,32.9-12.46,47.6.1,3.38,5.91,6.36,8.48,8.86,2.03,1.97,3.73,4.6,6.11,6.54,3.41,2.76,7.83,4.32,10.76,7.52-2.07,2.08-.69,10.38.53,13.09.53,1.17,2.18,1.69,2.28,1.9.59,1.21.94,4.94,1.87,6.56-2.35-2.28-1.04-5.37-5.39-3.05-3.38,1.8-1.99,6.18,1.64,6.32-2.88,2.09-6.7,3.63-10.31,3.28-3.46-1.8-5.38-5.61-7.77-8.19-.42-.45-1.49-.13-1.6-.24-4.84-5.31-26.62-29.45-28.32-33.99-5.22-13.87,12.32-41.55,15.72-55.91,1.93-8.17-5.35-.72-1.87-8.83,1.46-3.4,6.69-12.26,11.08-8.4v-.08l-.76.13-1.31.92,2.1,11.54,2.17-.39-2.04-11.21c1.29-2.34,4.42-.88,4.6-1.02.34-.27.94-4.26,2.45-4.6,1.74-.39,3.14,3.2,4.85,3.6,1.16.27,2.46-.7,3.45-.55,5.41.81.05,16.2-1.15,20.75M1065.06,773.53v13.12c2.82-1.56,2.23-8.97,1.88-11.73-.17-1.38-.73-2.91-1.88-1.39ZM1054.75,792.74c.62-4.76-.45-10.57,0-15.46h-.93c.8,1.76-.95,4.33-.95,5.15v13.59h.93c-.32-1.24.85-2.49.95-3.28ZM1099.21,817.92c-1.55.37-9.94,1.51-10.27,1.91-.59.72-.01,4.26,1.44,4.6,1.05.24,11.76-2.75,8.83-6.51h0ZM1108.57,826.35c-3.41-3.4-.27,4.9-.2,5.36.18,1.17.58,5.41.16,5.83-.57.58-6.55-.53-5.57,2.85,1.92-.49,7.64-.41,8.34-2.46.48-1.39-2.1-10.94-2.74-11.58h0ZM1097.34,845.09c-.7,4.42,5.94,7.64,10.07,5.84,1.65-.72,6.76-5.93,3.99-6.78-.61-.19-11.94-.71-12.7-.63s-1.25.85-1.36,1.57Z" fill="#a4370c"/><path d="M1119.83,817.92c-.07-.29.08-.64,0-.94h.94c-.28.35-.59.66-.94.94Z" fill="#a4370c"/><path d="M1097.34,1039.97c-1.69,7.87-2.94,15.81-4.95,23.63-1.63,6.33-5.05,13.6-6.29,19.47-.53,2.51-1.07,6.37-1,8.91.22,7.23,5.93,16.35-6.45,18.79-3.47.69-13.32.58-17.39.48-8.94-.22,3.61-15.7,4.71-19.75.5-1.83.32-3,.44-4.69.49-6.55-.43-13.54,0-20.13.72-10.75,4.13-21.49,3.74-32.33,7.15,2.37,19.55,4.58,27.18,5.62h.01Z" fill="#a4370c"/><path d="M1063.6,879.76c.11.12,1.18-.2,1.6.24,2.4,2.58,4.31,6.38,7.77,8.19.13,4.35-.18,8.77,0,13.12-8.36-1.78-7.2-14.91-9.37-21.55Z" fill="#66250a"/><path d="M1140.45,1036.23c1.31,15-8.63,31.92-9.37,45.91-.15,2.84-.41,6.04,1.46,8.38,3.37,4.23,22.19,11.12,22.94,15.49.46,2.65-4.42,1.95-5.89,2.43-.81.27-.69,1.62-1.35,1.78-4.69,1.12-21.29-.29-26.74-1.17-7.71-1.24-12.06-1.31-12.04-10.53.01-4.99.76-11.91,1.01-17.33.62-13.46,2.04-26.94,3.75-40.29,7.65-.48,18.82-2.54,26.24-4.68h0Z" fill="#a4370c"/><path d="M1090.78,873.2c2.42,10.31,16.44,16.75,21.56,4.68l4.69,3.75c-4.68,7.73-12.98,11.99-21.54,6.99-.51-.3-7.6-6.16-8.45-6.99-.94-1.62-1.28-5.35-1.87-6.56.18-.94,3.39-2.78,3.75-2.81.42-.04,1.4.91,1.87.94h-.01Z" fill="#f7be2e"/><path d="M1119.83,876.95c-.05.27-2.31,3.86-2.81,4.68l-4.69-3.75c.54-1.27,1.84-6.24,1.87-7.5.08-3.32-1.31-4.99-2.81-7.5-.55-.91-1.33-1.35-.94-2.81,1.12-.19,1.64-1.5,3.71-.5.91.43,3.89,4.26,4.21,5.23.3.89,1.55,11.54,1.45,12.14h.01Z" fill="#fdd350"/><path d="M1119.83,816.98c.08.29-.07.64,0,.94.13.53-.12,1.3,0,1.87-2.34.81-11.26,2.58-11.26-1.41,0-4.48,8.69-1.27,11.26-1.41h0Z" fill="#66250a"/><path d="M1121.71,805.74c-.48,3.34,1.14,8.65-.94,11.24h-.94c-2.11-8.14-10.21-10.51-14.53-17.78-5.2,11.43-21.31,17.96-21.09,30.9-2.17.41-2.67-2.1-4.41-2.63-10.3-3.11-10.65,15.98-.72,15.83,2.46-.04,2.96-2.01,5.12-1.95.26,1.81.43,8.14,1.12,9.19.31.46,2.54.79,3.53,1.61,8.39,6.97,9.63,9.93,21.6,7.93-.39,1.46.39,1.9.94,2.81-7.78,11.63-18.12-4.21-23.91-6.55-2.29-.93-1.07,2.45-1.39,2.8-.13.14-2.85.04-3.75.94-2.92-3.2-7.35-4.75-10.76-7.52-2.39-1.94-4.08-4.57-6.11-6.54,4.94-11.85,3.46-24.72,4.7-37,1.12-11.12,7.41-16.37,16.86-21.09,4.39.13,9.2-.41,13.49.1,8.22.98,19.67,8.11,20.27,17.22.19.45.47.53.92.48h0Z" fill="#66250a"/><path d="M1126.4,860.08c-4.55.04-7.9-.17-12.17-1.89-.06-3.61,3.16-5.66,4.43-9.13.99-2.71,2.83-11.46,3.05-14.28,2.38,8.2,5.13,16.63,4.69,25.3h0Z" fill="#66250a"/><path d="M1086.09,859.14c-1.03,5.13,1.82,8.51,2.81,13.12-.36.03-3.57,1.87-3.75,2.81-.1-.21-1.75-.73-2.28-1.9-1.23-2.71-2.6-11.02-.53-13.09.89-.9,3.62-.79,3.75-.94h0Z" fill="#fdd350"/><path d="M1111.4,844.15c-3.75,6.64-9.08,5.76-14.06.94.11-.72.61-1.48,1.36-1.57s12.09.44,12.7.63h0Z" fill="#fdebaf"/><path d="M1099.21,817.92c2.93,3.76-7.79,6.75-8.83,6.51-1.45-.34-2.03-3.88-1.44-4.6.33-.4,8.72-1.54,10.27-1.91h0Z" fill="#66250a"/><path d="M1108.57,826.35c.64.64,3.21,10.2,2.74,11.58-.7,2.05-6.42,1.97-8.34,2.46-.98-3.39,5-2.28,5.57-2.85.42-.42.01-4.66-.16-5.83-.07-.47-3.21-8.77.2-5.36h0Z" fill="#66250a"/><path d="M1097.34,845.09c4.98,4.82,10.31,5.7,14.06-.94,2.77.85-2.34,6.07-3.99,6.78-4.13,1.8-10.77-1.42-10.07-5.84h0Z" fill="#66250a"/><polygon points="1058.14 773.59 1059.45 772.67 1058.02 772.93 1058.14 773.59" fill="#7daf00"/><path d="M1111.4,862.89c1.5,2.5,2.89,4.17,2.81,7.5-3.07-.11-4.54,3.23-7.05,3.73-3.14.62-12.36-.69-16.38-.91-.48-.03-1.46-.97-1.87-.94-1-4.6-3.85-7.98-2.81-13.12.32-.36-.89-3.73,1.39-2.8,5.79,2.34,16.13,18.18,23.91,6.55h0Z" fill="#a4370c"/><path d="M1114.21,870.39c-.03,1.26-1.34,6.23-1.87,7.5-5.12,12.07-19.14,5.63-21.56-4.68,4.02.23,13.25,1.53,16.38.91,2.51-.49,3.97-3.84,7.05-3.73Z" fill="#d4480b"/><ellipse cx="1060.94" cy="786.21" rx="11.33" ry="14.71" fill="#a4370c"/><path d="M1571.6,1132.57l-4.01,36.84c-6.31,5.63-11.35,13.1-8.75,21.81.05.18,1.03,1.76,1.54,3.02.17,7.6-3.99,17.29-4,24.43,0,3.03,3.25,17.17,2.28,18.71-8.73,5.28-16.09,5.45-25.91,5.72-1.36.04-2.76.84-4.05.83-3.34-.03-23.78-3.69-25.06-5.77-.44-7.05,1.84-14.01,2.29-21.04-6.68-27.07-13.47-54.26-16.04-82.13,2.75.68,5.24,2.07,8,2.81,9.27,2.48,22.31,2.82,32.05,2.8v79.29l-11.98-.84-12.86-78.84c2.45,25.87,6.38,51.58,11.99,76.92.4,3.17-4.97-1.11-5.57,1.15,9.72,3.72,20.49,3.87,30.74,2.31,3.51-.53,8.21-1.21,10.91-3.51l-22.43,2.81v-79.29c12.32-.13,24.66-1.71,36.28-5.78,1.45-.51,2.91-2.01,3.78-2.23.22-.06.57-.01.8,0v-.02ZM1545.96,1217.46c5.17-25.86,7.36-52.21,9.62-78.48-1.45.3-1.5,1.57-1.63,2.77-1.27,11.92-1.72,24.11-3.18,36.06-1.48,12.16-4.41,24.87-5.5,36.96-.08.9-.74,2.87.69,2.69h0Z" fill="#d4480b"/><path d="M1537.95,1110.15c8.02,5.65,15.4,11.79,24.03,16.82-.51,1.54-1.96,1.56-3.18,2.02-16.05,6.02-42.55,5.91-59,1.28s-9.82-10.75,1.91-15.11c11.54-4.29,24-5.52,36.25-5.01h-.01Z" fill="#fdd350"/><path d="M1530.74,1140.58v79.29l22.43-2.81c-2.7,2.3-7.4,2.98-10.91,3.51-10.26,1.55-21.03,1.41-30.74-2.31.61-2.26,5.97,2.02,5.57-1.15-5.62-25.34-9.54-51.05-11.99-76.92l12.86,78.84,11.98.84v-79.29h.8Z" fill="#0e701c"/><path d="M1545.96,1217.46c-1.44.18-.77-1.79-.69-2.69,1.09-12.08,4.02-24.8,5.5-36.96,1.46-11.95,1.91-24.14,3.18-36.06.13-1.2.18-2.47,1.63-2.77-2.25,26.27-4.45,52.61-9.62,78.48h0Z" fill="#66250a"/><path d="M1608.49,1076.52c2.26-1.21,5.95-4.47,7.57-6.45,3.2-3.93,3.06-8.99,6.46-12.76l2.45,5.57c.19.82,1.8,1.36,1.94,1.63.96,1.81,1.82,5.25,2.82,6.39,1.28,1.45,4.62,1.92,6.54,3.07,23.77,14.26,35.03,51.26,43.51,76.23-9.23,4.7-18.93,8.94-29.34,10.31s-19.74-.35-29.95-2.31c-1.58-4.54-4.35-8.89-5.61-13.61.85-1.07,2.11-3.47,2.81-4.79-1.08,1.45-3.12,3-4.16,4.25-.39.48-.15,1.22-.25,1.34-3.47,3.98-5.53,6.33-11.42,5.42-2.73-.43-6.27-2.88-8.61-3.01-.24-.01-.58-.06-.8,0-2.22-2.3-5.86-3.89-8.81-5.61-8.64-5.03-16.01-11.17-24.03-16.82-6.99-4.92-11.99-5.95-17.9-9.74-2.61-1.67-4.92-4.98-7.34-7.08-1.52-1.32-6.11-2.73-6.02-5.19.04-1.02,1.25-1.78,1.38-2.54.25-1.46-1.4-2.85.15-4.75s5.08-.95,7.29-1.13c-3.29-13.21,14.32-1.97,18.81,1.62,3.84,3.07,9.48,11.44,12.5,13.14,4.66,2.62,13.51,3.48,18.68,5.96,7.17-11.51,13.16-23.53,24.17-31.95.31-.61-2.2-5.8-2.86-7.19h.02ZM1601.29,1119.76l10.4-24.03c-5.04,6.72-8.23,15.97-10.4,24.03ZM1633.77,1117.81c.3-.53,2.95-4.31,1.17-4.45l-8.82,14.4,3.45-3.4c1.05-2.22,3.06-4.53,4.2-6.55ZM1588.15,1120.1c-2.24-1.17-5.55-3.9-7.69-3.14,1.88,2.01,18.31,10.87,19.22,10.02l1.6-6.41c-1.83.12-1.98,3.93-2.87,4.06-.64.1-8.15-2.76-9.3-3.33-.63-.31-.76-1.1-.95-1.2h-.01ZM1626.11,1128.58c-1.22-1.4-1.75,1.09-2.06,1.51-2,2.71-4.59,5.67-5.55,8.88l2.3-1.77c.11-1.34,6.06-7.76,5.31-8.62Z" fill="#a4370c"/><path d="M1674.98,1227.88c-3.57.87-8.52,4.47-13.23,4.81-3.41.25-2.89.17-2.79-3.21-8.22.61-21.89,4.59-29.64,1.61-.4-.15-2.18-.82-2.25-.92-1.38-2.09,4.15-14.35,4.64-17.49-10.74,4.48-11.38,2.55-17.28-5.58-.54-.74-1.88-.75-1.94-.83-.17-.24.03-2.01-.63-2.94-5.38-7.7-10.36-15.96-17.8-21.89,8.63-6.9,17.86-13.34,27.14-19.35.4-.7-.38-2.96-.7-3.88,10.2,1.96,19.57,3.68,29.95,2.31s20.11-5.61,29.34-10.31c1.55,4.56,4.38,9.24,5.41,14.22,2.03,9.83.09,23.16-1.76,33.08s-5.46,20.41-8.45,30.39v-.02Z" fill="#66250a"/><path d="M1674.98,1227.88c5.93-1.44,15-.5,21.2-1.63,3.71-.68,7.59-6.85,12.02.06,3.57,5.57,4.16,23.67,7.42,30.71-.8,7.35-21.31,8.7-23.01,4.9-1.37-3.06,5.01-2.83,5.61-3.61.29-.38-2.12-7.82-3.55-8.86-2.6-1.89-13.75,1.11-17.44,1.91-11.21,2.42-23.88,7.33-35.49,6.15-14.09-1.43-14.44-15.21-12.43-26.42,7.75,2.98,21.42-1,29.64-1.61-.1,3.38-.62,3.46,2.79,3.21,4.72-.34,9.67-3.94,13.23-4.81h.01Z" fill="#a4370c"/><path d="M1612.5,1206.26l-4,.39c2.01,1.84.85,4.06,1.46,6.47,3.39,13.3,10.08,28.67,12.59,41.95,1.77,9.38-4.56,9.49-12.06,10.44-2.65.34-20.4,1.48-21.22.8l.8-2.39c-1.45-.01-6.88-.66-7.21-2.02-.64-2.68,16.33-9.53,19.14-10.88.93-1.07-3.93-11.13-4.84-13.02-4.52-9.47-11.19-18.94-15.11-28.54-.51-1.25-1.49-2.84-1.54-3.02-2.6-8.71,2.44-16.18,8.75-21.81,1.3-1.16,3.39-2.07,4.81-3.2,7.44,5.92,12.42,14.19,17.8,21.89.65.94.46,2.7.63,2.94h0Z" fill="#a4370c"/><path d="M1609.29,1029.27c.14,2.07-1.8,1.4-2.22,3.75-.66,3.67-.65,8.47-.97,12.27,6.47-7.69,17.49-8.27,16.03,4.42-.86,7.47-8.84,6.5-12.83,1.98-.85,3.29,3.63,6.98,6.39,7.66,1.59.39,3.6-1.51,3.23.76-.51,3.18-9.08,12.25-12.03,13.21-2.22.72-10.01,1.1-12.44.82-7.85-.93-6.97-10.21-7.59-16.03,3.12,3.2,9.63,1.16,10.41-3.2-4.84.98-6.78,1.59-11.21-.8-.45-.24-3.93-2.53-4.08-2.72-2.06-2.57,1.42-10.73,2.48-14.09.72-2.28,2.33-4.18,2.85-7.16.58-3.34-.19-6.56,1.16-9.65.2.12.6-.11.8,0,5.93,3.29,13.67,6.39,20.03,8.81v-.03ZM1602.08,1034.07c2.47-2.57-7.89-8.64-10.63-7.89-.61.17-1.98,1.38-2.18,1.9-.55,1.47.85,1.15,1.5,1.65,2.95,2.27,7.52,4.33,11.31,4.34ZM1590.07,1034.88c-.64.47-1.54,5.17,1.18,4.8,2.69-1.31.52-6.05-1.18-4.8Z" fill="#a4370c"/><path d="M1642.94,1025.26c.06,1.2.15,2.87,0,4-.39,2.98-2.56,5.83-3.2,8.01-10.68-1.21-20.46-4.21-30.44-8.01-6.35-2.42-14.1-5.52-20.03-8.81-.13-3.93,1.62-7.47,2.4-11.21,1.36-.98,2.47-.87,4.01-.46,8.36,2.25,19.05,8.62,27.61,11.69,6.26,2.24,12.97,4.29,19.65,4.78h0Z" fill="#d4480b"/><path d="M1639.73,1037.28c-3.12,10.57-4.75,18.82-12.82,27.23-.14-.27-1.76-.8-1.94-1.63l-2.45-5.57c-3.4,3.77-3.26,8.83-6.46,12.76-1.61,1.99-5.3,5.24-7.57,6.45-.38-.8-1.87-1.65-1.6-3.2,2.95-.96,11.52-10.03,12.03-13.21.36-2.27-1.64-.37-3.23-.76-2.76-.68-7.23-4.37-6.39-7.66,3.98,4.51,11.97,5.49,12.83-1.98,1.46-12.69-9.56-12.11-16.03-4.42.32-3.8.31-8.6.97-12.27.42-2.34,2.36-1.68,2.22-3.75,9.98,3.79,19.76,6.8,30.44,8.01h0Z" fill="#66250a"/><path d="M1628.52,1001.24c1.16.55,7.23,5.39,8.01,6.41,2.68,3.47,6.19,13.2,6.41,17.62-6.68-.49-13.39-2.54-19.65-4.78-8.57-3.07-19.26-9.43-27.61-11.69-1.54-.42-2.65-.53-4.01.46.42-2,1.5-4.81,1.6-6.41,1.85-.02,3.99-.29,5.61.8,1.53,1.03,3.09,4.25,5.61,5.61.56.3.54.93,1.89.82,3.09-.26,12.51-7.94,14.93-10.43,2.14.05,5.33.72,7.21,1.6h0Z" fill="#66250a"/><path d="M1605.29,979.61c1.82-4.91,8.02-21.45,14.73-20.08,1.74.36,1.43,9.78,1.2,11.58-.44,3.56-2.41,7.64-3.92,10.9-.24.52-.54,1.08-.8,1.6-4.22,8.48-12.03,15.73-12.02,25.63-2.52-1.36-4.08-4.57-5.61-5.61,1.29-8.22,3.53-16.25,6.41-24.03h.01Z" fill="#d4480b"/><path d="M1605.29,979.61c-2.88,7.78-5.12,15.8-6.41,24.03-1.62-1.1-3.76-.83-5.61-.8.3-4.63-3.98-12.51-3.92-18.9.04-3.93,2.48-12.78,7.12-8.33-.4-1.51.17-10.01,2.81-9.64,4.55.64,3.41,10.77,6.01,13.64Z" fill="#fdebaf"/><path d="M1626.12,992.43c1.67-.09,10.07-.17,10.46,1.29.15.57.2,6.49-.04,6.72-.29.28-6.64.29-8.02.8-1.88-.89-5.07-1.55-7.21-1.6,1.85-1.89,2.76-3.49,4.01-5.61.34-.58.55-1.18.8-1.6Z" fill="#d4480b"/><path d="M1617.3,982.02c2.67-.52,3.45-2.79,5.97-4.05,1.51-.75,8.08-2.94,9.68-3.15,2.58-.34.41,1.47.38,1.59-4.61,3.79-22.66,12.33-5.61,12.01-.57,1.1-1.01,3.02-1.6,4-.25.42-.46,1.02-.8,1.6-3.27-2.62-4.62-4.65-6.55-8.31-.6-1.13-.33-2.53-2.26-2.11.26-.52.56-1.08.8-1.6v.02Z" fill="#f7be2e"/><path d="M1627.72,988.42c-17.05.32,1-8.22,5.61-12.01-1.79,6.62-2.92,6.9-5.61,12.01Z" fill="#fdebaf"/><path d="M1586.06,1054.09c4.43,2.4,6.37,1.78,11.21.8-.78,4.36-7.29,6.4-10.41,3.2-.13-1.26-.89-2.62-.8-4h0Z" fill="#66250a"/><path d="M1601.29,1119.76c2.17-8.06,5.36-17.31,10.4-24.03l-10.4,24.03Z" fill="#66250a"/><path d="M1588.15,1120.1c.2.1.32.89.95,1.2,1.15.57,8.66,3.43,9.3,3.33.89-.14,1.04-3.94,2.87-4.06l-1.6,6.41c-.91.85-17.34-8.01-19.22-10.02,2.14-.76,5.46,1.97,7.69,3.14h.01Z" fill="#66250a"/><path d="M1633.77,1117.81c-1.14,2.02-3.15,4.33-4.2,6.55l-3.45,3.4,8.82-14.4c1.78.14-.87,3.92-1.17,4.45Z" fill="#66250a"/><path d="M1626.11,1128.58c.75.86-5.2,7.29-5.31,8.62l-2.3,1.77c.96-3.2,3.55-6.17,5.55-8.88.31-.42.84-2.91,2.06-1.51Z" fill="#66250a"/><path d="M1614.9,1144.59c-.23.29-1.2.49-1.6.8.1-.12-.14-.86.25-1.34,1.04-1.26,3.08-2.8,4.16-4.25-.7,1.32-1.97,3.72-2.81,4.79h0Z" fill="#66250a"/><path d="M1602.08,1034.07c-3.79-.01-8.36-2.07-11.31-4.34-.65-.5-2.05-.18-1.5-1.65.2-.52,1.57-1.73,2.18-1.9,2.74-.75,13.11,5.32,10.63,7.89Z" fill="#66250a"/><path d="M1590.07,1034.88c1.7-1.25,3.87,3.49,1.18,4.8-2.72.37-1.83-4.32-1.18-4.8Z" fill="#66250a"/><path d="M1616.5,983.62c1.93-.42,1.66.98,2.26,2.11,1.93,3.65,3.28,5.68,6.55,8.31-1.25,2.11-2.15,3.71-4.01,5.61-2.43,2.49-11.85,10.17-14.93,10.43-1.35.11-1.33-.52-1.89-.82-.02-9.9,7.79-17.14,12.02-25.63h0Z" fill="#fdebaf"/><polygon points="1462.01 932.82 1469.42 911.51 1449.59 907.91 1432.62 927.39 1454.8 937.3 1462.01 932.82" fill="#a4370c"/><path d="M1444.2,843.41s-6.9-22.25-28.29-22.08c0,0-32.42,2.39-20.48,30.31,11.94,27.92,48.78-8.22,48.78-8.22h-.01Z" fill="#66250a"/><path d="M1457.5,1050.18c-8.52.03-18.92-1.14-27.09-3.61-12.9-3.9-19.6-10.39-29.8-18.05-8.12-6.1-15.76-14.25-26.19-16.25,8.35-13.7,13.54-16.1,25.3-26.62,3.25-2.91,9.39-10.63,12.63-12.2s4.16.83,7.18,1.4c11.59,2.19,24.72,2.12,36.15-.96,2.09-.56,5.23-1.05,6.33-3.15,3.24,16.28,8.67,32.56,9.84,49.3.41,5.93,1.08,21.82.1,26.99-.71,3.76-11.27,3.14-14.45,3.15h0Z" fill="#fdebaf"/><path d="M1464.97,913.26c10.83-4.24,28.16-10.97,37.5-16.03,6.07-3.29,10.29-5.46,11.07-10.81,2.14-14.64-6.14-24.25-7-36.84-.21-3.11,1.21-5.86.54-9.69-.87-4.98-5.56-12.85-13.05-15-2.81-.8-15.14,2.4-16.82,3.94-5.43,4.98,5.79,10.76,4.75,11.22-5.95.35-11.35-.53-9.67,4.26,1.37,3.88,12.09,6.21,14.2,9.58,4.77,7.62-1.3,20.8,2.75,28.99-10.34.7-19.74,3.67-29.49,5.73-1.46.31-1.95-.28-2.04-.28-.6.07-8.02,1.72-9.48,2.08-10.07,2.54-18.31,5.49-23.26,11.93,7.35,6.11,8.09,13.08,10.92,20.24,10.68-1.68,19.64-5.63,29.1-9.34h-.01Z" fill="#a4370c"/><path d="M1408.73,902.09c-9.45-4.46-26.62-15.88-38.31-11.32-4,1.56-9.13,6.1-11.58,8.86-4.95,5.58-10.38,18.03-14.76,22.03-1.51,1.39-13.06,5.68-17.83,9.81-4.29,3.71-8.01,8.53,2.09,5.22-1.8.86-6.36,6.52-2.57,7.08,2.39.35,6.57-3.89,7.8-2.98-2.58,4.53-6.77,12.73,3.66,5.21l9.9-8.94c1.5,2.11.52,11.92,2.12,12.65.52.24,2.38.02,3.17-.34,4.62-2.09,3.92-18.56,5.64-22.77,2.16-5.31,17.88-11.93,19.38-18.57,1.61-.28,1.66.19,2.53.79,5.82,4.1,11.86,11.04,17.8,15.6,4.08,3.13,8.5,6.16,13.06,8.92-.75-4.9,3.66-8.78,4.17-13.4-2.68-.44-6.61-6.76-7.05-8.74-.81-3.65-.02-5.78.79-9.13h-.01Z" fill="#a4370c"/><path d="M1457.5,1050.18c-1.48,11.48,5.79,21,9.44,31.63,2.97,8.63,5.63,18.31,7.71,27.04,2.44,10.25,5.55,15.05-4.22,22.41-4.27,3.22-14.45,7.5-19.72,6.52-2.24-.42-1.9-2.54-2.87-2.77-2.02-.49-7.59,1.35-7.54-2.24.03-2.09,12.28-14.22,13.81-18.75,1.36-4.04-.03-3.88-1.12-6.97-4.43-12.48-21.77-39.98-21.74-51.01,0-3.16,2.95-7.62-.83-9.47,8.17,2.47,18.57,3.64,27.09,3.61h-.01Z" fill="#a4370c"/><path d="M1437.63,916.58c3.69,7.47,9.81,10.89,17.32,13.83,1.09.43,6.61,2.33,7.06,2.41-1.38,8.59-2.46,17.44-1.81,26.18-14.99,5.07-32.4,6.09-47.86,2.71-.88-6.44-6.66-14.21-8.13-22.57-.71-4.05-1.39-6.63-.68-11.07.38-2.4,3.78-10.07,6.1-10.6,3.22-.73,6.06,4.8,9.57,6.23,6.72,2.74,14.36-1.88,18.42-7.13h.01Z" fill="#fdebaf"/><path d="M1460.21,959.01c.27,3.67,1.08,8.1,1.81,11.73-1.1,2.1-4.24,2.58-6.33,3.15-11.43,3.08-24.55,3.14-36.15.96-3.03-.57-3.95-2.97-7.18-1.4-.35-3.72.49-8.14,0-11.73,15.46,3.39,32.87,2.36,47.86-2.71h-.01Z" fill="#d4480b"/><path d="M1374.43,1012.27c10.43,1.99,18.07,10.15,26.19,16.25-1.37,3.03-5.08,1.89-7.21.9-.16,1.26.06,2.42.42,3.63,1.22,4.06,10.36,21.42,12.94,25.88,2.67,4.62,12.27,14.5,11.99,18.78-.37,5.82-17.69,18.66-20.85,24.82-2.52.49-3.43,3.4-7.62,2.72-3.81-.62-2.98-4.32-3.21-4.52,2.73-7.27,10.56-17.76,9.01-25.71-.36-1.84-14.49-17.46-16.98-20.93-8.24-11.46-17.62-23.96-9.02-37.59,1.46-2.32,4.18-3.96,4.35-4.23h-.01Z" fill="#a4370c"/><path d="M1425.89,855.2c-.33-.48-9.28-2.36-10.83-2.7-.03,1.86-.49,3.59,1.52,4.34,2.37.88,12.11,2.51,9.31-1.63,1.18,1.47,4.03,3.06,4.97,5.41,5.7-7.03,12.78-.41,9.54,7.75-2.14,5.4-6.64,4.36-7.24,4.94-.46.45.24,6.59-.05,8.08l-1.79-6.31c-1.65,8.93-8.42,11.26-14.82,15.45-1.12.73-1.37,2.36-1.55,2.47-.26.16-1.88-.79-2.96-.74-.76.03-1.33.88-1.45.87-4.95-.24-13.73-10.61-14.92-15.32-1.76-6.94.41-17.07-.43-24.4.39.04.63,1.65,2.23,1.87,15.49,2.12,9.19-8.06-.88-1.88-.67.14-.61-.92-.44-1.33,1.23-2.99,13.15-15.55,15.76-14.91,3.17,4.31,6.99,8.09,10.38,12.21,1.47,1.78,2.64,4.6,3.64,5.84h0ZM1410.54,872.37c-.23-.24-2.09,0-2.6-1.47-1.01-2.95,1.79-6.49.35-9.37-1.73,2.09-2.76,6.92-2.29,9.46.73,3.87,6.72,3.7,4.53,1.38h.01ZM1418.67,876.87c-4.55-.09-9.15.48-13.54-.91,1.07,6.41,10.87,5.97,13.54.91Z" fill="#a4370c"/><path d="M1437.63,891.31c1.59,3.49.25,13.51-1.62,16.89-1.08,1.95-8.41,7.96-10.62,8.36-6.33,1.14-11.89-7.51-11.96-13.04-.04-3.44,2.12-6.26,2.53-9.49,4.17-.62,8.08-4.1,11.8-5.8,3.02-1.38,6.07.69,5.36-5.02,1.91,1.04,2.09,4.63,2.9,6.6.41.99,1.53,1.36,1.6,1.52v-.02Z" fill="#a4370c"/><path d="M1445.76,893.11c-2.11,8.31-2.65,16.39-8.13,23.47-4.06,5.25-11.7,9.87-18.42,7.13-3.51-1.43-6.35-6.95-9.57-6.23-.44-5.6-4.27-10.31-3.61-16.25,2.94-2.5,7.08-4.24,8.13-7.22.57.02,1.27.08,1.81,0-.4,3.23-2.57,6.05-2.53,9.49.07,5.54,5.62,14.18,11.96,13.04,2.21-.4,9.54-6.41,10.62-8.36,1.87-3.38,3.21-13.4,1.62-16.89,2.82.09,5.47,1.15,8.13,1.81h-.01Z" fill="#d4480b"/><path d="M1418.67,876.87c-2.67,5.06-12.47,5.5-13.54-.91,4.39,1.39,8.99.82,13.54.91Z" fill="#66250a"/><path d="M1410.54,872.37c2.19,2.32-3.81,2.49-4.53-1.38-.48-2.54.55-7.37,2.29-9.46,1.44,2.88-1.36,6.42-.35,9.37.5,1.47,2.37,1.23,2.6,1.47h-.01Z" fill="#66250a"/><path d="M1392.07,854.3c.44,0,.94-.14,1.42-.3l-1.42.3Z" fill="#66250a"/><path d="M1404.81,851.64l-8.2,1.71s-.05.03-.07.04c-.06.01-.11.01-.16,0l-.95.2c.31.45.72,1.5,2,1.67,10.21,1.39,10.95-2.55,7.39-3.63h-.01Z" fill="#66250a"/><path d="M1467.28,885.59c-1.08-1.72-3.81-3.43-4.22-4.87-.61-2.11.9-5.94.82-8.83-.31-10.79-6.01-13.75-14.51-17.6-.99-.45-3.06-.8-3.41-1.12-.52-.49-.08-1.32-.2-1.58-.28-.58-.7-.88-.9-1.81-.23-1.04.24-2.6,0-3.61-.22-.9-.43-1.82-.65-2.76l-22.93,4.79c.33.38.66.77.98,1.16,1.47,1.78,2.64,4.6,3.64,5.84,1.18,1.47,4.03,3.06,4.97,5.41,5.7-7.03,12.78-.41,9.54,7.75-2.14,5.4-6.64,4.36-7.24,4.94-.46.45.24,6.59-.05,8.08l-1.79-6.31c-1.65,8.93-8.42,11.26-14.82,15.45-1.12.73-1.37,2.36-1.55,2.47-.26.16-1.88-.79-2.96-.74-.76.03-1.33.88-1.45.87,1.11.75,2.31.85,3.61.9.57.02,1.27.08,1.81,0,4.17-.62,8.08-4.1,11.8-5.8,3.02-1.38,6.07.69,5.36-5.02,1.91,1.04,2.09,4.63,2.9,6.6.41.99,1.53,1.36,1.6,1.52,2.82.09,5.47,1.15,8.13,1.81,7.95,1.95,14.62,6.53,21.67,10.83,1.73-6.14,3.51-12.5-.15-18.35v-.02Z" fill="#66250a"/><path d="M1416.59,856.83c2.37.88,12.11,2.51,9.31-1.63-.33-.48-9.28-2.36-10.83-2.7-.03,1.86-.49,3.59,1.52,4.34h0Z" fill="#66250a"/></svg>