<?xml version="1.0" encoding="UTF-8"?><svg id="Layer_1" xmlns="http://www.w3.org/2000/svg" width="2500.58" height="1605.13" viewBox="0 0 2500.58 1605.13"><rect x="1567.83" y="734.32" width="55.3" height="55.3" fill="#0b705f"/><rect x="919.85" y="814.65" width="832.31" height="421.97" fill="#b08b46"/><polygon points="-32.62 737.13 614.7 825.04 638.73 1587.69 -32.62 1587.69 -32.62 737.13" fill="#b08b46"/><rect x="1876.68" y="766.8" width="691.09" height="772.1" fill="#b08b46"/><path d="M-126.53,782.93c-.75-4.85-4.14-10.32-2.34-16.45l12.95,9.37c6.16,1.74,2.37-5.97,3.5-7.04,4.36-4.1,22.66,12.81,23.48,11.76l3.54-14.1c5.29,15.39,11.48,10.27,22.35,14.1,5.43-.25,10.6.49,15.53,2.23,7.76-6.7,15.33-7.61,22.72-2.73,14.62-7.65,25.11-8.5,40.38-2.01,12.23-6.38,28.1-6.22,40.85-2.33,2.55,18.38,16.4,15.06,29.79,7.68,11.08,2.75,21.38,2.57,30.92-.53,13.39.55,26.75,1.36,40.08,2.43l3.09,4.66c8.62-.01,12,24.97,4.7,28.21-13.33.14-15.74,3.28-14.13-11.76l-15.27,11.75c-2.45-10.04-3.39.23-9.4.07-2.72-.07,2.32-9.49-8.2-.06,1.2-20.79-12.42-7.04-22.46-7.33-4.03-.12-9.82-4.92-10.44-4.43-.33.26-1.01,5.43-2.67,7.92-5.8,8.73-3.69-.16-6.62-2.14-1.77-1.19-5.42,2-6.71.85-1.07-.95-1.6-11.72-6.36.42-5.75-12.03-4.78-3.54-15.24-2.35l-5.95-14.11-7.04,14.11c-5.06-12.56-3.75,4.11-12.91-2.37l-.04,7.09c-7.9-9.35-14.34,2.51-19.96,2.42-1.33-.02-.67-8.09-5.83-4.7-.68.45,1.84,6.88-4.74,4.62l-4.68-9.4-4.73,10.6-4.68-3.54c-4.3,15.78-5.81-2.23-12.94-2.39-8.07,21.97-9.32,0-11.78,0-2.31,11.04-10.82,12.25-18.82,4.73-2.84,11.36-7.51-3.76-8.24-9.4-8.31,13.49-18.78,8.7-31.68,10.64-2.52.38-3.87,3.45-7.07,3.55-2.14.06-.27-5.74-2.36-4.78-6.23,2.86,2.32,12.17-15.29,0v-7.05c4.35-8.26,3.55-16.98,2.5-25.94l2.2-2.28h0Z" fill="#003d2b"/><path d="M-128.88,1326.04c4.21,91.5,5.1,183.03,2.37,274.54,202.97-3.11,405.97-2.42,608.93,2.9,516.43-6.92,1032.97-6.72,1549.39,0,136.86-5.3,273.81-5.91,410.73-3.55,4.52-11.07,21.24-12.55,31.46-9.29,6.48,2.07,15.17,7.44,6.88,12.84l1.63-4.7h202.4l2.86,4.7c-5.8-20.44-5.88-40.7,0-61.13-4.6-7.77-4.63-15.76,0-23.51h2.35v86.99H-131.24v-291.54c.67-2.05,1.45-2.02,2.35,0v11.76h0Z" fill="#c1a774"/><path d="M2556.11,425.56l2.65,4.72c-6.78,7.19,8.52,6.15,11.26-.02,11.66-26.93,46.98-28.65,28.29,5.2,5.86-7.45,20.48-18.33,27.87-9.3.37-13.75,2.23-18.04,16.97-20.33,4.1-24.63,45.15-10.78,46.98,10.33v68.18l-1.18,124.09c-1.41,5-2.59,9.88-3.52,14.63l-3.15,2.58c5.57.8,7.01,3.88,7.85,9.18v18.81c-5.56,5.44-6.94,7.43-10.81,14.84-11.53.48-22.85-.83-33.98-3.94-3.64,5.18-9.78,9.29-13.99,3.21-2.18,6.34-4,5.92-7.05,0-3.83,7.32-16.99,7.09-21.16,0-6.28,5.56-19.18,10-21.16,0-5.07,5.01-10.91,2.57-17.52-7.29-3.36,9.19-9.52,15.58-17.75,7.29-3.5,4.88-8.2,4.1-14.11-2.35-6.85,1.67-8.23-.91-4.7-7.05.65-2.73,2.98-4.62,6.98-5.68-5.2-2.32-9.88-5.13-14.03-8.42-18.68,1.05-37.38.47-56.08-1.74l-5.92-7.85c-5.75,15.11-35.86,10.67-37.54-3.22-6.63-1.88-9.75-7.98-9.34-18.29-6.42,17.16-11.95,30.31-27.17,7.98-2.19-6.73-7.38-9.03-15.57-6.92-1.31-11.02-6.49-18.82-15.56-23.39-11.09,12.78-23.25,9.52-15.75-7.3-2.22,8.26-18.08,9.98-22.45,3.74-1.13-1.61-2.44-21.13-2.49-24.65-13.15-2.1-19.95-11.08-11.87-22.93-3.54-7.15-.69-9.12,6.34-10.52,2.23-15.6,8.2-21.68,17.9-18.23,6.65-9.1,16.53-14.44,29.62-16-12.45-12.43-12.54-45.51,10.48-27.02l2.19-3.48c-6.02-11.57-5.11-17.47,2.74-17.69,8.66-7.32,14.36-5.69,23.94-2.92,4.7-8.16,11.55-15.63,16.55-3.35,11.02-1.83,13.61.85,13.59,10.98q5.72,12.34,0,0c-6.22-8.86-2.75-13.15,7.82-13.95,2.04-15.37,8.14-20.26,17.61-7.62,1.21-12.25,15.9-27.31,24.35-11.55,7.29,3.55,13.8,4.37,21.52,1.55-1.74-17.95,26.55-16.02,19.89.86,8.56,6.34,13.5,5.74,14.18-6.27,19.16-30.19,51.91-15.19,26.3,11.12l-.02-.02Z" fill="#669800"/><path d="M2485.55,517.25c1.84,9.78-17.82,2.3-21.14,4.72l4.7,7.01c-6.26-1.2-16.16-1.3-16.5-9.38h-2.27c-3.05,8.56-6.79,20.19-14.11,25.86-.26-11.4,5.25-22.55,13.3-30.35,11.04,2.2,23.92,5.97,36.03,2.14h-.01Z" fill="#8dc1bd"/><path d="M2438.53,514.88l-18.79-23.47c18.31-8.1,20.13,9.34,18.79,23.47Z" fill="#91c6ce"/><rect x="204.61" y="731.26" width="100.17" height="54.52" fill="#056c59"/><path d="M2445.6,580.75c-.59,6.04-6.5,9.47-7.99,11.68-1.81,2.68,4.78,5.71-5.01,4.86-20.15-1.75.5-19.51,13.01-16.53h-.01Z" fill="#8cc2c3"/><path d="M2480.86,491.38l2.36,14.09c-17.44,3.14-24.37-17.1-2.36-14.09Z" fill="#8ec2be"/><path d="M2457.35,550.14c-13.87,2.91-2.84-11.86-4.69-21.13,22.26,4.64,1.9,9.19,4.69,21.13Z" fill="#8fc4ca"/><path d="M2424.44,451.42c7.16,7.09,14.76,13.28,9.38,23.5-6.68,4.99-9.35-19.65-9.38-23.5Z" fill="#83c7d8"/><path d="M2499.67,599.57c5.54,5.74-16.84,6.18-18.79,7.01-1.23-9.96,14.63-11.32,18.79-7.01Z" fill="#89bfb9"/><path d="M2516.13,630.14c7.06,7.42-17.03,2.21-19.31,1.63s-7.08-.66-6.53-3.99c5.08,0,22.9-.73,25.84,2.36Z" fill="#7db382"/><path d="M2379.76,561.93l-11.72,21.13c2.41-9.57-1.13-21.58,11.72-21.13Z" fill="#8cc4d1"/><path d="M2426.8,526.66c.54.57-3.57,14.06-7.04,14.09v-16.45c1.88,1.79,6.79,2.09,7.04,2.36Z" fill="#8dc2bf"/><path d="M-63.05,780.58c13.2,1.16,7.8-8.15,9.36-14.8.62-2.64,6.06-1.61,7.16-7.45,2.24-11.9-5.7-27.67,10.56-34.05,8.13,10.05,13.14,22.38,27.96,23.54,3.68-.61,3.78-24.45,11.96-7.21,15.94-17.9,9.58-8.68,20.04-3.57,11.25,5.51,8.81-4.13,13.19-5.59s8.74,1.27,12.96.88c3.73-.35,7.53-4.26,12.12-3.12,3.82.94,9.93,10.43,14.92,13.41,14.44,8.61,16.05,1.96,28.06.53,14.72-1.75,25.13.85,38.61-9.58,4.15,19.24,10.79,37.66,16.46,56.43l-43.59-2.51c-12.2,6.91-19.99.3-28.17.38-5.84.05-13.76,7.69-21.07,6.87-1.02-.11-17.62-9.6-17.64-10.63-.02-1.12,4.9-3.42,4.66-5.85-8.9.38-18.01-.72-26.9.09-4.28.39-7.79,4.29-11.84,4.38-5.71.12-12.13-5.3-21.19-4.64-7.13.51-13.78,6.48-19.25,6.65-4.3.14-7.45-4.27-10.93-3.71-3.23.52-6.5,6.47-12.14,6.46-5.1-.01-10.99-5.38-15.31-6.9h0Z" fill="#056c59"/><path d="M21.59,884.03c15.46,10.49-5.93,24.08-14.11,14.11.16,2.13-.6,3.68-2.46,4.54l-22.6-3.92c-6.93,5.61-13.98,11.42-21.13,17.45l-5.53-1.61c-8,5.63-32.12,7.06-42.63,6.16l-4.39-3.81c-6.4-4.83-3.19-12.49,4.7-11.76-.78-6.71,5.03-11.4,17.45-14.09l1.36-4.72c-8.47.3-5.84-11.69,2.35-11.76,8.31-.03,20.98-4.37,29.48-3.59,6.29.58,11.06,7.55,16.55,8.32,7.5,1.05,11.43-4.87,18.02-4.31,4.78.41,18.2,6.3,22.94,8.98h0Z" fill="#9c989b"/><path d="M82.72,874.62c.91,8.67.19,17.71-2.15,27.11,4.17-3.15,8.02-3.56,11.56-1.25,2.03.78,2.03,1.57,0,2.35-3.99,27.92-35.62,32.8-58.5,23.85-13.04-5.1-30.69-19.79-11.38-27.59,6.66,5.35,7.23.33,1.69-15.07,4.71-9.24,15.51-6.05,23.66-8.08,10.32-2.56,24.56-12.48,35.11-1.33h.01Z" fill="#9d999c"/><path d="M23.94,884.03c10.29,7.09,9.37,14.87,7.04,25.85l-10.58-7.03c-6.33,4.16,3.02,13.6,7.6,16.51,8.6,5.46,36.43,7.82,46.05,4.19,3.2-1.21,11.51-17.74,18.07-20.71,13.1,2.72,5.78,15.71-.38,23.57-8.23,10.51-21.96,15.82-34.89,11.7-.48,2.05-1.28,4.04-2.88,5.47-.85.76-18.26,1.67-21.86,1.82-3.71.16-4.81.13-8.38-1.82-4.19,6.2-16.42,5.13-16.25-3.12l-4.7-3.36c-.88-1.89-1.82-39.64,4.7-38.96.7,0,13.2-2.27,13.79-2.65,1.81-1.16,2.94-9.41.32-11.46.61.34,1.83-.36,2.35,0h0Z" fill="#706f6d"/><path d="M153.25,881.67c-25.66,20.68-48.39,40.99-75.24,61.13-7.37,4.1-23.2,6.88-21.16-4.7,15.09-2,25.17-5.09,34.22-18.67,6.17-9.24,2.91-8.79,1.05-16.6-.18-.74.17-1.61,0-2.35-7.02.8-10.58-12.95-4.7-16.46l65.83-2.35h0Z" fill="#765e30"/><path d="M87.42,884.03c1.09,2.71,3.91,13.04,4.7,16.46-17.2,12.88-38.03,9.88-58.78,11.74-2.7-22.32,21.19-15.32,36.13-21.34l8.53,11.95c-7.07-13.79,5.63-15.46,4.72-28.21,1.79,1.89,3.61,6.69,4.7,9.4Z" fill="#827980"/><path d="M2687.77,1516.48v2.35c-.03,7.82.03,15.69,0,23.51l-2.14,5.61c-13.76,13.49-28.41,24.77-43.97,33.86-153.5,6.27-311-7.15-461.38-33.08-25.41-4.38-112.88-20.63-127.81-34.41-1.57-1.45-2.92-3.13-4.21-4.89.21-2.35,1.15-3.71,3.14-3.64,145.6,5.54,299.3,4.03,448.31-.06,58.73-.54,117.22.1,175.93,1.29,4.33.09,12.49,4.03,12.13,9.46h0Z" fill="#aa8745"/><path d="M2344.5,1483.56l343.25-54.08c.09,28.96-.08,58.03.01,87l-12.78-4.86c-198.14-6.53-402.37,9.2-599.8.27-9.07-.41-17.73-3.56-26.92-2.46-2.62,8.67-25.57-.92-21.47-7.74l30.88.69c16.78-6.63,42.48-7.51,58.78,0,24.87,1.74,50.73,2.52,77.59,2.35,2.68-5.98,4.38-5.98,7.05,0,1.61-4.59,7.46-6.15,17.56-4.67.32-7.85,2.3-13.35,5.95-16.49h119.91-.01Z" fill="#93743c"/><path d="M-128.88,1326.04l51.74,2.34c.1,6.25-.16,12.57-.01,18.82l4.84,7.97c-.44,26.61.05,53.2,1.46,79.77l-3.95,8.66,4.87,2.86c-2.82,13.28,13.81,59.13,20.8,66.36,23.78,6.7,47.87,12.32,72.26,16.86l.82,3.26c31.43-2.17,68.68,4.52,99.66,13.08,3.43,11.98,31.66,13.93,23.18-2.26.39-4.24,3.67-6.87,7.91-7.81,3.9-.86,38.82,2.33,45.5,3.44l7.14,5.3,12.87-2.89c59.5,8.4,119.13,15.67,178.89,21.8,30.88-2.41,61.48-7.18,91.82-14.3,6.3-.31,7.39,2.86,3.26,9.5,1.48,6.5.1,14.03-4.15,22.6-.26,9.99-2.8,17.35-7.61,22.07-203.73-.05-407.58.03-611.31.01,0-92.44.02-185,0-277.45h0Z" fill="#b08b46"/><path d="M1937.76,1328.39c.67-2.05,1.45-2.02,2.35,0,7.58,32.45,8.25,68.31,2.35,101.1,7.21,5.45,6.89,17.91,0,23.51l-11.4,3.81c-101.3,13.64-202.03,21.1-302.2,22.38-62.08,10.96-124.38,11.79-186.74,12.4-50.54,13.87-100.88,25.73-151.02,35.57,102.45-12.46,204.8-25.95,307.06-40.45,22.11-2.07,83.11-7.71,100.29-1.57,2.26.81,4.42,1.92,6.54,3.12l28.21-2.35,8.34-5.13c31.97-5.06,63.76-9,95.37-11.81l4.43,2.83,61.13-2.35c4.86-4.86,12.49-6.73,22.87-5.61,7.04-2.44,12.74-2.14,17.1.91,3.71,1.1,6.46,3.05,7.05,7.05,21.41,8.07,45.54,15.76,72.4,23.05l2.83,5.17c6.27-6.64,27.77-5.19,32.92,2.35l-28.2.02c3.08,5.07,14.05,5.26,18.8,7.03,75.91,28.22,135.55,35.77,215.46,46.69,126.18,17.24,247.69,27.25,375.69,21.34,19.68-3.04,29.29-30.78,48.35-35.12-.07,20.34.05,40.79,0,61.13h-206.9c-.38,0,.34-4.19-3.85-6.63-7.77-4.53-30.6-4.5-30.36,6.8-138.28-.23-276.61-.27-414.86-.17l-10.72-3.53c-26.41-20.14-60.58-20.42-92.33-20.01l-5.1-4.67-25.86,2.35c-1.45,1.18-2.94,2.27-4.57,3.09-9.06,4.51-79.79-6.2-95.3-9.26l-8.29-5.59c-17.69-2.82-36.18-1.54-54.08,0-9.32,4.62-18.89,4.62-28.21,0-18.76,1.99-37.68,2.14-56.43,0-10.41,7.16-35.66,5.14-45.85-2.35-2.26,7.81-31.62,7.2-35.27,0-2.34,7.33-25.36,4.66-27.04-2.35-24.54-3.1-53.06-3.16-77.59,0l-7.52,4.99c-71.52,9.09-143.16,14.66-214.9,16.73-27.32-1.34-34.02-7.01-23.29-32.82-2.29-13.37-76.71-15.9-88.83-15.58-102.07,2.72-200.39,12.55-299.67,34.96-83.99,18.17-165.51,15.68-244.2-19.52-12.49-1.88-22.99-5.97-31.49-12.28l1.36-5.5c18.6-5.9,37.62-10.04,57.07-12.41,10.97-.92,14.21-4.35,9.75-10.3-1.11.12-2.19.14-3.16-.16-1.81-.56-20.14-26.47-22.68-30.11-.96-1.38.65-3.58,2.34-5l-5.36-3.38c-2.7-28.04-2.33-56.42.52-84.5l4.84-3.81c1.64-1.2,3.32-2.32,5.13-3.16s3.49-1.6,5.15-1.58c28.25.41,56.39,2.72,84.33,6.34,75.81,18.05,150.89,17.09,228.29,9.67,94.62,2.25,189.69,7.89,285.2,16.91,38.85-1.88,77.44-7.17,115.77-15.87,44.04,2.97,87.78,2.95,131.21-.06,27.69-9.94,54.88-15.79,85.53-15.03,69.88,1.48,135.67-.64,202.07-16.21,21.73,1.38,43.16,3.69,64.3,6.93,37.72-10.84,74.83-24.87,111.33-42.09,8.11-4.14,14.61-4.12,19.48.07l.06.02Z" fill="#b08b46"/><path d="M1465.18,1561.15c25.54-2.43,52.05-2.38,77.59,0,8.79.22,20.7,2.35,27.04,2.35h35.27c14.09,0,30.87,2.06,45.85,2.35,18.72,2.15,37.71,1.99,56.43,0h28.21c17.96-1.59,36.19-2.71,54.08,0,36.98,3.46,70.63,11.69,108.15,11.76l25.86-2.35c38.87-.18,78.57-1.53,108.15,28.21-516.42.4-1032.97.13-1549.39,0,.2-14.4,4.01-32.6,11.76-44.67-3.15-14.28,19.53-24.63,33-26.36,7.82-1.01,24.87-1.29,28.13,5.2,37.56,5.37,71.01,24.08,107.67,32.22,92.53,20.53,197.78-15.06,291.18-27.18,63.82-8.28,137.71-15.56,201.84-12.07,13.49.74,52.24,4.1,62.23,10.65,20.44,13.42-21.31,32.28,17.77,36.31,62.77,6.47,160.63-14.43,229.2-16.42h-.02Z" fill="#765e30"/><path d="M-86.56,905.19c-2.31,2.63-3.94,8.2-4.7,11.76,2.14,3.27,1.19,7.82-2.87,13.65-1.14,6.02,49.99,7.43,57.07,6.04l4.58,3.82c-1.44-5.98.35-6.6,4.7-2.35,4.19-2.19,15.19-3.63,18.81,0,3.35-7.83,15.12-5.7,16.46,2.35,2.9.5,9.78,3.53,11.61,2.26,1.36-.94,4.06-22.93,9.58.09,6.88-7.98,11.62-1.76,17.67-2.35,3.93-.38,7.14-1.91,10.52-2.35,5.59,4.35,14.2,4.72,21.16,4.7-20.24,15.19-40.51,30-61.13,44.67-.49,1.8-1.06,3.55-1.91,5.16-3.14,5.93-46.23,32.43-56.29,38.02l-9.99,1.49c-25.82-2.4-51.56-5.9-77.59-4.7v-129.31c11.41-1.56,36.25-3.88,42.32,7.05h0Z" fill="#b08b46"/><path d="M1610.95,712.39c12.21,1.19,7.83,22.36,20.07,23.58,8.77.87,22.28-16.57,37.53-16.57,11.74,0,44.57,18.96,59.8,22.54,12.64,2.97,37.33,4.55,51.05,5.58,22,1.65,37.49-17.87,46.53-18.4,6.43-.38,16.89,5.9,18.97,5.88,1.53-.02,4.16-3.24,7.13-3.65,16.97-2.38,12.18,5.6,17.54,6.92,10.08,2.48,16.72-9.49,21.96-9.01,1.62.15,17.06,10.05,18.01,11.36l5.51-.22c4.4,9.87,9.89,19.02,16.46,27.46l-.81,5.67c11.73,9.41-25.01,20.24-28.14,11.34-4.05,6.63-9.82,7.64-14.05.7-11.86,3.86-22.87,4.1-33.03.71-6.24,4.93-14.35,4.03-24.34-2.7-9.06,2.34-16.37,1.93-21.92-1.24-3.67,4.88-7.95,4.56-13.06,1.56-7.65,5.88-10.45-1.38-12.36-6.89-6.3,5.5-12.23,7.43-17.8,5.77-.58,14.35-11.38,13.41-20.96,7.11-14.83-2.52-26.78-2.33-40.77,3.76-3.48-.09-5.83-1.82-7.39-4.73-4.12,5.64-11.31,6.58-21.58,2.8-5.48,10.12-13.61,3.16-13.17-6.82-4.52,7.79-9.35,9.61-14.51,5.46-10.13,3.87-19.91-.71-22.58-12.13-3.44.14-4.97-2.01-4.59-6.46-12.67,1.49-20.09-2.75-22.28-12.73-9.42-3.22-8.08-17.63-6.05-25.48-8.23-10.07,9.77-21.49,18.81-21.16h.02Z" fill="#056c59"/><path d="M2179.92,710.04c2.1,10.58,4.25,21.34,6.44,32.28,7.06.26,14.21-.93,21.47-3.58,6.18,8.58,11.85,11.97,17.03,10.18,16.63-21.79,36.09-12.3,55.74.27,13.98.87,13.4-10.22,12.02-20.94,1.31-13.55,12.26-11.58,22.32-9.01,26.53-3.15,52.83-5.16,73.28,15.39,9.23,5.01,11.31-.44,12.45-8.58,2.43-7.12,8.11-10.82,14.32-5.37l11.42,19.58,22.2-29.89c2.9-3.58,5.34-3.82,8.74-.33,2.82,1.66,12,.2,15.29,7.05,4.7,9.79-3.18,27.41,5.81,38.95,1.69,2.17,6.04,2.77,6.64,3.82,2.31,4.02-2.03,15.7,5.18,20.71,3.72,1.63.38,10.11-1.54,11.28-.85.52-16.8,5.3-17.92,5.33-4.76.16-21.83-5.65-20.51-11.92-3.13-.22-5.84.51-8.14,2.18-17.8-7.45-37.58-8.12-59.36-1.99-8.58-6.08-16.92-7.68-25.03-4.79l-17.15-.11c-3.12,5.85-7.31,11.34-12.58,16.46-34.56-9.29-74.62-16.71-110.07-22.77-16.76-2.87-47.79-10.42-62.97-10.28-3.7.03-4.62,2.2-5.65,2.49-7.57,2.14-14.3,5.76-21.16,9.4-11,3.19-13.25.8-15.2-9.83l-15.43-3.88c-7.59-17.9-18.02-21.55-31.29-10.95l-6.27-1.2-3.74-4.31c6.9-16.62,10.25-34.49,10.04-53.6l5.46-.87c6.03,4.92,8.91,16.59,15.28,16.55,5.8-.04,13.77-16.19,22.37-10.81,4.94,3.09,5.32,24.85,15.59,26.81,8.83,1.68,19.74-25.08,44.66-18.86,4.75,1.19,6.88,3.67,10.24,5.12l.02.02Z" fill="#056c59"/><path d="M2457.36,710.04c-9.77,2.7-24.6,34.1-29.65,35.15-8.31,1.73-14.34-23.46-18.55-23.35-8.21,6-1.93,18.84-14.01,18.9s-14.17-7.34-21.64-11.51c-20.39-11.4-37.47-6.35-58.65-5.3-5.25.26-14.76-5.86-17.15,1.76s6.77,22.32-11.95,28.09c-12.94,3.99-24.69-20.33-46.47-11.39-8.8,3.61-11.61,18.7-25.04,9.71-3.32-2.22-4.8-8.19-7.6-9.04-3.93-1.2-8.32,4.44-13.79,4.85-15.47,1.14-11.65-10.06-13.46-19.71-1.3-6.91-7.09-9.14.52-18.16,23.96,10.36,34.95,14.11,61.11,3.51,9.18-3.72,20.35-13.98,29.61-15.18,7.56-.98,13.1,2.58,18.51,2.2,4.8-.33,8.69-5.27,14.12-4.73,4.95.49,7.95,6.88,12.91,8.49,18.04,5.87,23.78-15.44,31.85-15.55,10.09-.14,2.27,16.83,9.45,21.25l16.42-18.75c6.17,2.38,5.18,13.22,8.05,15.42,7.44,5.72,15.79-7.52,22.03-11.25,14.45-8.65,25.93-8.1,40.08.87,5.31,3.37,11,12.37,13.31,13.73h-.01Z" fill="#09825a"/><path d="M2001.24,686.53l-4.82,4.23c3.55,12.56,1.26,36.25-11.64,40.45,5.69,4.55,1.72,9.09-4.7,9.4-6.94,23.29,4.87,38.87,26.94,46.96,7.78,9.04-17.27,9.45-23.29,9.36-8.08-.11-16.49-1.51-24.26-3.68-9.9-2.76-29.62-8.72-28.77-19.73-11.21-9.58-14.58-23.82-21.16-32.92,1.69-3.2,3.86-6.61,8.18-4.67,5.13,2.31.57,11.32,8.28,9.35-7.57-9.87,14.71-26.02,22.87-27.66,6.97-1.41,23.49,2.81,19.88-6.78-5.53-14.71-13.45-25.14,7.69-26.77,10.11-.78,15.92.77,24.79,2.45h.01Z" fill="#2a8370"/><rect x="214.39" y="769.87" width="82.57" height="71.48" fill="#003d2b"/><path d="M2071.77,691.23c-5.02,10.04-1.16,22.39-2.92,33.53-1.31,8.31-7.14,16.9-8.84,25.25,3.03,3.38,1.67,4.68-2.35,2.35-12.57,9.41-19.43,2.68-24.81-9.81-13.91,17.71-28.55,10.13-22.67-11.28l-1.89-4.77c-1.09-5.18,1.06-10.62,6.44-16.31,1.93-7.28,5.27-12.03,10.02-14.26,18.75,7.63,27.42-20.68,47.02-4.7h0Z" fill="#2a8172"/><path d="M2001.24,686.53c13.78,2.62,13.36,5.27,23.51,9.4-1.97,11.87-8.31,22.07-16.46,30.56-1.67,12.9-23.84,25.09-23.51,4.7,3.78-9.13,7.98-17.38,8.8-27.66.72-8.97-8.71-19.76,7.66-17.01h0Z" fill="#066c59"/><path d="M1394.65,839.35l2.68-4.39c27.02,6.25,53.16,7.46,78.43,3.63,30.48-24.56,75.77-25.85,113.51-22.9,3.01.24,5.67,1.71,6.92,4.53,12.34-.57,24.5.33,36.47,2.7,10.44,9.95,35.89,15.92,44.43,1.48,9.48-.24,18.52-1.72,27.11-4.43,5.25,8.69,9.67,7.8,18.12,2.11l3.56,1.72c12.74-10.1,34.24-7.69,32.91,11.51l23.68,5.8,2.48,5.29.57,5.69c-35.67,34.33,24.16,84.4,50.67,38.47,9.96-17.25-.69-40.03-4.05-1.4-20.67,35.91-72.18-1.82-45.23-32.02,10.31-11.56,49.04-7.93,26.11,11.53-45.9,44.25,17.68-2.6,16.28-13.8-.15-1.23.04-2.5.33-3.78.65-2.38,2.22-2.38,4.7,0,14.43-7.27,38.34-9.05,55.48-9.38,34.6,2.09,69.16,3.6,103.69,4.52,24.34-8.83,39.47-4.86,45.38,11.91-25.51,34.33-48.38,70.19-68.18,108.15l-5.74,5.59-34.85,5.45c-5.8,14.45-21.12,24.03-36.48,24.31l13.05,12.56c.91,14.07,10.36,20.03,28.34,17.88l2.76,4.74c-3.31,7.31-8.99,14.76-11.76,21.16l-9.37,3.63c-30.08-.84-59.96-1.76-89.64-2.76l-4.44-3.23c-.67,2.05-1.45,2.02-2.35,0v-2.35c-8.95-4.08-9.83-21.09-9.4-30.56-14.16-4.98-25-8.05-38.01,1.53l-23.23,4.05c-5.56,3.06-10.22,3.55-14,1.47-7.29-.87-9.66-21.22-2.35-23.51l5.96-4.22c8.9.41,17.84-.28,26.57-2.1,24.12-5.02,53.22-16.02,9.6-5.54-12.66,1.41-37.22,3.74-42.12-9.29-6.38-4.46-6.33-9.62,0-14.11l3.82-4.01c22.68,5.16,52.65-15.5,42.44-38.35-2.6,19.07-16.02,40.77-37.8,32.56-27.53-10.38-26.91-45.84.91-53.58,37.75-10.5,12.33,24.87-4.24,35.37,2.62,8.04,35.22-28.17,33.08-32.12-14.43-26.63-71.07,6.09-51.83,36.59l-2.84,4.74c-4.03,7.77-19.27,2.67-25.01-3.16-14.75,6.33-45.1,1.47-61.17-3.27l-3.17-5.32c-2.83,6.21-9.55,4.44-9.4-2.35l-7.77,1.98c-36.44-3.04-72.26-6.84-107.44-11.38-5.07,2.63-17.57-7.73-12.93-14.11l-2.64,4.7c-14.85-2.84-29.92-3.59-45.2-2.22l-1.53-2.48c-1.42,3.99-18.9-2.18-23.2-4.43-1.45-.76-1.57-3.05-1.49-4.98-30-15.26-30.06-33.58-25.73-62.8l4.57-3.03h-.02Z" fill="#b08b46"/><path d="M1648.57,1088.57c1.75-9.52-5.9-19.63-13.36-27.04l-18.23-16.88c-5.65-1.63,6.88-17.84,8.86-18.95,8.64-4.83,60.73,52.25,41.02,71.71,14.69-5.86,29.75-10.38,45.18-13.54,4-5.02,8.7-7.37,14.11-7.05,4.18.49,6.59,4.81,7.22,12.94,5.28-.95,9.84-.55,13.67,1.2.85,1.92,12.23,11.11,13.09,11.49,1.55.68,30.02-3.5,33.61-4.79,12.13-4.34,27-29.34,28.8-42.01,34.3.88,69.38-2.3,103.45,2.35-2.88,6.67-4.48,14.45-7.05,21.16-3.21,8.38-9.62,20.1-11.76,28.21l-3.33,4.31-86.25-11.64c-24.17,20.61-45.76,28.1-75,12.36-7.18,2.84-10.69.17-13.77-6.44l-11.81-8.01c-34.96,28.35-66.49,41.89-110.02,50.94-32.04,6.66-62.85,9.94-94.8,7.86-4.36,2.56-10.23,3.59-17.62,3.09-11.28,5.87-20.3,6.41-27.05,1.62-9.68,7.39-31.4,11.39-39.97,2.35l-13.61,3.3c-50.22-12.39-98.76-12.24-150.16-4.66-96.47,2.81-197.91-5.01-287.85-30.88l-2.15-5.38h2.35c-.83-6.05.19-6.68,4.7-2.35-4.8-20.59,5.47-13.52,16.41-4.61,43.96.35,88.35,4.55,133.18,12.6l7.93,3.77c4.88.79,9.17-.56,12.91-3.87,17.66-.99,104.72-1,114.93,3.01,2.15.84,4.18,1.99,6.17,3.22,4.22-4.88,5.38-3.96,4.7,2.35,5.4-5.77,10.6-3.47,15.6,6.9l9.54,2.39c17.22-3.02,33.92-4.55,50.09-4.59l3.76-5.62c6.84.51,13.43.82,19.75.92,4.55-6.3,12.69-11.63,18.45-4.55,42.6-2.48,84.63-3.62,126.11-3.45l1.21,3.3c.27-8.21,11.24-9.91,14.11-2.35l4.63-5.12,43.53-5.47,5.91,3.54c.43-7.04,12.39-10.58,16.46-4.7l.23-3.3c12.48-4.26,25.42-8.24,38.82-11.92-5.07-7.91-3.97-9.84,3.27-15.35-2.11-.43-2.03-1.23,0-2.35l.03-.02Z" fill="#71592e"/><path d="M1970.67,966.32c-8.76,16.78-15.43,34.66-23.51,51.72-3.02,6.38-6.29,11.92-9.4,18.81-6.56.09-26.59-1.54-30.65-5.79-3.18-3.32-1.67-8.85-3.52-12.93s-17.48-15.84-17.5-17.72c3.93-5.43,10.8-2.6,16.48-4.63,12.65-4.51,18.52-10.6,24.99-22.03l43.12-7.43h0Z" fill="#765e30"/><path d="M2128.2,775.87c-5.46,2.9-16.82,8.58-21.16,11.76-2.25-3.14-.02-5.98-4.8-6.17-4-.16-13.76-.16-17.16-1.18-.46-.14-6.96-6.01-7.43-6.11-11.62-2.63-7.84,5.17-12.8,7.45-1.72.79-5.19-1.38-7.2.06-3.75,2.68-2.12,14.12-10.57-1.06-4,4.85-9.04,7.88-8.26-.03-.98-.92-11.43,12.62-9.38-2.36,2.13-10.34,17.23-23.15,28.21-25.86.82-.72,1.48-1.66,2.35-2.35,6.98-5.53,17.28-11.69,26.53-8.95,7.99,2.37,9.61,14.84,13.45,17.17,4.86,2.94,15.4-.2,18.1,7.38,2.06,5.78-4.12,5.92,10.1,10.26h.02Z" fill="#003d2b"/><path d="M235.54,705.34c8.7-2.46,17.51,9.06,22.44,9.54,5.98.57,12.51-7.61,19.24-9,9.03-1.86,19.59.19,28.86-.55,4.01,6.62-4.72,21.19-4.66,22.36.22,4.09,13.65,3.33,18.17,5.26,3.27,1.39,6.76,6.85,8.78,7.02,1.61.13,13.93-7.19,19.4-8.2,6.43-1.18,12.97-.41,19.41-.57,1.84-1.65-12.91-19.29-4.81-24.8,3.06-2.08,20.68-1.29,25.98-1.05,12.37-5.71,26.14-3.42,41.29,6.86,21.55-11.54,39.39-16.88,53.79,7.27,8.93-5.59,30.09-18.68,27.17-.02-.92,5.75-6.21,10.48-15.86,14.17,5.86,3.69,5.49,10.18-.6,6.99.66,8.07-7.95,8.96-14.11,9.4,2.2,6.66-18.03,12.46-24.05,13.42-12.38,1.97-19.82,1.24-25.23-11.4-15.3,14.16-23.4,12.26-24.23-9.39-9.08,9.93-14.44,10.97-27.57,7.68-23.04,12.67-65.54,15.74-86.26-1.59-6.19,4.95-11.75,3.46-16.67-4.48l-5.23,1.07c-4.58,2.71-10.63,1.7-18.13-3.02-10.52-1.65-17.02-5.35-19.49-11.09,1.32-6.78,1.25-17.95,2.35-25.86l.02-.02Z" fill="#056c59"/><path d="M120.34,481.98c9.26,11.15,15.48,32.96,11.76,47.02.41,1.54,1.95,3.16,2.35,4.7,3.6,3.94,6.34,8.41,8.18,13.41,9.26,59.35,23.17,116.7,41.74,172.07l-2.9,7.32c8.32,11.09,13.22,32.44,13.35,46.44l-3.95,5.28c2.93,2.43,6.06,1.65,9.4-2.35-3.85-5.04-4.27-11.09-1.25-18.15,2.4-13.56,6.53-33.55,15.36-42.98l-2.11-6.05c3.75-36.77,8.73-75.12,18.18-111.18.47-1.79,1.65-3.42,2.93-5.08s2.87-3.2,4.52-4.65c2.08-.37,3.93-3.08,7.81-2.04,2.87.77,3.39,4.07,3.95,4.39,2.81,38.25-1.7,78.91-14.11,115.21,6.67,2.59,5.5,25.7-2.35,25.86,7.57,6.23-2.88,15.22-9.4,9.4-8.1,13.38-6.83,28.62,3.81,45.73l-3.81,3.64c-.57,11.88-2.18,23.68-4.7,35.27,2.22,7.66-1.51,15.16-11.21,22.49-6.27,6.37-25.7,19.72-33.46,17.47-5.44-15.13-7.26-31.19-9.4-47.02-1.79-13.18-.55-14.48-4.7-28.21-11.91-13.15-20.47-39.21-16.46-56.43-3.86-17.9-4.34-35.67-7.33-52.63-11.55-65.54-23.41-131.09-34.99-196.59.92-.54,1.03-4.36,5.85-4.74,3.12-.24,9.05,1.75,12.96,2.39h-.02Z" fill="#5b3027"/><path d="M193.22,319.75c.04-8.9,22.78-15.55,31.79-17.82,10.98-3.71,34.86-10.05,27.9,8.46-15.75,8.45-28.99,19.37-39.73,32.77l-5.85.1,1.9,5.35c-7.6,13.76-35.2,43.91-52,41.9,8.01,11.01,8.91,18.19-.58,28.69,25.42-18.38,65.71-45.79,98.46-36.49,4.51,1.28,14.9,4.84,14.54,10.22-.49,7.27-26.23,25.22-35.73,17.65,1.79,14.56-36.42,34.41-46,31.72-8.52-9.36-12.53-6.36-12.03,9,5.87-1.89,12.08-2.54,18.25-2.5,11.38.07,40.17.59,39.06,14.36,6.73-1.77,7.28,1.23,8.07,7,2.43,17.84-23.3,24.28-37,21.75,11.37,14.37,21.11,29.97,29.21,46.8,7.62-11.65,16.61-15.49,26.96-11.51l5.67-.57c13.01-6.45,27.12-9.59,42.32-9.4,30.79-9.46,3.94,29.44-7.12,37.82-10.93,3.56-14.89,8.43-11.87,14.64,35.19-2.12,69.84,15.71,89.06,45.21,11.93,21.59.28,23.96-34.94,7.11,3.98,4.58,23.13,27.51,21.18,32.08-2.32,5.43-5.38,7.28-10.77,4.56-14.24-11.18-27.68-19.66-44.56-26.11-6.03-9.49-12.83-14.08-20.39-13.77-12.69-5.81-34.8-16.18-39.34-28.66-3.94,1.32-8.79.72-11.76-2.35l-4.16,5.55c-8.89,4.62-66.78,10.23-75.31,4.54-28.55-19.06,14.07-38.65,34.48-30.41l-1.5-6.56c-13.69,7.34-32.2-4.57-39.53-16.92-10.01,2.57-13.38-1.65-17.42-10.26-6.26,1.27-6.24.32-2.35-4.7-.12-10.85,17.81-9.6,26.33-8.45,15.05,2.04,30.61,10.98,42.96,19.33-1.57-4.39-.78-8.79,1.59-12.73-5.14-.74-10.25-2.11-14.21-5.66l-26.02-29.62c-13.62.32-26.87-1.37-39.75-5.08l-2.64-4.82c-4.47,2.98-10.74,3.77-18.81,2.35-14,8.25-53.35,37.75-63.58,41.16-4.73,1.58-9.88-3.11-14.12-.2-2.43,1.67-2.84,8.54-4.87,11.66-2.34,3.59-24.51,19.37-28.69,20.91-4.54,1.68-8.66-.96-10.95.44-2.04,1.24-5.47,8.65-9.4,11.91-8.63,7.16-19.42,11.48-27.1,19.92-2.47.17-.54-4.03-1.16-4.69,3.56-9.85,10.72-17.8,16.46-25.86.65-.9,1.33-1.62,2.11-1.77,2.19-.41,24.06-24.92,28.07-30.89.2-.29-.73-1.34-1.97-2.61l-9.38-11.76c-.05,5.79-2.11,11.87-7.22,15.14l-63.32,26.02c17.96-32.46,41.47-61.49,76.74-76.09,6.15-2.55,27.32-9.75,32.57-9.75h41.14c-3.01-3.25-8.92-12.01-11.76-14.11.05-2.62,1.49-4.73,2.35-7.05l-7.05-7.05c-13.32-.21-12.5-6.12-18.91-10.49-3.16-2.16-13.72-6.14-14.15-6.81-2.94-4.64-1.22-9.02-2.4-11.45-2.46-5.01-11.18-13.54-13.89-19.48,2.68-3.15,8.16-2.68,11.73-3.5,23.58-4.35,45.53-2,65.83,7.05,4.28,4.15,4.03,11.01,10.91,11.16s12.63-8.74,13.77-8.74c1.04,0,13.32,11.99,15.28,14.03,7.91,5.23,11.31,5.76,10.18,1.59l6.27-3.94c1.67-3.74,3.42-9.33,4.7-11.76-.8-1.76-1.54-3.57-1.85-5.48-1.14-6.94,41.78-62,52.24-68.61l6.04,1.21c.89-.67,1.56-1.81,2.35-2.35-.6-6.34.21-6.91,4.7-2.35l-.03.02Z" fill="#7ec441"/><path d="M214.38,714.74c-3.69,20.51-11.15,40.49-14.11,61.13-1.8,6.66-5.33,8.63-9.4,2.35-2.34-15.44-5.8-36.8-9.4-51.72,28.37,28.02,11.94-17.55,32.92-11.76h-.01Z" fill="#066b58"/><path d="M200.27,775.87c-1.86,12.96-1.81,29.06-2.38,42.31-4.78-2.64-5.99-14.92-6.74-20.25-.92-6.59.61-13.73-.29-19.71l9.4-2.35h.01Z" fill="#073e2b"/><path d="M7.48,898.13v42.32c-5.64-.97-9.29-3.48-16.46-2.35-5.64-.75-11.91-.75-18.81,0-.94.74-3.5,1.97-4.7,2.35-10.65,1.09-14.14-17.55-11.76-25.86,1.3-.18,15.63-15.66,21.36-15.33,2.23-1.43-.45-5.66-.2-5.81,1.32-.81,25.81,4.75,30.57,4.68Z" fill="#867d84"/><path d="M336.64,1516.48c15.61.26,31.25,2.62,46.93,7.06l1.45,5.13c8.47-2.81,17.98-3.04,26.76-1.2l.1-6.02,65.67-19.28,4.85,2.55c1.41-4.41,3.24-4.36,4.7,0,2.6-6.08,4.47-6.05,7.05,0l6.93,2.82c1.15,15.18,7.46,19.73,18.93,13.64,4.75-.46,9.45-.46,14.11,0,3.47-1.7,5.68-2.12,4.7,2.35,3.05.73,6.09,1.21,9.11,1.44,19.1-5.79,34.67-10.09,54.75-10.65.3,0-4.75,1.97-.38-2.55-1.96-1.49-1.17-2.27,2.35-2.35-3.04-5.98.22-7.13,4.7-2.35,4.06-.78,10.82-.89,14.11,2.35,2.33.07,7.74,3.85,11.75,2.36.85,4.39-2.05,5.82-5.37,7.54-18.18,9.41-54.95,7.39-74.56,18.31-24.08-3.44-46.75-1.26-61.13,21.16,1.12-7.4-2.98-4.47-7.51-4.02-31.48,3.13-54.32,15.34-87.81,13.52-61.22-3.33-129.9-17.79-191.52-23.61l.17-5.41c8.94-6.78,28.77-15.93,39.8-15.75,5.93-10.41,17.68.39,12.97,11.67l15.08-1.98c-2.98-5.35-14.13-28.66-5.8-31.57,3.09-1.08,56.11,9.52,64.41,11.53,1.1.27,1.93,1.63,2.68,3.31h.02Z" fill="#94763c"/><path d="M103.88,1500.02c.71-4.5,2.56-4.23,4.7,0,1.32-4.51,3.38-4.51,4.7,0,7.49.81,8.32,5.06,9.07,11.86-2.35,17.67,4.86,24.83,21.62,21.48-.95-4.74-.21-8.98,2.21-12.71,36.3-13.59,63.95-8.79,99.97-.04l1.15,2.91-39.97,21.16c-18.65-1.76-37.81-1.61-56.42-4.69l2.61,15.37c-5.39,6.18-32.34,6.47-32.37-6.06-32.21-6.67-64.86-10.56-97.21-16.38-6.47-4.43-17.28-7.86-32.44-10.28-2.37-1.03-1.48-3.6-.48-6.18,26.04-4.93,51.12-5.72,75.24-2.35,4.53-.48,2.78-2.52-5.24-6.14-3.46-1.98-5.66-4.04-2.86-7.2,1.56-1.77,41.72-7.19,45.72-.77v.02Z" fill="#876a36"/><path d="M-18.38,1424.79l8.5-1.01c22.37,7.28,44.61,13.89,66.73,19.82,7.79,8.4,16.13,17.15,23.51,25.86,7.49-1.38,13.83,7.98,9.4,14.11-4.18,1.91-9.31,1.3-15.39-1.83-38.62-3.4-77.73-18.93-109.13-41.99l-.08-5.56c2.96-6.69,11.12-6.87,16.46-9.4h0Z" fill="#846836"/><path d="M599.97,1370.71c51.98,5.63,104.25,9.25,156.34,14.12,13.97,1.3,34.72,7.25,47.05,7.23,31.15-.07,66.89-6.41,98.64-7.33,58.57-1.71,111.7,9.88,169.28,11.95,106.2,3.81,204.81-10.63,308.19-11.95,55.32-.71,85.87-8.22,139.01-15.97,68.5-9.99,144.66-20.26,213.59-23.88,35.44-1.86,71.49,4.57,105.87-6.99,14.25-4.79,24.95-13.56,40.55-18.22,7.42-2.21,57.02-12.35,59.29-10.09v18.82c-41.61,6.43-93.98,45.23-135.31,47.1-11.64.52-27.31-6.04-39.89-7.09-39.9-3.33-63.59,11.83-101.08,14.05-52.81,3.12-109.98-1.07-162.17,4.76-17.41,1.95-32.1,10.77-50.06,13.42-37.76,5.57-68.48-.8-105.05-1.8-49.12-1.34-86.43,20.13-136.42,16.52-75.78-5.48-152.55-10.39-228-16.52-56.42-4.58-120.4,6.98-178.88,4.9-48.64-1.73-88.06-13.69-133.94-18.89-22.12-2.51-44.75-2.48-66.99-2.37-4.57-3.78-4.56-7.98,0-11.76h-.02Z" fill="#59461e"/><path d="M1942.46,1453c6.64,2.44,6.47,9.23,0,11.76-12.85,4.93-26.54,4.32-39.97,4.7l-61.13,2.35c-36.12,2.25-70.35,12.91-108.15,14.11l-28.21,2.35c-32.7.13-64.97-.34-97.56,2.36-112.09,9.29-222.54,36.81-335.05,42.29,19.52-17.72,53.57-16.39,79.96-22.29,30.72-6.87,64.98-21.74,95.5-24.41,27.27-2.39,56.74,1.05,84.31-.33,33.75-1.68,67.58-9.71,101.15-11.71,21.6-1.28,44.25,1.39,65.79-.05,81.21-5.42,162.11-16.67,243.37-21.14h-.01Z" fill="#765e30"/><path d="M623.48,1509.43c-.76-.02-4.54,3.71-10,2.36-1.91-.47-2.97-4.66-4.11-4.71-3.84-1.12-6.64-4.5-8.4-10.14l-12.82-15.65,2.41-4.77c3.08-.16,7.75,1.25,9.4-2.35,1.93,8.28,22.25,23.28,23.51,35.27h.01Z" fill="#765e30"/><path d="M1542.77,1561.15c-25.28-.63-52.33-.74-77.59,0,2.44-3.9,8.92-2.34,12.9-2.39,17.23-.21,34.56-.18,51.79,0,3.98.04,10.46-1.5,12.9,2.39h0Z" fill="#aa8745"/><path d="M1902.49,1469.46c-19.18,5.24-41.21,1.11-61.13,2.35,19.19-4.75,41.15-1.79,61.13-2.35Z" fill="#aa8745"/><path d="M1707.35,1565.85c-16.83,3.93-39.59,3.93-56.43,0,18.75.37,37.67,0,56.43,0Z" fill="#aa8745"/><path d="M1789.64,1565.85h-54.08c13.13-3.42,32.4-3.49,46.13-2.52,4.17.29,7.17,2.45,7.95,2.52Z" fill="#aa8745"/><path d="M1733.21,1485.91c-7,4.34-19.32,2.32-28.21,2.35,7.1-4.52,19.21-2.06,28.21-2.35Z" fill="#aa8745"/><path d="M1923.65,1575.26c-6.17,4.28-17.77,2.37-25.86,2.35,6.2-4.32,17.73-2.31,25.86-2.35Z" fill="#aa8745"/><path d="M1399.35,721.8l17.58-9c8.88,7.33,17.99,11.94,27.33,13.83,12.98-9.11,33.31.87,41.36,13.21,5.46-.47,11.06.51,16.78,2.95,8.42-15.71,27.17-11.19,22.37,7.54,12.64-10.18,21.51-9.08,26.59,3.28,6.24,5.02,19.02-1.2,21.47-8.54l5.2-2.11h2.35c2.34.26,3.91,2.61,4.7,7.05l4.68,30.55-2.3-51.7c2.19-.63,4.07,3.22,4.68,4.69,3.08,7.49,1.19,15.58,2.83,18.35.63,1.07,4.92,1.6,6.65,3.82,2.14,2.74,2.4,8.26,4.52,9.68,3.85,2.59,14.09-.22,20.01,3.39l-1.09,9.43c-3.2,2.56-6.59,7.04-10.59,9.39l-2.33-7.03-5.92,9.38c-3.66.81-3.24-6.87-5.84-6.99-1.05-.05-6.72,8.18-8.18,7.01-.47-10.08-6.91-3.9-8.92-5.19-2.86-1.83-.25-10.11-9.9,2.83l-4.7-7.05-4.72,7.05-2.4-11.75-8.2,7-8.21-9.36c-.07,8.66-7.32,26.18-14.33,10.79-1.54-3.39-.39-10.62-4.47-10.77-1.5,5.67-3.77,13.68-9.41,16.44-.71-5.47-1.17-14.05-7.05-16.45-1.23,23.44-13.98,26.4-11.8,0l-11.7,11.74c.63-2.83-4.99-13.27-7.05-11.74l-2.41,9.39-5.84-7.04c-6.83,7.91-5.93,14.87-16.42,7.01-6.4,12.85-5.27,3.05-9.43,2.97-2.28-.05-21.82,16.88-24.76-.58-10.27,10.03-11.05,7.36-19.93-2.3-3.9,1.54-4.92,10.54-6.23,11.35-1.5.93-14.99.85-15.86.11-2.2-1.87.75-15.88-7.3-13.86-8.16-3.62-2.75-31.31.8-38.87,3.4-7.24,19.9-25.26,27.41-19.91h-.02Z" fill="#003d2b"/><path d="M1441.67,698.29c9.74.36,18.12,2.86,25.13,7.51,21.2-11.34,49.49-5.23,70.97,4.41,5.36-1.6,10.16-2.43,14.4-2.51,2.59,4.33,9,10.57,12.91,14.13,7.39,6.73,14.27,3.87,12.95,21.13-.96,12.54-19.22,21.96-29.57,14.28-3.79-2.81-3.62-11.43-11.16-9.32-4.01,1.12-5.98,9.14-14.32,6.67-7.38-2.18,2.78-13.99-5.17-16.19-8.49-2.36-10.24,6.58-12.61,8.07-6.36,3.99-8.9-1.55-13.45-2.64-2.14-.51-4.97,1.49-7.68.33-3.81-1.62-7.66-9.64-11.94-11.68-1.15-.55-17.01-5.47-17.94-5.55-3-.25-5.66,3.74-9.16,4.29-13.87,2.22-23.98-13.72-30.52-14.27-5.39-.45-9.39,5.89-15.16,4.84,1.79-14.32,28.57-25.16,42.32-23.51h0Z" fill="#056c59"/><path d="M1585.09,750.01c-1.05-1.87-4.41-5.45-4.7-7.05-.38-2.03-1.63-14.23,2.32-14.09l2.38,21.15h0Z" fill="#056c59"/><path d="M2513.79,780.58c7.26.44,5.03,7.24,10.57-7.04,3.69,1.79,5.94,9.41,8.24,10.75,3.07,1.78,6-1.51,8.02-1.37,1.68.11,1.09,4.66,2.75,4.75,1.79.09,4.69-2.51,6.72-2.16,3.18.54,3.38,6.58,3.72,6.84,1.58,1.2,5.88-6.49,8.5-6.84,2.7-.37,4.97,3.66,6.78,3.68,1.98.02,4.01-3.85,4.65-3.85,2.79,0,1.86,7.58,5.84,6.99l4.76-11.72c4.15-.87,1.52,3.26,2.32,4.68-1.22,20.3,12.67,36.89,4.89,57.89-1.43,3.85-4.21,4.49-4.89,5.59-4.1-2.2-6.45.93-7.05,9.4-4.18,6.06-9.07,14.26-11.76,21.16-4.87-2.13-11.85-5.26-16.46-7.05-3.05-3.51-1.86-6.93,3.59-10.25-13.07,3.14-26.81,2.64-41.21-1.5-19.37-6.8-39.4-12.08-58.78-18.81-.97-3.46-2.11-5.6-3.42-6.43l-41.25-10.02c-27.34-9.19-54.34-20.7-82.29-28.21.25-7.37,7.48-11.31,13.27-6.23,2.43-7.78,10.55-7.02,12.56.57,2.89-8.06,9.97-10.82,14.63-2.83,10.63,1.1,19.89.64,28.86-3.1l2.61,2.38c.46,13.7,4.34,12.88,11.65-2.46,8.65,3.64,14.6,2.89,17.87-2.27,6.5,1.83,13.44,2.56,20.81,2.18,3.05,1.15,3.98-.84,5.87,4.7l5.86-7.03c.94,13.94,10.22,11.58,17.67,2.34,5.52,13.52,5.79-2.71,10.57-4.71.54-.22,1.52.09,2.35,0,3.43,1.88,13.92,3.81,21.16,0l.02-.02Z" fill="#0c8c4a"/><path d="M2181.01,742.48c7.26.44,5.03,7.24,10.57-7.04,3.69,1.79,5.94,9.41,8.24,10.75,3.07,1.78,6-1.51,8.02-1.37,1.68.11,1.09,4.66,2.75,4.75,1.79.09,4.69-2.51,6.72-2.16,3.18.54,3.38,6.58,3.72,6.84,1.58,1.2,5.88-6.49,8.5-6.84,2.7-.37,4.97,3.66,6.78,3.68,1.98.02,4.01-3.85,4.65-3.85,2.79,0,1.86,7.58,5.84,6.99l4.76-11.72c4.15-.87,1.52,3.26,2.32,4.68-1.22,20.3,12.67,36.89,4.89,57.89-1.43,3.85-4.21,4.49-4.89,5.59-4.1-2.2-6.45.93-7.05,9.4-4.18,6.06-9.07,14.26-11.76,21.16-4.87-2.13-11.85-5.26-16.46-7.05-3.05-3.51-1.86-6.93,3.59-10.25-13.07,3.14-26.81,2.64-41.21-1.5-19.37-6.8-39.4-12.08-58.78-18.81-.97-3.46-2.11-5.6-3.42-6.43l-41.25-10.02c-27.34-9.19-54.34-20.7-82.29-28.21.25-7.37,7.48-11.31,13.27-6.23,2.43-7.78,10.55-7.02,12.56.57,2.89-8.06,9.97-10.82,14.63-2.83,10.63,1.1,19.89.64,28.86-3.1l2.61,2.38c.46,13.7,4.34,12.88,11.65-2.46,8.65,3.64,14.6,2.89,17.87-2.27,6.5,1.83,13.44,2.56,20.81,2.18,3.05,1.15,3.98-.84,5.87,4.7l5.86-7.03c.94,13.94,10.22,11.58,17.67,2.34,5.52,13.52,5.79-2.71,10.57-4.71.54-.22,1.52.09,2.35,0,3.43,1.88,13.92,3.81,21.16,0l.02-.02Z" fill="#0c8c4a"/><path d="M2513.79,780.58c-.88,6.9-4.5,15.7-8.23,4.67l-2.34,4.73c-3.21-12.6-10.9-.03-10.59-9.4,5.98-.67,14.98-.38,21.16,0h0Z" fill="#04442d"/><path d="M2410.34,825.25c9.79.17,21.6.98,31.1,2.99,8.87,1.87,21.27,2.21,13.57,13.47-14.91-5.18-29.77-11.45-44.67-16.46h0Z" fill="#b99b4f"/><path d="M2450.3,785.28l-5.87,2.36-7.07,9.39-3.54-11.74-8.21,9.39-3.49-4.68-3.57,7.03-5.84-9.39c-.11,18.51-19.41,20.5-16.51,0-11.35,13.9-6.83,6.08-13.34,5.05-2.61-.41-1.94,2.69-11.8.63-1.88-.39-4.41,1.24-5.05.86-1.21-.73-2.04-6.35-3.88-6.5-2.82-.23-5.68,13.55-10.56,14.06l-3.53-14.12c-9.87,21.76-7.52,5.78-11.82,4.69-3.39-.85-7.11,6.05-8.19,4.73,1.21-2.86-2.73-9.04-2.38-9.37s9.49-.29,9.38-3.56c-.08-2.72-9.56-1.92-7-8.22,9.79-.23,19.66.23,29.47.1,4.3-.05,8.87-2.46,11.85-2.3,4.77.25,6.17,6.44,13.88,7.11,10.2.88,22.06-5.63,32.87-5.04,5.91.32,27.75,7.11,34.17,9.52h.03Z" fill="#013e2b"/><path d="M2057.67,752.36c-10.96,9.67-14.35,16.95-28.21,25.86-2.2,1.42-4.92,3.79-7.05,4.7-21.95,4.56-35.47-9.45-42.32-28.21-.43-4.63.3-9.45,0-14.11,1.94-5.05,3.95-7.59,4.7-9.4,12.83,13.11,10.42,4.31,17.23-1.67,1.98-1.74,5.53-2.25,6.29-3.03,14.23.03-1,18.43,8.29,21.15,7.57,2.22,13.55-12.92,18.71-11.73,6.11,12.4,5.37,18.97,22.37,16.45h-.01Z" fill="#265a4b"/><path d="M1716.75,952.21c-18.34-32.57,19.33-68.33,51.53-50.35,3.05,1.7,9.69,8.13,9.68,11.56,0,2.88-31.16,35.06-34.64,36.06-5.77,1.67-11.62-.73-9.77-7.46,1.25-4.54,29.41-26.32,25.51-29.77-43.88-8.91-43.31,53.63-1.66,44.15,18.53-4.22,10.5-28.49,24.01-37.06,17.68,31.78-16.01,59.38-48.2,51.68-2.11-.43-2.02-1.23,0-2.35-.03-2.58,2.95-4.86.25-8.31-2.43-3.1-12.52-6.79-16.71-8.15h0Z" fill="#bb9b5e"/><path d="M1829.61,851.11c1.65,2.88,8.92.87,7.03,5.85-.91,2.42-34.21,35.84-36.75,36.28-4.06.71-8.75-5.71-7.65-9.92,1.44-5.49,29-24.25,23.25-29.85-43.43-7.88-39,57.36,2.25,43.36,19.09-6.48,4.96-27.55,20.16-36.29,12.5,7.1,5.63,31.67-3.49,41.22-35.71,37.42-92.25-21.07-49.48-55.35.75.16,1.59-.14,2.35,0,11.95-3.48,33.25-2.92,42.32,4.7h.01Z" fill="#bb9a5e"/><path d="M1733.21,985.12c37.46,16.64,78.91-9.07,117.58-10.58-38.52,12.61-75.47,36.46-117.58,31.74.02-7.04.05-14.12,0-21.16Z" fill="#765e30"/><path d="M863.29,1119.14c1.5-4.76,14.53-1.47,16.46,2.35,1.73,1.58,1.89,3.41.66,3.18-2.7-.5,10.53-4.54,11.66,2.29,5.96-4.25,12.24-3.66,8.83,3.93,16.36,5.86,41.32,5.86,54.08-7.05,1.52-4.95,7.79-4.16,18.81,2.35l72.45,18.07c57.73,7.39,117.25,12.64,175.62,14.82,41.98,1.57,82.59-7.89,122.33-7.13,27.37.52,56.74,10.16,83.37,11.85l-14.11,9.38,28.2.04c-14.47,23.62,19.62,46.95,39.98,51.71,4.1-6.29,18.42-2.51,23.51,2.35.65,7.43-10.3,8.39-14.11,2.35l-12.64,3.96c-121.7,6.17-242.06,16.28-361.57,31.37-82.05.77-164.32-3.01-246.82-11.33l-145.92-5.31c-72.57-2.62-146.85-20.57-209.28-53.08-8.78-1.05-15.67-3.69-20.66-7.93-7.91-12.31-10.22-39.17-2.35-51.72-6.44-2.09-6.17-14.47-2.67-18.93,1.38-1.75,38.19-13.99,41.95-14.24,100.59,4.63,202.75,8.9,306.5,12.8l25.69,3.91h.03Z" fill="#b08b46"/><path d="M1940.11,1194.37c.39,8.55-.06,17.29,0,25.86.03,3.92-.02,7.84,0,11.76l-7.77,3.75c-51.36-4.18-103.5.23-156.42,13.21l-159.06,29.71c-81.02,13.26-156.39,9.55-237.66,4.63-34.32-1-68.7.71-102.73,5.78-188.85,38.77-386.66,26.22-573.19-12.07-39.65-1.75-79.37-2.57-119.16-2.46-17.39-.87-74.92-3.79-86.04-12.65-1.46-1.16-2.72-2.56-3.93-4.04-6.98-17.79-6.74-38.58,0-56.43,12.2-3.24,25.35-1.94,39.43,3.9,73.71,29.49,151.2,48.74,231.67,49,96.49-1.32,193.85,4.31,288.4,12.16l45.76-.51c129.62-10.89,259.51-22.08,389.66-33.59l1.96-2.75c5.61-.38,11.42-2.17,14.11-2.35h2.35c.78-.05,1.57.05,2.35,0,2.83.78,5.35,1.85,4.54,4.42,87.21-4.19,179.4-17.62,267.59-33.11,46.12-6.08,101.7-13.09,147.65-8.79,3.86.36,7.29,2.5,10.48,4.56h.01Z" fill="#765e30"/><path d="M1512.2,1156.76c14.09-4.27,30.99-3.18,45.56-4.99,24.54-3.05,59.82-8.66,83.24-15.51,25.96-7.59,52.1-28.12,74.94-42.61,3.01-.59,13.35,6.66,16.19,9.01,2.4,1.99,3.2,6.47,3.7,6.79.61.4,4.62-2.25,7.38-1.61,9.44,2.18,19.82,9.08,31.2,8.97,15.56-.15,29.65-13.98,42.31-21.2l90.48,11.78c-1.66,6.32-4.14,20.55-4.66,27.07-3.15,39.25,12.35,19.62,39.93,15.25,4.62,9.32,4.62,18.89,0,28.21,8.02,6.38,8.41,38.72-2.35,42.32-6.96-6.33-6.68-19.38,0-25.86-2.8-2.71-5.35-5-7.66-6.87l-107.63,2.44c-98.53,19.29-197.29,33.72-299.24,40.98-2.52.18-5.11-.42-7.78-1.03s-5.34-1.57-7.95-2.6c-.78,2.04-1.57,2.04-2.35,0-10.19-3.35-18.79-10.5-25.81-21.45-13.36-14.41-37.6-23.68-7.69.78,8.22,6.52,10.76,12.63,7.63,18.32-6.06,6.01-18.12-1.65-24.83-6.09-13.67-9.04-26.76-23.28-22.37-40.8-23.02,3.64-35.05-10.34-6.87-14.24,14.48.92,26.19-1.16,39.97-2.35l2.49,4.45c-20.55,24.43.45,9.15,11.79-2.46,9.97-4.11,20.78-5.26,31.33-3.5l-.95-3.2Z" fill="#b08b46"/><path d="M1512.2,1156.76c14.7-.1,20.46-.19,24.75,16.38,6.4,24.75-10.47,36.6-25.92,51.74-16.49-11.87-1.56-14.54,5.87-24.64,15.16-20.6,3.61-42.89-22.2-38.63-16.16,2.66-21.29,28.62-43.62,20.99l16.46-21.14c14.63-1.26,30.05-4.6,44.67-4.7h-.01Z" fill="#bc9c60"/><path d="M3375.46,1090.51c1.03,9.29,1.23,18.85,1.92,28.19.32,4.27.56,8.55.87,12.82l-7.54,4.62c-52-1.03-104.14,7.36-156.44,25.14l-157.87,43.31c-80.55,20.02-156.68,21.15-238.83,21.37-34.61,1.27-69.09,5.49-102.96,13.36-187.17,55.23-387.18,55.14-577.75,26.21-40.03.82-80.07,2.65-120.1,5.5-17.57.25-75.68,1.01-87.53-7.88-1.56-1.16-2.93-2.6-4.26-4.13-8.35-18.91-9.65-41.59-4.2-61.52,12.04-4.37,25.37-3.86,39.97,1.54,76.37,27.09,155.79,42.75,236.8,37.51,97.01-8.07,195.41-8.61,291.15-6.55l46.01-3.7c129.64-20.77,259.53-41.89,389.65-63.38l1.77-3.13c5.62-.8,11.33-3.15,14.03-3.53l2.36-.16c.78-.11,1.58-.05,2.36-.16,2.91.66,5.52,1.65,4.9,4.51,87.46-10.56,179.24-31.53,266.84-54.47,45.96-9.8,101.38-21.25,147.94-19.72,3.91.13,7.52,2.22,10.89,4.25h.01Z" fill="#765e30"/><path d="M1509.85,1227.29c77.73-5.27,144.32-10.62,221.44-24.25,33.6-5.94,62.42-16.05,97.16-18.04,36.83-2.11,74.76-1.03,111.67-2.39.14,3.9-.19,7.86-.01,11.77-19.17.54-38.52-.7-57.7-.1-117.54,3.69-224.71,35.95-343.26,39.97-8.74.3-15.9,3.24-25.84,2.47-6.71-.52-2.45-5.76-3.45-9.42h-.01Z" fill="#59461e"/><path d="M1507.5,1227.29c-.78.05-1.57-.05-2.35,0-8.87,1.12-15.4-.46-23.51-2.35-6.68-14.51-22.74-24.25-32.9-36.45,25.98-8.91,41.75,23.84,58.77,38.81h-.01Z" fill="#bc9c60"/><path d="M1496.05,1168.84c5.11-2.95,15.49,7.62,16.24,12.74,1.35,9.17-7.54,14.23-13.34,19.68l-17.27-15.11c4.63-1.52,13.39-16.75,14.36-17.31h.01Z" fill="#b08b46"/><path d="M1980.08,754.71c7.3,18.13,15.32,26.95,34.75,28.44,2.9-3.49,4.39-4.38,7.57-.22-2.77-6.06,1.86-8.63,7.05-4.7,11.1,1.34,22.47.64,34.09-2.11,5.85-11.47,16.35-7.55,24.07-.11,18.92-.66,25.39,3.21,19.42,11.62-8.24,6.03-23.09,25.08-31.61,28.46-6.16,2.44-12.21-3.52-18.01,3.15-4.89,5.63,3.08,9.4,2.26,13.9-.29,1.6-17.6,20.68-20.83,25.03-8.46.51-8.46-11.3-15.26-11.84-7.35-.58-23.82,4.5-32.84,4.89-33.06,1.41-63.6-4.96-94.15-4.95-19.71,0-40.25,4.82-62.3,4.85-15.64-7.49-30.22-9.48-47.02-4.7-.79,2.04-1.57,2.04-2.35,0-7.05-1.47-25.8-4.55-30.71-8.25-3.21-2.42,1.31-6.85-.86-10.54-4.33-7.33-22.41-6.29-26.06,2.31-4.99,1.27-2.27-2.7-4.66-4.68-3.98,6.72-11.19,7.73-17.63,3.39-2.32-1.56-1.91-6.45-3.52-5.74-1.2.53-2.44,3.66-5.05,4.12-8.47,1.49-8.6,3.02-9.21,3.04-2.12.09-5.94-3.48-7.71-2.21-1.06.76-.6,4.67-5.96,7.07-7.85,3.53-21.01,2.66-29.26.47s-11.3-7.74-16.1-9.41c-2.86-1-7.95,1.09-11.34.46-2.53-.47-3.81-3.19-4.75-3.54-2.17-.81-.14,5.5-2.31,4.7-.94-.35-2.21-3.05-4.75-3.52-3.53-.66-9.75,1.57-11.4,1.07-1.76-.53-1.42-4.61-2.84-4.67-23.01-1.08-67.04-1.59-88.54,7.76-23.45,10.19-20.24,20.9-54.67,18.13l-52.94-7.01c-4.1-1.35-6.84-5.22-8.21-11.62l-18.27-32.39c-2.99-7.29-2-12.21,2.97-14.77,4.01-10.38,11.53,1.01,10.98,9.56,2.93.29,5.92.16,8.85.01,3.92-13.44,11.37-13.82,19.9-3.11,5.09-5.73,11.01-5.27,17.77,1.41,11.25-6.3,22.13-8.59,32.64-6.85,3.21-7.04,7.63-9.78,13.27-8.23,5.33-6.54,10.57-3.75,14.08,2.97,10.1-10.85,14.12-4.28,14.67,7.89,1.06-13.25,9.48-20.94,16.37-5.53,7.24-16.83,14.02-6.61,16.72,6.1,4.86-14.21,10.79-17.14,17.78-8.81,4.02-4.81,10.1-3.87,12.57,1.8,9.61-.75,19.02.48,28.24,3.69,9.86-2.14,19.89-3.22,30.07-3.26,1.29-1.03,6.68-5.18,7.03-4.7l.05,14.11,9.36-7.05.05,9.4c6.01-5.42,7.64-14.05,10.55-.01l12.92-16.45,3.55,21.18,7.07-14.12c3.48,9.12,2.2,11.62,10.55,4.68l4.71,7.07,2.39-14.11c2.38-1.8,8.96,11.64,10.52,11.6.66-.01,2.86-3.52,5.34-4,2.71-.52,6.09,1.5,7.74.59,5.88-3.23,1.75-14.88,11.59-1.15,4.19-13.88,4.79-2.35,7.61-.42,1.33.91,15.63-2,13.63,5.09,4.53,1.19,0-5.19,4.64-4.65l4.71,7.03,4.75-21.16c5.24.34,4.1,8.82,4.71,9.41,1.04,1.01,16.11-12.25,21.12-9.41l.04,11.75,9.33-7.05c3.15,16.07,9.05-4.18,11.78-2.35,3.93,13.8,6.12,6.34,11,5.6,2.43-.37,4.53,1.01,7.71.2,1.72-.44,3.42-4.3,4.77-3.45,1.93,1.2-.5,11.79,9.43,2.35l.04,7.09c7.88,1.37,9.92-4.86,10.59-4.84,2.89.07,4.83,3.21,7.12,3.59,11.34,1.87,21.04-4.18,30.59-3.1,1.95.22.63,3.9,1.08,4.26,7.21,5.83,3.42-15,9.35-16.4l5.91,18.82,3.56-9.41c4.14-1.03,1.53,4.06,2.34,4.66,2.31,1.72,5.59-2.83,7.05-3.18,5.4-1.3,6.78,4.24,9.38-6.19,18.9,16.15,51.34,22.63,75.22,16.43-3.14-4.61-10.2-5.52-15.25-9.4-15.74-12.06-17.22-22.69-10.6-39.95,6.96,1.8,6.53,12.03,0,14.11h0Z" fill="#0c8c4a"/><path d="M2218.76,757.89c7.3,18.13,15.32,26.95,34.75,28.44,2.9-3.49,4.39-4.38,7.57-.22-2.77-6.06,1.86-8.63,7.05-4.7,11.1,1.34,22.47.64,34.09-2.11,5.85-11.47,16.35-7.55,24.07-.11,18.92-.66,25.39,3.21,19.42,11.62-8.24,6.03-23.09,25.08-31.61,28.46-6.16,2.44-12.21-3.52-18.01,3.15-4.89,5.63,3.08,9.4,2.26,13.9-.29,1.6-17.6,20.68-20.83,25.03-8.46.51-8.46-11.3-15.26-11.84-7.35-.58-23.82,4.5-32.84,4.89-33.06,1.41-63.6-4.96-94.15-4.95-19.71,0-40.25,4.82-62.3,4.85-15.64-7.49-30.22-9.48-47.02-4.7-.79,2.04-1.57,2.04-2.35,0-7.05-1.47-25.8-4.55-30.71-8.25-3.21-2.42,1.31-6.85-.86-10.54-4.33-7.33-22.41-6.29-26.06,2.31-4.99,1.27-2.27-2.7-4.66-4.68-3.98,6.72-11.19,7.73-17.63,3.39-2.32-1.56-1.91-6.45-3.52-5.74-1.2.53-2.44,3.66-5.05,4.12-8.47,1.49-8.6,3.02-9.21,3.04-2.12.09-5.94-3.48-7.71-2.21-1.06.76-.6,4.67-5.96,7.07-7.85,3.53-21.01,2.66-29.26.47s-11.3-7.74-16.1-9.41c-2.86-1-7.95,1.09-11.34.46-2.53-.47-3.81-3.19-4.75-3.54-2.17-.81-.14,5.5-2.31,4.7-.94-.35-2.21-3.05-4.75-3.52-3.53-.66-9.75,1.57-11.4,1.07-1.76-.53-1.42-4.61-2.84-4.67-23.01-1.08-67.04-1.59-88.54,7.76-23.45,10.19-20.24,20.9-54.67,18.13l-52.94-7.01c-4.1-1.35-6.84-5.22-8.21-11.62l-18.27-32.39c-2.99-7.29-2-12.21,2.97-14.77,4.01-10.38,11.53,1.01,10.98,9.56,2.93.29,5.92.16,8.85.01,3.92-13.44,11.37-13.82,19.9-3.11,5.09-5.73,11.01-5.27,17.77,1.41,11.25-6.3,22.13-8.59,32.64-6.85,3.21-7.04,7.63-9.78,13.27-8.23,5.33-6.54,10.57-3.75,14.08,2.97,10.1-10.85,14.12-4.28,14.67,7.89,1.06-13.25,9.48-20.94,16.37-5.53,7.24-16.83,14.02-6.61,16.72,6.1,4.86-14.21,10.79-17.14,17.78-8.81,4.02-4.81,10.1-3.87,12.57,1.8,9.61-.75,19.02.48,28.24,3.69,9.86-2.14,19.89-3.22,30.07-3.26,1.29-1.03,6.68-5.18,7.03-4.7l.05,14.11,9.36-7.05.05,9.4c6.01-5.42,7.64-14.05,10.55-.01l12.92-16.45,3.55,21.18,7.07-14.12c3.48,9.12,2.2,11.62,10.55,4.68l4.71,7.07,2.39-14.11c2.38-1.8,8.96,11.64,10.52,11.6.66-.01,2.86-3.52,5.34-4,2.71-.52,6.09,1.5,7.74.59,5.88-3.23,1.75-14.88,11.59-1.15,4.19-13.88,4.79-2.35,7.61-.42,1.33.91,15.63-2,13.63,5.09,4.53,1.19,0-5.19,4.64-4.65l4.71,7.03,4.75-21.16c5.24.34,4.1,8.82,4.71,9.41,1.04,1.01,16.11-12.25,21.12-9.41l.04,11.75,9.33-7.05c3.15,16.07,9.05-4.18,11.78-2.35,3.93,13.8,6.12,6.34,11,5.6,2.43-.37,4.53,1.01,7.71.2,1.72-.44,3.42-4.3,4.77-3.45,1.93,1.2-.5,11.79,9.43,2.35l.04,7.09c7.88,1.37,9.92-4.86,10.59-4.84,2.89.07,4.83,3.21,7.12,3.59,11.34,1.87,21.04-4.18,30.59-3.1,1.95.22.63,3.9,1.08,4.26,7.21,5.83,3.42-15,9.35-16.4l5.91,18.82,3.56-9.41c4.14-1.03,1.53,4.06,2.34,4.66,2.31,1.72,5.59-2.83,7.05-3.18,5.4-1.3,6.78,4.24,9.38-6.19,18.9,16.15,51.34,22.63,75.22,16.43-3.14-4.61-10.2-5.52-15.25-9.4-15.74-12.06-17.22-22.69-10.6-39.95,6.96,1.8,6.53,12.03,0,14.11h0Z" fill="#0c8c4a"/><path d="M1834.31,851.11c-1.57,0-3.14.03-4.7,0-17.71-.32-25.44-1.54-42.32-4.7,10.79-12.25,38.48-8.86,47.02,4.7h0Z" fill="#319d64"/><path d="M1911.33,802.35c11.8-1.71,62.37-.83,56.68,18.9-5.13,17.8-72.7,17.33-80.83,4.03-8.42-13.75,14.04-21.46,24.16-22.93h-.01Z" fill="#c79e50"/><path d="M1873.94,818.51c8.14,13.26-22.24,15.31-27.87,5.5-.61-11.27,25.58-9.23,27.87-5.5Z" fill="#c49e50"/><path d="M1980.08,754.71c4.25,12.11,15.49,5.88,11.78,21.17,4.59-3.31,5.93,3.48,14.06,2.35,2.13-3.8-4.57-18.69,4.71-16.47l2.39,21.15,4.7-9.38,4.67,9.4c-12.8,5.49-15.81,5.14-28.06-3.68-10-7.2-13.15-12.49-14.26-24.54h.01Z" fill="#2a8370"/><path d="M407.17,246.87c-22.85,10.8-48,16.77-73.46,13.51-8.95-1.15-21.6-8.05-27.64-8.8,12.03-19.02,10.15-12,27.04-11.57,18.04.46,24.83-16.2,28.19-16.22,2.21,0,15.14,12.6,19.86,15,8.73,4.44,17.76,3.81,26.01,8.08h0Z" fill="#f0fefe"/><path d="M270.81,745.31c4.38-17.13,10.14,1.74,13.04,2.36s5.88-5.01,8.97-4.51c2.16.35,10.35,10.09,17.38,11.17,6.33.98,36.52.91,43.99.51,10.06-.53,17.57-8.13,24.18-9.17,5.71-.89,10.46,2.93,15.36,1.67s7.86-11.1,14.57-9.08c5.91,1.78,1.39,17.61,7.14,18.79,4.84.99,8.81-11.69,18.53-9.56,3.69.81-.47,15.94,20.88,11.39,1.32-.28,23.9-8.28,25.21-8.87,8.36-5.42,15.06-1.38,20.1,12.12,8.81-1.27,18.78-.42,20.75,9.88,5.3.35,8.35,3.3,6.17,8.57-.64,12.04-4.29,17.04-10.93,15.01-4.16,6.2-8.99,10.41-15.32,4-5.71,2.52-15.54,2.79-20.97-.22-5.55,1.59-12.95,1.88-22.2.88-5.91,14.49-17.95,15.39-24.81,1.09-12.52,8.1-24.2,10.8-37.42,5.56l-7.41.64c-9.82,13.04-19.2,11.07-30.59,1.97,1.02-8-1.32-6.09-7.01,5.72-12.71-.41-24.1,2.14-34.18,7.66-10.18-7.11-13.38-7.47-25.62-5.39-6.5,8.17-13.24,3.94-17.47-4-.39-4.8-.23-10.16.29-14.97,1.08-10.11,11.08-39.09,6.99-45.1-1.05-1.54-7.7-6.96-9.63-8.12h.01Z" fill="#003d2b"/><path d="M527.08,811.14c6.27,4.56,6.46,24.07,2.44,28.67-5.55,6.37-97.62,11.95-112.94,4.24.01,2.05-.76,3.63-2.47,4.62l-39.2-2.57c43.29,18.48-31.27,39.66-47.68,26.17l-8.06-1.37c-9.13-7.2-34.88-31.18-40.38-39.87-1.51-2.39-1.23-5.46-.93-8.13-.73-.84-1.84-1.59-2.35-2.35-5.23.5-6.25-.93-2.35-4.7-.14-.74.06-1.58,0-2.35,10.45,6.81,11.38,5.26,17.64-4.69,4.43,13.26,5.91-4.12,10.56.02-.83,10.33,4.18-.04,5.89.01,1.48.05,11.46,23.1,17.67-2.38l4.69,7.03,5.86-7.03,1.19,7.04c4.05-.02,3.86-5.98,4.71-7.04,2.22-2.74,2.24,9.17,6.99,4.68,1.42-1.34,4.5-16.77,10.63-18.79l3.54,18.79,7-7.04c1.19,4.82,1.61,13.15,7.34,7.73,1.14-1.08,8.43-8.33,9.05-8.69,2.15-1.24,8.37,1.67,10.7-3.76,4.09,11.16,5.02,2.29,5.86,1.59,7.21-5.94,3.07,4.43,5.89,5.48,6.36,2.38.92-7.94,5.82-7.05l4.71,7.03c-1.55-12.11,3.49-4.23,7.19-5.88,3.12-1.39,4.94-8.31,8.12-10.56,4.36,22.11,18.04,23.39,20,0,6.65,13.29,12.74,1.42,14.03,2.35,5.46,3.95-.87,13.33,12.98-4.65l3.55,11.71,5.85-7.08,4.71,7.07c5.02-9.82,4.83-6.91,11.75-.03l9.41-11.7c6.08,13.51,4.95-2.96,10.57-7.06,1.46,5.5.1,23.22,0,30.56l.02-.02Z" fill="#0c8c4a"/><path d="M609.37,1507.08c-.26-.01-4.5,2.18-4.7,2.35-4.94,2.64-43.7-3.78-44.94-5.7-1.1-1.7,22.39-25.94,28.48-27.21.74-.13,1.58.04,2.35,0,6.28,9.72,18.57,18.04,18.81,30.56h0Z" fill="#a28141"/><path d="M602.32,1511.78c-.04.83,2.44,3,2.36,4.68-14.49-1.88-51.87,15.2-62.51,13.58-3.16-.48-2.5-5.37-3.34-6.51,6.89-2.89,12.96-15.56,20.1-16.52,10.51-1.4,30.45,8.84,43.38,4.76h.01Z" fill="#b08b46"/><path d="M512.97,1500.02l37.61,4.73c1.22,1.65-13.86,14.44-16.45,16.43-3.28,2.52-6.63,6.29-10.56,7.08-.73,0-2.78-5.33-3.55-7.08-6.82,3.01-13.47-15.02-7.05-18.81-2.11-.78-2.11-1.56,0-2.35Z" fill="#a07f41"/><path d="M520.03,1521.18c1.57,7.77-13.08,8.36-16.57,6-3.29-2.22-5.14-18.19-9.29-22.46,4.61-.39,9.53.48,14.11,0,1.03-4.11,1.68-6.12,4.7-2.35.27,1.99,5.68,15.68,7.05,18.81h0Z" fill="#765e30"/><path d="M1940.11,1231.99c.08,17.21-.05,34.52,0,51.72-66.72,1-131.58-18.15-198.65-16.43-74.64,1.91-129.05,39.74-199.89,44.62-84.7,5.84-176.01-29.95-257.45-10.58-19.17,4.56-38.66,14.1-58.25,19.34-129.55,34.64-235.17,13.18-363.66,7.62-51.58-2.23-108.82,5.06-159.34-2.89-38.45-6.06-54.64-28.94-90.68-36.28-37.45-7.62-80.26-6.82-118.03-3.05-7.48-1.9-7.16-25.66,0-28.21,16.71,3.56,33.84,7.1,50.85,9.1,52.9,6.24,103.49,1.23,154.84,5.03,35.89,2.65,77.81,15.89,115.57,20.8,95.65,12.43,223.52,19.18,319.51,12.18,64.03-4.67,130.11-23.15,197.31-26.05,86.38-3.73,172.31,12.78,257.98-.64,91.27-14.3,189.76-38.21,280.81-48.34,24.56-2.73,44.67-1.18,69.07,2.06h.01Z" fill="#a17f41"/><path d="M1940.11,1283.72c6.46,14.71,6.35,29.93,0,44.67h-2.35c-4.61-1.44-6.21-6.2-4.81-14.28-33.2,3.55-63.47,11.72-93.53,28.23-33.75,7.4-68.43,9.77-104.05,7.09-107.59,9.4-213.85,22.18-318.8,38.34l-96.73,3.67c-121.04,9.04-242.94,16.83-362.92-.3-52.49-1.72-104.77.12-156.84,5.51-60.86-9.12-123.33-16.28-187.43-21.45l-12.69-4.49c-6.42,1.73-7.3-.2-2.35-4.7-8.11-2.93-5.8-23.98-4.33-32.37,12.22-23.81-6.45-7.61-15.28,2.48l-6.26-.67c1.09,1.46,2.47,3.95,1.61,4.73-7.06,6.46-56.25,44.61-60.1,42.37-1.01-.59-1.85-1.47-2.63-2.44-8.26-9.67-10.89-29.51-2.35-39.97l1.2-2.97c80.41,1.09,52.86-52.9-10.12-32.42l-5.19-2.23c-7.12-.82-6.8-15.05,0-16.46,1.28-1.32,2.6-2.56,4.1-3.54,16.9-11.06,110.56-1.99,134,7.73,40.59,23.14,78.22,38.35,127.81,34.27,84.34-2.28,168.7.73,253.08,9.02,71.96,4.41,144.87,1.28,214.68-18.3,46.78-19.18,94.05-29.41,145.12-22.81l121.8,14.4c60.59,3.66,109.74-9.42,166.13-29.82,79.48-21.51,144.9-13.81,225.94-.76,18.92-.06,36.68,2.43,53.29,7.47h0Z" fill="#765e30"/><path d="M3217.06,1228.82c6.46,14.71,6.35,29.93,0,44.67h-2.35c-4.61-1.44-6.21-6.2-4.81-14.28-33.2,3.55-63.47,11.72-93.53,28.23-33.75,7.4-68.43,9.77-104.05,7.09-107.59,9.4-213.85,22.18-318.8,38.34l-96.73,3.67c-121.04,9.04-242.94,16.83-362.92-.3-52.49-1.72-104.77.12-156.84,5.51-60.86-9.12-123.33-16.28-187.43-21.45l-12.69-4.49c-6.42,1.73-7.3-.2-2.35-4.7-8.11-2.93-5.8-23.98-4.33-32.37,12.22-23.81-6.45-7.61-15.28,2.48l-6.26-.67c1.09,1.46,2.47,3.95,1.61,4.73-7.06,6.46-56.25,44.61-60.1,42.37-1.01-.59-1.85-1.47-2.63-2.44-8.26-9.67-10.89-29.51-2.35-39.97l1.2-2.97c80.41,1.09,52.86-52.9-10.12-32.42l-5.19-2.23c-7.12-.82-6.8-15.05,0-16.46,1.28-1.32,2.6-2.56,4.1-3.54,16.9-11.06,110.56-1.99,134,7.73,40.59,23.14,78.22,38.35,127.81,34.27,84.34-2.28,168.7.73,253.08,9.02,71.96,4.41,144.87,1.28,214.68-18.3,46.78-19.18,94.05-29.41,145.12-22.81l121.8,14.4c60.59,3.66,109.74-9.42,166.13-29.82,79.48-21.51,144.9-13.81,225.94-.76,18.92-.06,36.68,2.43,53.29,7.47h0Z" fill="#765e30"/><path d="M508.27,1340.14c-2.1-.43-2.02-1.23,0-2.35-3.93-2.85-5.84-8.35-5.72-16.49-4.64-1.69-7.44-4.03-8.39-7.02v-11.76c15.95-12.17,63.52-9.87,69.6,11.71,6.97,24.75-40.16,28.79-55.49,25.91h0Z" fill="#93753c"/><path d="M1133.65,1349.53c12.82,36.56-22.32,22.73-43.37,25.98-6.13.95-16.56,12.4-15.59-5.99.68-13,11.26-6.63,20.15-8.25,5.71-1.05,8.32-7.49,14.63-8.88,7.89-1.75,16.6,1.51,24.18-2.85h0Z" fill="#93743c"/><path d="M571.75,1335.44c8.58-6.91,15.83-20.98,30.55-18.8,2.19,8-3.84,12.9-4.81,19.85-1.08,7.76-.13,21.05.12,29.51-8.18-.23-13.57,3.1-11.78-7.07l-7.03,4.72c-.13-.51-1.92-1.41-2.35-2.35-4.14-1.77-3.36-5.69,2.35-11.76,1.36-8.5,2.2-8.45-7.05-14.11h0Z" fill="#6d2b05"/><path d="M1377.64,1340.58c24.1-2.73,34.42,19.18,11,22.93-29.04,4.65-37.69-19.91-11-22.93Z" fill="#93753c"/><path d="M1730.18,1288.93c33.6-7.57,32.87,28.61-2.33,20.11-14.28-3.45-10.05-17.32,2.33-20.11Z" fill="#93753c"/><path d="M1157.18,684.18c5.62,11.2,16.42,32.88,29.95,34.86,6.45.94,11.69-5.45,18.39-6.51,16.75-2.64,31.89,4.14,44.53-14.21,14.54,14.16,14.74,37.75,10.58,56.39.61,5.79-6.95,11.34-11.76,7.05-1.29,4.09-5.05,5.75-11.3,4.98-1.33,15.09-15.23,20.43-27.25,11.87-8.26,3.15-15.59,3.94-24.12,4.37-16.72-2.78-37.84-6.18-52.53,4.65-3.11.31-5.47-2.04-7.05-7.05-7.66-.71-14.88.91-21.67,4.87-17.85,6.23-54.01-.74-41.81-26.03l2.37-42.31c8.26,6.19,1.96,18.13,3.49,25.84,6.72-3.54,1.92-21.92,3.55-23.48,1.06-1.01,19.76-3.12,28.2-7.07,24.13,7.25,29.79,5.56,16.99-5.1.27-2.46,1.69-3.87,4.17-4.31,8.03,1.89,3.82-7.51,4.71-14.09h4.69v35.25c5.51.32,4.16.78,4.73-3.5,1.63-12.28-5.12-27.92-2.35-41.16l2.71,4.36c1.23.38,1.83-2.05,1.97-2.02,5.28-9.52,11.55-8.74,18.81,2.35h0Z" fill="#056c59"/><path d="M1063.14,759.42c-1.77,6.4,6.89,3.56,7.08,5.88l-7.07,7.02c12.57,8.98,19.8,12.92,35.88,10.05,8.56-1.53,21.12-13.1,27.59-1.79,7.69,7.75.61,20.65-10.65,12.26-3.27,6.5-8.56,8.54-14.07,3.37-3.23,7.88-8.74,7.8-16.53-.24-6.4,3.31-14.45,1.94-20.89-.77-4.61,6.1-7.94,9.93-15.8,5.12-12.47,9.91-26.12-1.22-28.13-15.29l-8.27,4.3c-.57,17.3-7.21,16.15-21.63,12.3l-6.8,3.13c-6.66-3.23-13.85-3.51-21.57-.84-16.08-5.04-29.69-3.8-40.84,3.74-9.4-2.33-18.28-1.89-26.64,1.33-9.25-5.17-18.14-7.11-28.04-3.16l-4.06-1.31c-6.49,8.14-13.07,1.98-17.51-4.44-8.48,12.37-11.17,2.09-12.45-7.74-4.58-2.97-4.59-6.44,0-9.4,8.16-2.25,16.45-4.65,24.87-7.22,6.39,6.22,14.02,8.45,22.89,6.68-8.86-14.8-1.61-15.79,12.13-14.62l8.29-1.3c.67-.06,1.78-.17,2.35,0,1.29.38,5.26,4.85,9.3,5.94,19.94,5.38,18.85-6.8,25.09-8.16,3.53-.77,5.93,5.35,9.59,6.49,11.04,3.44,16.64-5.04,25.51-6.48,16.65-2.7,27.98,4.85,39.96,4.7,7.3-.1,8.22-6.03,14.01-7.16,7.15-1.39,23.49-.39,31.71-.04.31.01.56,2.58,1.88,1.98l2.83-4.33h0Z" fill="#003d2b"/><path d="M837.43,839.35c.84-2.12,2.18-3.75,4.13-4.8,94.05,15.81,192.49,13.99,288.93,12.11,34.13,6.31,68.82,10.15,104.08,11.51l7.24,4.7c-6.73,16.91-19.91,30.22-26.91,47.15-12.8,7.5-28.04,2.49-41.43,5.59-5.97,1.38-17.58,9.37-23.35,13.09-10.25,9.7-10.74-9.41-9.21-17.31.07-.36,1.6,6.56,1.5,6.92-.48,1.8-8.84,12.88-12.29,14.39-29.17.11-58.31,6.13-86.95,12.62,9.18,2.37,13.48,6.24,12.9,11.59-.56.06-2.68,2.4-5.78,2.53-18.41.77-20.03-15-37.35-14.1-11.24.58-67.14,12.86-76.82,17.42-3.69,1.74-9.84,6.02-11.85,9.36-3,4.97-1.3,8.15-2.22,10.66,4.58,4.28.43,13.83-4.7,16.46l-1.26,13.18c2.77,7.16,8.59,23.01-1.09,26.79-4.8,1.66-10.85.95-18.17-2.11-5.09,8.96-10.79,13.59-17.1,13.87.98,9.99-8.17,12.95-17.24,13.96-8.19-1.66-15.76-.83-22.73,2.5-3.63,6.4-7.19,11.53-2.35,18.81-.56,1.96-1.35,1.91-2.35,0-25.23,6.58-51.59,8.88-79.1,6.91-66.24-1.35-131.66-.27-196.26,3.25-9.79,1.69-17.53-.13-23.23-5.46l-9.4-23.49c2.78-2.81,26.03,19.58,29.42,21.12,1.02.46,3.86.6,3.48-1.15l-16.45-17.62c9.8-.22,18.72,10.98,28.2,8.22l-39.96-27.03,49.37,16.41-14.1-14.06h14.09c-8.56-.3-14.71-6.16-21.14-9.43,1.24-4.86,5.38-8.98,12.41-12.39-17.23-4.03-34.69-6.96-52.38-8.77-37.72-22.53-73.36-48.52-108.15-75.24-.36-1.81-.64-4.62.57-5.12,6.58-2.72,57.41-19.76,60.58-19.47,1.94.17,3.43,1.87,4.68,3.43,6.28-.43,7.4,3.22,2.35,7.05,6.69,6.86,8.26,6.08,4.7-2.35-5.34-4.23,2.75-9.93,7.05-9.4,4.77-6.88,15.8-12.23,23.51-9.4-4.81-6.91-4.03-10.05,2.35-9.4,4.84-3.04,36.76-1.61,40.41.13,12.89,6.18-7.02,17.73-14.57,21.58-1.71,1.1-5.31,4.17-3.91,5.08,9.32,6.04,62.14,11.33,75.96,9.53l5.56,3.64c5.7-.57,5.82,2.57,3.27,7.44,4.71,6,7.26,17.41-.92,20.77l-2.29,4.79c-34.36,6.1-35.03,8.29-2.01,6.58l1.94,5.08c3.21-3.78,4.73-2.27,2.35,2.35,6.76-.23,11.14,15.83,7.05,21.16,1.95,5.16,5.39,7.4,10.32,6.74,27.8-3.21,55.6-4.85,83.41-4.93-11.4-6.31-16-12.4-13.79-18.27,1.54-5.31,7.03-6.09,16.46-2.35,17.62-6.27,46.93-10.65,64.11-4.04,4.81,1.85-6.69,7.65.75.79,6.63-6.12,29.84-8.59,37.79-4.47l30.02-1.26c20.46,3.12,31.39-4.67,5.88-16.37l.17-2.86c-4.55-7.47-5.31-17.18-2.28-29.14-1.02-14.35-2.32-28.22-3.9-41.61-6.9,2.12-11.9,1.4-14.99-2.13-5.47-.62-9.39-2.18-11.76-4.7h-2.35c-3.46-6.24-3.73-45.76-.57-49.45.93-2.36,3.47-1.55,7.62,2.43h.05Z" fill="#b08b46"/><path d="M1735.56,1029.8c10.29-8.36,23.26-6.66,35.84-10.01,5.45-1.45,7.96-5.86,14.65-6.62,5.34-.6,19.15,1.7,23.25,4.71,2.56,1.88,1.04,3.88,1.49,4.86l1.07,11.14c-8.81,12.1-13.22,18.15-13.22,18.15-6.5-5.69-35.04-1.57-42.9,1.79-1.32.57-4.26,9.85-3.78,10.1,5.95,3.08,56.8-.03,62.52-11.33l5.71.71c.02.74.12,1.63,0,2.35,3.4,5.77.79,11.18-7.81,16.24-7.11,17.47-22.89,23.6-47.36,18.39-7.59,7.05-11.89,4.36-15.85-3.75-9.1-1.36-15.99-7.74-20.67-19.14-6.33-.75-5.67-2.06,0-4.7,2.25-8.52,5.4-10.11,11.33-3.1,4.94-8.02,3.77-13.92-3.51-17.71l-.77-9.75c-2.09-.44-2.01-1.23,0-2.35v.02Z" fill="#9c989b"/><path d="M1822.55,1055.66c10.67,11.35-19.1,44.54-27.54,46.52-3.8.89-35.05,5.59-36.81,5-2.83-.95-2.98-5.31-4.44-6.21-2.36-1.44-6.44-.34-9.01-1.73-2.41-1.31.48-5.8.22-5.94-.72-.4-11.27,3.26-16.11-.34-.66-.49-2.71-13.96-2.71-16.13,0-4.36,2-6.8,2.35-9.4,11.19.22,8.64,8.71,12.68,11.98,2.86,2.31,7.71,1.55,10.7,3.43,2.18,1.38,5.26,9.48,7.15,8.08.2-.15-.71-4.09,1.56-4.7,7.05-1.92,21.58,1.09,30.25.06,14.89-1.77,10.93-8.43,17.92-17.35,4.42-5.64,10.02-4.6,11.43-13.25h2.35v-.02Z" fill="#797377"/><path d="M1820.2,1053.31c-17.87,21.33-47.67,12.69-72.9,16.46-1.09-7.71,1.96-14.04,5.09-20.77,13.33,1.16,25.6-6.12,38.59-5.3,4.29.27,6.37-.55,5.74,4.89h2.3c-2.84-12.56,12.57-14.09,11.78-25.84,3.49,7.51,9.14,22.58,9.4,30.56h0Z" fill="#827980"/><path d="M1735.56,1032.15c.67,6.52,10.64,11.14,11.29,12.2,3.33,5.43-3.63,16.99-4.27,23.07-8.29-.34-9.12-15.96-14.07-4.7,1.74-9.81,7.03-21.52,7.05-30.56h0Z" fill="#6d696a"/><path d="M1491.04,1229.64c1.82,3.08,5.88,6.69-1.15,7.04-124.11,6.19-247.37,26.29-371.53,32.91-47.5,2.53-76.23.65-122.51-4.4-101.87-11.11-209.71,1.15-312.12-12.33-63.19-8.32-125.65-41.3-189.57-51.42-.08-4.7.1-9.41,0-14.11,24.29-1.3,39.36,13.8,58.82,22.29,90.51,39.49,212.36,34.69,309.03,38.93,60.53,2.66,120.61,11.96,181.04,14.11,76.74,2.73,164.68-14.93,242.29-21.23,68.34-5.55,137.3-7.16,205.7-11.78h0Z" fill="#59461e"/><path d="M2606.22,1167.32c1.82,3.08,5.88,6.69-1.15,7.04-124.11,6.19-247.37,26.29-371.53,32.91-47.5,2.53-76.23.65-122.51-4.4-101.87-11.11-209.71,1.15-312.12-12.33-63.19-8.32-125.65-41.3-189.57-51.42-.08-4.7.1-9.41,0-14.11,24.29-1.3,39.36,13.8,58.82,22.29,90.51,39.49,212.36,34.69,309.03,38.93,60.53,2.66,120.61,11.96,181.04,14.11,76.74,2.73,164.68-14.93,242.29-21.23,68.34-5.55,137.3-7.16,205.7-11.78h0Z" fill="#59461e"/><path d="M463.6,1086.22c5.01,4.75,10.78,8.75,15.29,14.1l1.19-18.8,19.97,16.45-5.87-18.8,19.97,21.15,3.52-11.74c11.17,10.26,8.62.07,10.78-.14,1.98-.19,5.39,2.26,8.03,2.49,29,2.57,60.76-1.99,90.42-2.45,69.49-1.08,139.13,1.77,208.17-2.25,7.58,10.95,16.58,21.68,28.72,29.17l-.51,3.75c-103.17-3-206.02-7.22-309.27-9.31-8.61-.17-16-3.59-25.82-2.5-12.19,1.35-22.86,13.23-36.28,11.9-.4,5.43.04,10.93-.1,16.37-7.15-.71-20.44-6.32-26.83-4.91-2.48.55-.65,6.25-3.74,7.26-7.07-5.44-6.1-24.33-4.96-33.63.76-6.21,2.01-15.77,7.31-18.1h0Z" fill="#765e30"/><path d="M89.29,1092.85c5.01,4.75,10.78,8.75,15.29,14.1l1.19-18.8,19.97,16.45-5.87-18.8,19.97,21.15,3.52-11.74c11.17,10.26,8.62.07,10.78-.14,1.98-.19,5.39,2.26,8.03,2.49,29,2.57,60.76-1.99,90.42-2.45,69.49-1.08,139.13,1.77,208.17-2.25,7.58,10.95,16.58,21.68,28.72,29.17l-.51,3.75c-103.17-3-206.02-7.22-309.27-9.31-8.61-.17-16-3.59-25.82-2.5-12.19,1.35-22.86,13.23-36.28,11.9-.4,5.43.04,10.93-.1,16.37-7.15-.71-20.44-6.32-26.83-4.91-2.48.55-.65,6.25-3.74,7.26-7.07-5.44-6.1-24.33-4.96-33.63.76-6.21,2.01-15.77,7.31-18.1h0Z" fill="#765e30"/><path d="M839.78,1067.41l5.1-1.18c14.33,21,22.46,32.82,48.87,24.48,6.28.71,13.25-.47,20.9-3.55,21.12,12.73,30.69,11.38,28.71-4.04l4.58-3.96c2.16,4.94,4.09,15.72,4.7,21.16s-.45,11.1.02,16.46c2.6-.84,5.65-4.8,7.03-7.05,5.92,2.04,16.49,9.79,16.46,16.46-.74.19-1.63-.2-2.35,0-7.82,2.17-2.14,2.31-7.02,4.68,2.56-4.29-9.81-7.21-11.79-7.03-7.33,9.54-28.73,14.1-37.62,7.05l-3.1-2.79c-8.11,1.4-14.61-3.03-12.26-11.69-4.11,5-12.59,7.75-11.69.31-7.96-5.36-16.96-6.91-27.01-4.64-9.14-.47-23.39-15.56-25.86-25.86-11.51-.33-7.99-20.04,2.35-18.81h-.02Z" fill="#7f787d"/><path d="M980.85,1123.84c-1.01.29-2.53,1.81-4.7,2.35-6.47-4.14-15.25-7.53-16.46-16.46,1.11-1.8-1.79-9.02,9.37-3.48,6.12,3.04,7.58,12.71,11.79,17.59h0Z" fill="#9e9a9e"/><path d="M863.29,1112.09c4.27-2.65,9.02-.39,4.69-7.04,8.79,5.49,15.69-6.59,18.82,2.31l-7.04,2.35c6.2-1.94,10.53,6.28,13.23,6.93,4.06.98,6.74-8.35,13.76-6.9,6.91,1.43-1.13,7.64-1.23,10.54-.01.37,4.88,5.23,5.24,5.34,3.19.96,13.84-7.14,6.62,5.28-2.07,6.29-11.43,2.46-16.46,0-.24.01-1.72-2.62-3.29-2.19-2.99.82-4.16,11.15-8.44,6.89-.31-.31-.18-5.33-2.27-8.41-3.9-5.76-13.27,3.6-7.16-5.69l-.11-2.69c-9.27.2-14.72-2.04-16.34-6.72h-.02Z" fill="#588e3b"/><path d="M863.29,1112.09c7.57,3.85,17.51,4.16,25.87,4.71,1.68,6.93-4.65,4.78-9.41,4.69-6.01-.11-11.03-2.19-16.46-2.35-9.96-11.26-30.26-14.38-28.21-32.92.75-.04,1.82-.17,2.35,0,8.6,2.74,17.24,21.48,25.86,25.86h0Z" fill="#4f4122"/><path d="M900.91,1130.89c6.09-.32,10.96.19,16.46,0,10.44-.37,18.86-1.01,29.21-2.58,3.85-.59,7.23-4.36,8.41-4.47-2.9,15.33-47.37,19.88-54.08,7.05h0Z" fill="#705a2f"/><path d="M879.75,1053.31c6.91,10.39,17.98,10,29.16,8.59,6.47,3.69,12.68,4.12,18.63,1.29l1.58,1.87c9.39-1.97,15.46,6.45,18.81,14.11.03,8.35,2.19,15.41-5.64,20.3-2.25,1.41-5.9.67-6.12.88-.79.75,3.66,13.04,4.12,15.86.41,2.48,2.47,8.18-1.75,7.62-1-4.99-3.49-22.5-6.99-24.76-1.94-1.26-8.75-1.74-9.44-1.06-1.18,1.17,2.21,7.79-2.38,7.02,3.52-18.61-13.29-15.95-20.02-2.35-.19-13.13-12.13-4.51-21.02-4.62-2.77-.04-13.75-1.97-16.06-2.94-2.57-1.08-19.14-23.31-22.86-27.7.96-1.7-.5-5.34,3.81-6.72,14.62-4.67,19.64,6.62,36.16-9.74,2.05.67,2.02,1.45,0,2.35h.01Z" fill="#9d999c"/><path d="M915.02,1039.2c5.61,3.33,15.7,9.53,14.11,16.46-3.58-.35-1.95,4.31-2.35,4.7.6,1.31,1,2.38.73,2.59-3.64,2.86-37.34-.84-42.3-3.93-2.3-1.43-4.07-3.43-5.46-5.72v-2.35c14.49-14.34,9.53-27.06,35.27-11.76h0Z" fill="#a29ea1"/><path d="M926.77,1060.36l2.35,4.7c-16.54,3.47-8.39.03-20.38-1.62-8.14-1.12-26.23,4.77-28.99-10.14,4.48,2.63,13.21,8.28,17.94,8.71,3.51.32,7.29-2.25,11.28-1.7,5.7.79,8.96,8.62,17.81.04h-.01Z" fill="#676265"/><path d="M532.02,834.23c.13-.08.27-.17.41-.28,2.55-1.84.36-6.3.88-3.2h0c2.98-2.4,6.05-3.23,9.38-4.71,6.89,2.05,9.6,20.03,2.35,23.51,3.06,3.07,1.58,4.39-2.35,2.35-1.36,29.37.67-13.45,3.19,15.65,7.48,1.91,7.16,25.65,0,28.21-1.32,6.95-18.31,6.24-21.16,0l-2.68-3.41c-18.02,12.21-16.1-6.2-4.38-17.75,8.36-14.05-31.2-1.35-32.93,1.65-.65,4.75-2.21,8.9-4.68,12.46-11.85,8.18-37.79,5.91-49.37-2.35l-4.1-4.24c2.33-24.12-5.85-18.25-5.59.85l-4.42,3.39c-3.6,6.85-16.47,4.65-18.81-2.35l-1.88-5.8c16.68-11.7,23.04-21.46,19.09-29.3l1.6-4.88c36.89.2,73.88-2.71,110.38-7.17.37-8.55,0-17.19.13-25.75,5.38-17.52,3.5,41.35,4.94,23.09v.02Z" fill="#af8748"/><path d="M416.58,844.06c18.61,15.67-11.43,25.58-18.81,39.97-8.78,6.89-32.11,8.09-39.97,0-3.7,5.29-10.75,4.51-21.16-2.35-3.09-3.12-6.29-6.27-9.4-9.4,11.68.96,44.26-2.22,53.06-9.24,12.86-10.26-7.41-12.15-14.34-14.23-2.5-.75-7.53-.85-3.45-4.72,6.46-6.14,44.26-.08,54.08-.02h0Z" fill="#b9985a"/><path d="M357.8,884.03l5.2,2.22c7.57,27.98,53.06,28.96,62.45,1.9l5.23-1.77c16.45.96,32.83,3.07,49.37,2.35,1.74,3.39,1.92,34.63.79,36.11-.63.82-1.8,1.22-3.14,1.51l-65.83,21.16c-15.02-11.54-29.91-23.41-44.67-35.27-5.51-4.42-4.07-8.39-14.11-11.76-5.27-6.2-10.76-13.05-16.46-18.81,7.24-2.28,16.32,1.99,21.16,2.35h0Z" fill="#765e30"/><path d="M560,1043.9c-13.6-6.9-26.84-13.32-39.97-21.16,2.37-3.76,9.07-2.71,12.88-2.36,20.46,1.89,72.21,4.98,27.09,23.52h0Z" fill="#775f30"/><path d="M167.36,1464.75c13.7-6.6,28.59-5.81,44.67,2.35,3.37,2.43,8.02,4.21,11.76,7.05,6.49-4.3,14.78,4.7,14.11,11.76.05,1.49,2.01,5.85,2.35,9.4-12.67,3.28-33.74,13.51-46.06,13.89-15.01.45-38.8-10.76-52.69-11.53.18-5.47-.26-11,0-16.46,7.82-3.32,18.09-15.17,25.86-16.46h0Z" fill="#846836"/><path d="M418.93,1453c12.46.46,24.36,9.27,28.21,21.16,9.67,7.6,18.99,15.37,28.21,23.51l-76.94,25.34c-19.3-2.21-38.12-7.46-57.07-11.23-20.96-4.18-42.42-7.97-63.12-13.29-3.84-.99-8.33-.86-9.77-5.52-.34-7.69,13.81-20.08,21.16-16.46,5.15-12.78,21.59-25.25,35.27-25.86,3.47,1.48,6.78,4.2,9.95,8.14,24.48,1.87,49.35-.75,74.63-7.85l9.47,2.06h0Z" fill="#94763c"/><path d="M872.7,757.06c.45.37.07,7.1,6.35,8.93,6.38,1.87,15.08-.26,21.87.47-.31.03-2.64,2.13-5.68,2.45-8.04.86-16.82-3.87-12.85,7.9,1.06,3.13,4.43,2.8,5.2,3.55,7.38,7.23-16.48,8.65-23.81,5.64-3.15-1.29-1.93-5.94-6.3-5.69-7.5.43-14.96,10.02-24.74,2.6-8.06-.84-7.13-21.94,2.35-18.81,3.31,1.73,5.1,5.52,9.4,4.68l-4.69-9.37,14.09,2.32-4.69-9.37c3.98,1.88,22.03,3.49,23.5,4.69h0Z" fill="#066b58"/><path d="M835.08,961.61c4.85-4.76,21.18-2.46,23.51,4.7-2.02,5.51-6.66,9.37-13.9,11.58l20.32-2.34c-4.29-2.33-5.65-5.41-4.07-9.24-.25-3.17,2.38-2.79,4.7-2.35,2.51,1.47,26.06,16.29,23.51,18.78-8.89-.65-19.6,6.51-27.3,7.16-4.35.36-1.81-4.31-6.61-4.96-7.04-.95-36.71,1.48-44.7,2.68-16.61,2.5-38.47,19.12-56.54,21.05l3.36-3.66,33.03-15.17c-21.08.64-42.43,1.16-63.47,2.33-20.05,1.21-12.38-15.13,2.35-11.76,8.58-5.88,46.14-32.19,52.98-32.88,10.14-1.02,41.58,10.74,52.82,14.07h.01Z" fill="#93743b"/><path d="M630.53,1010.99l3.34-3.84c-7.27-12.72-6.82-20.37,8.12-26.53,10.16-4.18,46.54.44,42.62,16.26,3.31-.75,8.31.68,11.76,0-.84-3.46,2.22-4.52,9.21-3.19.76-5.16,2.55-3.82,4.9.84,2.23,7.63,33.58,19.19,14.69,22.88-11.96,2.34-26.82-.15-39.35.66-20.03,1.29-40.06,6.19-59.97,2.32-1.02-.83,4.25-9.12,4.7-9.39h-.02Z" fill="#97773c"/><path d="M491.81,921.64c1.15-2.11,5.28-11.7,3.54-14.1l-12.92,16.45,2.35-42.32,30.54,30.56c-1.76,4.53-18.33,7.61-23.51,9.4h0Z" fill="#785d2e"/><path d="M623.48,971.02c-.28,5.55-2.81,10.79-2.35,16.46-9.53-2.12-25.75,1.38-36.48,0-4.27-.55-3.8.8-3.5-4.7,9.17,3.03,8.86-4.5,13.87-6.05,7.76-2.4,20.15-4.7,28.47-5.71h-.01Z" fill="#806534"/><path d="M484.76,931.05l11.75,4.72c-.54,4.25-11.54,8.73-14.02,6.98-.78-3.11-1.56-6.25-2.44-9.35,1.29-.95,3.72-1.4,4.7-2.35h0Z" fill="#765e30"/><path d="M397.77,884.03c6.48.33,12.33,2.03,18.81,2.35,2.5-6.66,11.78-6.93,14.11,0-6.2,34.81-67.5,35.46-72.89-2.35,13,.96,26.85-.67,39.97,0Z" fill="#87724a"/><path d="M430.68,886.38c-4.67-.27-9.43.23-14.11,0-3.6-30.91,20.6-36.43,14.11,0Z" fill="#b9985a"/><path d="M1133.67,787.63c-.37,3.29,1.93,1.6,6.9-5.08,7,8.84,21.59,2.49,29.27-1.71,4.61-.66,17.71-.39,19.31,3.93,4.48-5.24,11.19-6.66,13.29.86,4.91-2.6,9.4-2.56,11.84,2.66,12.31-6.7,19.45-5.87,21.43,2.49,4.23-3.85,7.06-1.77,8.47,6.24,3.01-3.25,2.97-1.94,2.35,2.35,4.34,2.13,10.79,9.03,14.11,14.11-8.39,8.52-13.99,37.26-18.81,49.37-17.94,0-37.33.2-55.06-2.54-28.43-4.41-41.47-9.77-73.17-9.31-68.01.99-133.74,3.93-202.09-2.27-22.14-2.01-53.4-10.51-74.07-9.39-4.53-2.24-4.48-3.28-4.86-8.01-.98-11.93.12-26.68.16-39.02l4.73,9.39c4.2.38,2.52-8.27,8.16-7.02,5.58,1.24,12.1,22.37,15.35-2.36,8.34,8.66,3.33,15.53,14.04,2.35l3.58,7.05c2.49-8.96,2.29-2.1,5.83-1.49,2.55.44,4.58-.93,6.45-.24.85.31-.43,5.34,6.49,4.21,5.85-.95,6.19-10.98,10.57-7.16.47.41,1.34,7.05,3.57,6.99.66-.02,2.62-3.85,4.71-3.85s4.08,3.86,4.71,3.86c2.67-.02,1.37-10.77,10.56-4.64l3.53-11.77c4.23,4.99,4.33,16.97,9.41,4.7,4.94,2.91,1.17,12.24,9.43,2.35,1.69,6.65,19.85,6.13,21.15-2.31,9.11,14.74,6.23,5.74,14.26,4.6,4.23-.6,15.95,4.06,17.48,2.43.4-.43-.66-7.98,1.16-11.79,2.09-4.37,10.55-6.07,14.15-9.33,4.49.24,1.63,18.07,14.62,20.7,9.35,1.89,8.48-1.77,11.22-8.99l7.06,9.35,9.42-11.7,5.82,7.04c4.32-14.7,5.95-.83,7.16,0,.92.64,9.27-10.52,17.58,4.66l5.91-11.7c7.35,9.08,9,11.34,11.75-2.35l11.7,7.04c.96-.76,1.6-9.64,2.38-11.75.47-1.26,2.87-2.56,2.38-4.68h2.3c-1.75,5.03,1.53,8.48,2.37,11.74h-.06Z" fill="#0c8c4a"/><path d="M2458.19,788.8c-.37,3.29,1.93,1.6,6.9-5.08,7,8.84,21.59,2.49,29.27-1.71,4.61-.66,17.71-.39,19.31,3.93,4.48-5.24,11.19-6.66,13.29.86,4.91-2.6,9.4-2.56,11.84,2.66,12.31-6.7,19.45-5.87,21.43,2.49,4.23-3.85,7.06-1.77,8.47,6.24,3.01-3.25,2.97-1.94,2.35,2.35,4.34,2.13,10.79,9.03,14.11,14.11-8.39,8.52-13.99,37.26-18.81,49.37-17.94,0-37.33.2-55.06-2.54-28.43-4.41-41.47-9.77-73.17-9.31-68.01.99-133.74,3.93-202.09-2.27-22.14-2.01-53.4-10.51-74.07-9.39-4.53-2.24-4.48-3.28-4.86-8.01-.98-11.93.12-26.68.16-39.02l4.73,9.39c4.2.38,2.52-8.27,8.16-7.02,5.58,1.24,12.1,22.37,15.35-2.36,8.34,8.66,3.33,15.53,14.04,2.35l3.58,7.05c2.49-8.96,2.29-2.1,5.83-1.49,2.55.44,4.58-.93,6.45-.24.85.31-.43,5.34,6.49,4.21,5.85-.95,6.19-10.98,10.57-7.16.47.41,1.34,7.05,3.57,6.99.66-.02,2.62-3.85,4.71-3.85s4.08,3.86,4.71,3.86c2.67-.02,1.37-10.77,10.56-4.64l3.53-11.77c4.23,4.99,4.33,16.97,9.41,4.7,4.94,2.91,1.17,12.24,9.43,2.35,1.69,6.65,19.85,6.13,21.15-2.31,9.11,14.74,6.23,5.74,14.26,4.6,4.23-.6,15.95,4.06,17.48,2.43.4-.43-.66-7.98,1.16-11.79,2.09-4.37,10.55-6.07,14.15-9.33,4.49.24,1.63,18.07,14.62,20.7,9.35,1.89,8.48-1.77,11.22-8.99l7.06,9.35,9.42-11.7,5.82,7.04c4.32-14.7,5.95-.83,7.16,0,.92.64,9.27-10.52,17.58,4.66l5.91-11.7c7.35,9.08,9,11.34,11.75-2.35l11.7,7.04c.96-.76,1.6-9.64,2.38-11.75.47-1.26,2.87-2.56,2.38-4.68h2.3c-1.75,5.03,1.53,8.48,2.37,11.74h-.06Z" fill="#0c8c4a"/><path d="M1248.88,761.77c-2.23,2.81-1.67,6.27-2.35,9.4,3.41,7.05,4.95,19.32-2.35,25.86-6.23-8.5-1.74-1.42-11.73,0-4.62-20.51-7.38-3.76-10.62-2.35-2.24.98-.09-5.69-2.33-4.69s-4.61,12.6-8.27,5.44c-.69-1.35-.77-7.85-3.5-7.75-2.41.09-6.21,20.03-10.61-4.73l-8.2,9.34-7.06-9.35-3.55,9.39-4.68-7.05c-4.28-4.1-10.56,16.35-11.86,2.45-5.48,4.15-20.85,7.86-21.1-2.45l-4.66,5.83c-3.32,3.95-1.98-2.04-2.35-3.48-.89-5.84,11.45-10.99,15.4-11.64,15.2-2.52,30.37,3.21,44.62,2.36,6.7-.4,13.32-4.3,16.81-4.34,3.91-.05,5.8,5.13,13.08,3.88,11.26-1.92,7.48-12.52,11.02-15.1s10.53-.14,14.27-1.02h.02Z" fill="#023e2c"/><path d="M1197.15,827.57c-15.65,6.69-55.37,10.4-69.13.24-8.6-6.35,9.6-11.23,14.08-11.77s65.46-2.27,55.04,11.53h.01Z" fill="#c59e50"/><path d="M1232.19,832.08c-4.53,6.75-23.91.96-15.18-11.66,5.71-8.26,20.2,4.19,15.18,11.66Z" fill="#c19e50"/><path d="M517.68,874.62c-4.43,4.71-10.88,8.51-11.8,16.44-3.67,2.54-13.21-10.62-16.4-12.93l27.07-8.17c1.78-.39,1.43,2.87,1.13,4.66Z" fill="#af8843"/><path d="M-131.24,818.19c5.26-.42,10.33-1.64,15.22-3.65,15.18,1.05,29.2.88,40.99-8.4,7.5,9.07,18.03,18.77,25.67,4.97,5.32,3.1,10.41,2.57,15.27-1.59,6.65,5.93,13.13,4.83,19.46-3.31,4.99,3.52,9.57,4.32,13.73,2.38l4.96,3.63c9.8-4.05,19.6-7.25,29.42-9.59,4.96-13.03,13.92-8.59,16.8,2.99,8.81-3.17,18.53-1.93,29.16,3.72,1.9-7.33,7.42-8.38,16.56-3.14,14.25-4.83,20.25-6.36,32.01,5.95,2.68-2.53,5.95-2.64,9.25-1.19,8.1-7.52,18.07-13.08,17.86,2.82,4.83-.98,8.12.48,9.88,4.41,8.58,10.18,12.17,34.04,9.4,47.02-2.18,10.18-10.66,16.73-21.16,16.46-5.44,5.73-59.56,8.62-62.23,6.93-1.68-1.07-2.72-2.84-3.6-4.58-3.09.77-4.66-2.37-4.7-9.4-4.56.65-9.68.6-15.35-.16-14.12,5.42-28.99,7.82-43.43,9.56-.76,1.44-1.55,1.44-2.35,0l-4.83,2.78c-11.32-7.22-23.56-8.16-36.72-2.82-12.63-8.69-26.82-10.29-42.57-4.79l-2.87-4.57c-1.36,2.01-3.07,3.89-5.48,4.56-3.34.93-46-5.21-52.91-6.73l-5.09-4.88c-.67,2.05-1.45,2.02-2.35,0v-49.37h0Z" fill="#0c8c4a"/><path d="M42.74,860.5c-24.01,4.34-53.56,10.11-75.18-3.51-.05-5.78,37.24-8.5,43.55-8.33,2.79.08,39.14,3.97,31.63,11.84Z" fill="#c39e50"/><path d="M133.83,839.92c18.09-2.92,46.45,8.88,20.44,18.06-25.15,8.88-53.78-12.67-20.44-18.06Z" fill="#c49e50"/><path d="M67.96,846.94c25.18-5.61,27.91,19.94,6.47,20.78-18.14.72-21.33-17.47-6.47-20.78Z" fill="#c39e50"/><polygon points="418.07 1048.16 417.11 1378.39 448.27 1376.89 448.27 1052.37 418.07 1048.16" fill="#b07e4d"/><rect x="1672.4" y="852.54" width="212.15" height="127.67" fill="#b08b46"/><ellipse cx="1813.87" cy="843.67" rx="35.39" ry="16.7" fill="#0c8c4a"/><rect x="604.29" y="825.04" width="283.53" height="189.3" fill="#b08b46"/><polygon points="1558.73 1229.34 1409.64 1234.64 1409.64 1162.41 1555.59 1162.41 1558.73 1229.34" fill="#b08b46"/><polygon points="1669.14 1109.63 1580.51 1135.79 1521.8 1143.32 1485.24 1142.26 1485.24 1051.63 1684.03 988.15 1695.79 985.8 1721.19 1012.56 1725.09 1023.55 1700.19 1051.92 1669.14 1109.63" fill="#4f3f21"/><path d="M150.47,883.92c7.16,1.62,186.17-2.24,186.17-2.24,0,0,94.36,59.68,75.22,65.83s-333.85-4.71-333.85-4.71" fill="#765e30"/><polyline points="319.17 870.9 153.25 881.67 172 841.88 275.51 820.55" fill="#0c8c4a"/><path d="M1970.7,966.29s610.3,9.2,660.39-49.91,6.26,115.78,6.26,115.78l-699.57,4.67" fill="#765e30"/><path d="M2643.61,1061.61l-717.59-3.63-18.84,49.39s712.17-19.85,736.43-45.76Z" fill="#71592e"/></svg>