<?xml version="1.0" encoding="UTF-8"?><svg id="Layer_1" xmlns="http://www.w3.org/2000/svg" width="2500.58" height="1605.13" viewBox="0 0 2500.58 1605.13"><polygon points="1001.68 760.96 1001.68 986.9 987.99 983.32 987.99 759.8 1001.68 760.96" fill="#996e42"/><polyline points="1146.75 1029.94 1146.75 754.69 1180.64 754.69 1180.64 1032.7" fill="#996e42"/><polygon points="1273.38 744.15 1273.38 1028.27 1428.36 1022.06 1428.36 749.71 1273.38 744.15" fill="#b07e4d"/><polygon points="987.99 733.82 991.96 722.34 987.99 723.81 987.99 733.82" fill="#f4d668"/><path d="M1501.18,714.78l-.52,19.3-13.83-18.26-1.57,7.83-5.48-7.83,4.17,21.91-23.48-25.3-.78,23.74-33.13-28.43v22.17l-22.17-16.43-1.57,12.78-20.87-16.43s-1.21,16.69-.6,18.15c.08.07.11.12.08.11-.03,0-.05-.05-.08-.11-1.52-1.47-24.71-19.46-24.71-19.46l2.35,16.43-15.91-12.26-1.3,11.74-15.13-13.3-6.52,16.96-9.65-16.17-12.78,24.52-14.61-15.91-12.26,17.22-7.57-11.22-3.13,8.09-3.39-11.48-7.04,22.96-5.48-21.65-7.57,21.65-3.13-23.74s-3.91,8.87-3.91,10.17-4.7-6.26-4.7-6.26c0,0-5.74,14.61-6,15.91-.26,1.3-5.22-18.78-5.22-18.78l-8.87,22.7-3.91-22.7-14.09,31.3-2.35-31.3-10.17,15.65-2.87-18.52-17.22,27.13,4.43-31.3-19.3,27.39-3.91-18.52s-10.17,14.61-10.17,13.83,6-22.17,6-22.17l-30.52,19.3,5.74-19.04-24.52,19.57v-10.43l-15.65,13.3,5.22-21.39-36,22.96v-20.09l-21.13,12.26,2.35-11.48-28.76,22.79v237.82l173.22,51.26,363.13-17.48v-281.11l-23.15-20.32Z" fill="#f4d668"/><polygon points="1301.68 754.69 1387.64 754.69 1391.45 1022.61 1301.68 1026.93 1301.68 754.69" fill="#2a1e12"/><path d="M1515.14,962.47v185.87h23.87l-2.74-185.87s-10.57-8.22-21.13,0Z" fill="#a63b03"/><polygon points="1269.79 1051.82 1217.88 1084.43 1173.01 1053.13 1163.36 1051.82 1163.36 1066.69 1173.27 1064.34 1210.05 1089.39 1163.36 1120.95 1165.18 1135.82 1217.88 1093.82 1274.75 1138.17 1276.83 1123.04 1227.27 1089.13 1273.18 1061.74 1274.23 1051.82 1269.79 1051.82" fill="#a63b03"/><polygon points="1140.33 1146.19 1170.27 1145.02 1172.81 964.04 1148.94 964.04 1140.33 967.56 1140.33 1146.19" fill="#a63b03"/><path d="M1156.57,1010.6l-2.93-16.43-194.09-53.22s-17.22,104.09-3.52,144.78l17.22,3.13,78.94-37.05,88.15,94.38,11.35-17.8-86.48-81.39,91.37-36.39ZM969.33,1069.69v-100.96l72.39,71.84-72.39,29.12ZM1050.73,1033.69l-71.61-71.61,152.22,42.65-80.61,28.96Z" fill="#a63b03"/><rect x="1032.86" y="820.1" width="90" height="67.04" fill="#b1804e"/><rect x="1039.38" y="825.84" width="14.28" height="50.09" fill="#261b10"/><rect x="1058.16" y="825.84" width="14.28" height="50.09" fill="#261b10"/><rect x="1076.94" y="825.84" width="14.28" height="50.09" fill="#261b10"/><rect x="1095.73" y="825.84" width="14.28" height="50.09" fill="#261b10"/></svg>