<?xml version="1.0" encoding="UTF-8"?><svg id="Layer_1" xmlns="http://www.w3.org/2000/svg" width="2500.58" height="1605.13" viewBox="0 0 2500.58 1605.13"><polygon points="1693.72 1096.83 1347.11 1151.61 1228.15 1151.61 1228.15 1172.74 1028.59 1168.04 1028.59 1153.96 1037.19 1139.87 945.89 1139.87 945.89 759.91 1693.72 759.91 1693.72 1096.83" fill="#fad890"/><polygon points="1221.24 1094.74 1071.76 1092.13 1071.76 787.17 1221.24 787.17 1221.24 1094.74"/><polygon points="1065.92 1096.04 945.89 1097.74 945.89 1139.87 1068.11 1139.87 1065.92 1096.04" fill="#9e8859"/><polygon points="1213.41 1125.26 1223.33 1106.74 1223.33 1096.04 1069.67 1091.87 1042.02 1122.65 1213.41 1125.26" fill="#eac775"/><polygon points="1203.76 1157.87 1215.24 1137.52 1039.41 1135.43 1028.59 1153.96 1203.76 1157.87" fill="#eac775"/><polyline points="1042.02 1122.65 1039.41 1135.43 1215.24 1137.52 1213.41 1125.26" fill="#d0b269"/><polygon points="1204.53 1172.18 1203.76 1157.87 1028.59 1153.96 1028.59 1168.04 1204.53 1172.18" fill="#d0b269"/><path d="M907.15,826.7s46.17-16.43,59.87-9.39c0,0,5.48,4.3,18-3.52,0,0,9.39-3.13,11.35,8.61,0,0,21.52-3.52,38.35,14.48,0,0,32.48,8.24,81-23.47l6.91,2.07,16.83-18s7.3,22.04,48.91,27c0,0,14.61,19.96,27,22.04,0,0,28.96-9.78,40.3,8.22,0,0,1.57,8.48,38.35-1.57,0,0,18.13-3.91,26.35,1.04,0,0,11.87,5.87,26.87-3.26s72.26,13.43,72.26,13.43c0,0,19.7,12.91,60-11.48,0,0,41.09-27.13,74.48-8.22,0,0,19.01,9.67,32.9-5.97,4.3-4.85,9.54-8.79,15.57-11.18,15.41-6.08,45.36-10.55,91.28,13.1v-97.7s-57.05-21.39-23.79-98.48-280.57-159.26-280.57-159.26c0,0-135.78-49.3-231.65-52.83,0,0-82.17,10.83-181.57,199.43s-69,194.87-69,194.87Z" fill="#ca7330"/><polygon points="1693.72 1040.48 1345.54 1094.74 1223.33 1096.04 1228.15 1151.61 1347.11 1151.61 1693.72 1096.83 1693.72 1040.48" fill="#9e8859"/></svg>