<?xml version="1.0" encoding="UTF-8"?><svg id="Layer_1" xmlns="http://www.w3.org/2000/svg" width="2500.58" height="1605.13" viewBox="0 0 2500.58 1605.13"><polygon points="989.03 1015.32 1162.24 1066.58 1525.37 1049.11 1525.37 724.58 1132.37 669.8 989.03 736.58 989.03 1015.32" fill="#f4d668"/><path d="M1301.78,504.15s3.23-48.72,10.08-64.96v-9.59l-48.26-23.67-2.8,10.37s-22.3-4.11-16.04,23.67c0,0,13.89,18.59,13.5,69.07l43.53-4.89Z" fill="#c29635"/><polygon points="1002.72 738.02 1002.72 1019.79 989.03 1015.32 989.03 736.58 1002.72 738.02" fill="#996e42"/><polyline points="1147.79 1062.31 1147.79 734.37 1181.68 734.37 1181.68 1065.59" fill="#996e42"/><polygon points="1274.42 721.06 1274.42 1061.17 1429.4 1053.73 1429.4 727.71 1274.42 721.06" fill="#b07e4d"/><path d="M1303.24,492.93s144.23,160.17,308.72,237.91h-14.46l21.39,18.78-58.7-24,54,36.52-43.3-18,26.87,29.22-39.91-29.74,14.35,29.74-18.52-12.52,9.91,18-19.57-13.83,4.17,13.83-22.43-23.48,8.35,22.43-22.7-18.52v19.57l-23.48-20.61-.52,19.3-13.83-18.26-1.57,7.83-5.48-7.83,4.17,21.91-23.48-25.3-.78,23.74-33.13-28.43v22.17l-22.17-16.43-1.57,12.78-20.87-16.43s-1.3,18-.52,18.26-24.78-19.57-24.78-19.57l2.35,16.43-15.91-12.26-1.3,11.74-15.13-13.3-6.52,16.96-9.65-16.17-12.78,24.52-14.61-15.91-12.26,17.22-7.57-11.22-3.13,8.09-3.39-11.48-7.04,22.96-5.48-21.65-7.57,21.65-3.13-23.74s-3.91,8.87-3.91,10.17-4.7-6.26-4.7-6.26c0,0-5.74,14.61-6,15.91s-5.22-18.78-5.22-18.78l-8.87,22.7-3.91-22.7-14.09,31.3-2.35-31.3-10.17,15.65-2.87-18.52-17.22,27.13,4.43-31.3-19.3,27.39-3.91-18.52s-10.17,14.61-10.17,13.83,6-22.17,6-22.17l-30.52,19.3,5.74-19.04-24.52,19.57v-10.43l-15.65,13.3,5.22-21.39-36,22.96v-20.09l-21.13,12.26,2.35-11.48-33.91,26.87,9.13-26.35-28.96,10.7,9.39-20.35-50.87,11.74s335.48-239.05,342.52-269.2l5.48-5.76h46.96Z" fill="#edb22e"/><polygon points="1302.72 787.58 1388.68 787.58 1392.49 1055.5 1302.72 1059.82 1302.72 787.58" fill="#2a1e12"/><path d="M1516.18,995.37v185.87h23.87l-2.74-185.87s-10.57-8.22-21.13,0Z" fill="#a63b03"/><path d="M1619.29,995.56l-81.02,64.76.31,20.94,30.23,26.8-28.76,55.17v18l34.24-68.48,41.87,41.28,15.26-1.17-3.33-144.39s18.59-21.52-8.8-12.91ZM1574.09,1096.32l-27.98-23.48,63.98-47.54-36,71.02ZM1579.57,1102.97l34.83-67.5,1.57,100.37-36.39-32.87Z" fill="#a63b03"/><path d="M1516.18,1007.43c-8.8-14.87-221.54-8.87-221.54-8.87,9.91-33.13-11.74-32.87-11.74-32.87-9.91,1.83-9.91,21.91-9.91,21.91l-4.17,188.61,21.91,1.04,112.7-79.04,112.76,83.02v-24.85l-100.24-66.78,100.24-61.3v-20.87ZM1290.46,1151.11l3.13-127.57,95.09,65.93-98.22,61.63ZM1402.18,1077.74l-91.37-62.41,189.78,2.15-98.41,60.26Z" fill="#a63b03"/><polygon points="1270.83 1084.71 1218.92 1117.32 1174.05 1086.02 1164.4 1084.71 1164.4 1099.58 1174.31 1097.24 1211.09 1122.28 1164.4 1153.84 1166.22 1168.71 1218.92 1126.71 1275.79 1171.06 1277.87 1155.93 1228.31 1122.02 1274.22 1094.63 1275.27 1084.71 1270.83 1084.71" fill="#a63b03"/><polygon points="1141.37 1179.08 1171.31 1177.91 1173.85 996.93 1149.98 996.93 1141.37 1000.45 1141.37 1179.08" fill="#a63b03"/><path d="M1157.61,1043.5l-2.93-16.43-194.09-53.22s-17.22,104.09-3.52,144.78l17.22,3.13,78.94-37.05,88.15,94.38,11.35-17.8-86.48-81.39,91.37-36.39ZM970.37,1102.58v-100.96l72.39,71.84-72.39,29.12ZM1051.77,1066.58l-71.61-71.61,152.22,42.65-80.61,28.96Z" fill="#a63b03"/><rect x="1033.9" y="853" width="90" height="67.04" fill="#b1804e"/><rect x="1040.42" y="858.74" width="14.28" height="50.09" fill="#261b10"/><rect x="1059.2" y="858.74" width="14.28" height="50.09" fill="#261b10"/><rect x="1077.98" y="858.74" width="14.28" height="50.09" fill="#261b10"/><rect x="1096.77" y="858.74" width="14.28" height="50.09" fill="#261b10"/></svg>