<?xml version="1.0" encoding="UTF-8"?><svg id="Layer_1" xmlns="http://www.w3.org/2000/svg" width="2500.58" height="1605.13" viewBox="0 0 2500.58 1605.13"><path d="M914.01,1079.51c21.56,8.49,43.32,11.49,64.92,17.21,1.91.51,3.68,2.15,4.68,2.47-3.67,6.14.3,15.86-.66,23.33-.72,5.56-3.1,10.54-5.6,15.23-3.31,6.23-7.59,13.58-12.6,18.57-1.92,1.91-10.06,8.17-13.02,8.15-2.32,0-7.76-3.81-10.27-5.46-19.76-12.93-36.93-29.86-54.46-43.47,15.86-5.15,23.48-21.87,26.99-36.04h.01Z" fill="#d4480b"/><path d="M879.62,1046.35c-.11.61-1.57,3.4-2.11,6.33-.93,1.73-2.08,3.04-2.11,5.28-.9,2.78-6.4,2.75-8.77,2.13-1.17-.3-1.85-4.58-3.9-3.18-.33.22,2.98,2.87-5.04,3.96-3.95.54-9.52,1.51-13.97,3.42-2.36-.11-5.22-2.18-7.39-2.11-4.29-5.19-14.43-14.29-13.72-21.54,1.16-11.79,14.34-1.89,18.51,2.5,3.44,3.62,5.15,9.4,8.92,12.7-3.4-8.46-11.47-31.1-6.83-39.03,4.12-7.05,12.95,7.58,14.43,10.87l6.14,23.94v-16.36c0-2.37,2.69-13.8,3.8-16.25,2.82-6.25,7.3-9.32,11.19-1.89,3.34,6.38,2.13,21.93.85,29.23h0Z" fill="#fdebaf"/><path d="M884.9,1065.34c-4.45-2.66-8.96-.64-8.45-7.39.07-.88.8-3.86,1.06-5.28,1.14-2.12,2.06-4.27,3.17-6.33,1.48-2.76,1.8-5.03,4.25-7.89,2.81-3.28,14.17-12.37,16.69-5.13,2.87,8.25-9.14,27.58-16.72,32.02h0Z" fill="#fdebaf"/><path d="M843.73,1064.29c4.45-1.91,10.02-2.88,13.97-3.42,8.02-1.09,4.71-3.73,5.04-3.96,2.05-1.4,2.74,2.87,3.9,3.18,2.36.62,7.86.65,8.77-2.13h1.06c-.51,6.75,4,4.73,8.45,7.39s3.41,9.37,4.22,13.72c-5.59-1.43-11.12-2.18-16.89-2.11-3.44.04-5.31.56-8.45,1.06-5.56.88-9.68,2.35-14.78,4.22-2.32.85-2.88.94-5.28,2.11-2.83,1.38-12.31,6.37-13.72,8.44.85-6.16-2.57-10.71-2.11-16.89,6.48-1.6,9.93-9.08,15.84-11.61h-.02Z" fill="#d4480b"/><path d="M876.45,1057.96h-1.06c.04-2.23,1.19-3.55,2.11-5.28-.26,1.42-.99,4.4-1.06,5.28h.01Z" fill="#f7be2e"/><path d="M880.68,1046.35c-1.11,2.07-2.03,4.21-3.17,6.33.54-2.93,2-5.72,2.11-6.33h1.06Z" fill="#f7be2e"/><path d="M797.73,1197.5c2.51,1.94,4.85,4.13,7.4,6.04,5.12,3.83,10.91,7.98,15.53,12.67,3.6,3.64,4.92,9.37,9.32,12.32.3,1.52-14.99,2.86-15.81,7.06-.29,1.47,8.46,26.04,10.03,28.14l4.59-2.09c-6.36,6.59-13.24,14.16-20.29,19.93-8.92,7.29-21.31,12.82-31.41,18.98-2.6,1.59-1.86,2.43-6,1.44-9.78-2.33-21.25-14.28-28.35-21.25,18.43-7.72,29.34-26.62,33.35-45.47-.28-.97-1.97-1.56-2.59-2.31,6.58-12.24,14.82-25.14,24.23-35.47h0Z" fill="#66250a"/><path d="M700.1,1146.95c1.22,3.44,4.5,12.09-.91,10.92-2.93-.92-6.25-.65-9.11-2.73s-15.57-15.39-18.19-18.68c-.82-1.03-4.33-5.85-3.66-6.8,11.34-3.91,24.73,9.48,31.87,17.29h0Z" fill="#fdebaf"/><path d="M710.11,1179.72c-5.96.75-10.61,2.15-16.39,3.64,1.1-1.11,3.84-2.37,1.83-3.2-2.26-.93-5.54-.83-8.19-1.83-7.54-2.84-8.67-5.03-13.68-9.54,4.23-.86,10.81-1.89,14.12-4.57.53-.43.29-1.63.45-1.8.11-.12.61.07.91,0l20.95,17.3h0Z" fill="#f7be2e"/><path d="M688.26,1162.43c-.16.17.08,1.37-.45,1.8-3.31,2.69-9.89,3.72-14.12,4.57-.21-.19-2.36-.43-3.57-1.42-4.01-3.25-21.41-16.75-6.93-15.88,8.8.53,17.84,6.22,25.07,10.92h0Z" fill="#fdebaf"/><path d="M699.19,1157.88c2.42.76,5.13,3.04,8.2,2.73,1.52,3.2,6.47,11.06,7.1,13.44.45,1.72.24,3.28-.73,4.77-.54.03-2.32.74-3.64.91l-20.95-17.3c1.82-1.57.62-5,.91-7.28,2.86,2.08,6.18,1.81,9.11,2.73h0Z" fill="#d4480b"/><path d="M700.1,1146.95c4.77,5.22,4.54,7.89,7.29,13.66-3.06.31-5.78-1.97-8.2-2.73,5.41,1.16,2.13-7.48.91-10.92h0Z" fill="#f7be2e"/><path d="M788.61,999.68c-.32.62-1.55-.53-.89-1.81.32-.62,1.55.53.89,1.81Z" fill="#c49326"/><path d="M733.8,1190.65l1.8,8.66c-.61-.02-3.46-1.25-3.62-1.38-.13-.1.25-1.38-.11-1.67-2.06-1.67-8.21,5.07-9.91,6.22-2.68,1.81-5.5,3.7-8.2,5.46-8.62,5.65-17.8,10.69-26.41,16.39-.98-2.62-5.23-7.04-6.37-10.92l43.71-29.13h0c.27.19,1.93-.1,3.2.86,2.03,1.53,3.47,4.31,5.91,5.51" fill="#d4480b"/><path d="M1021.9,1003.84c2.73.16,5.16,1.08,7.81,1.49,11.28,1.75,33.78,4.81,44.61,5.32,4.05.19,9.36-.71,13.65-.79,20.23-.43,56.58-1.66,76.1.55,7,.79,7.56,4.91,8.89,8.5,1.63,4.37,2.93,10.82,2.89,15.12-.03,3.32-.89,6.15-2.06,9.25-1.54,4.11-4.57,10.72-7.4,14.41-1.54,2-5.32,5.4-7.65,7.15-1.34,1-5.1,3.89-7.29,3.68-18.98-5.97-38.59-11.07-57.72-16.83-10.96-3.3-21.79-8.27-33.56-9.49-8.45-.87-17.13-1.19-25.66-2.02-4.33-.42-8.69-1.12-13.03-1.57.59-1.96-.68-4.26-2.57-6.11-.38,2-4.82,2.24-6.38.15-2.02-2.69.97-1.59,3.39-2.62.88-.38,7.18-3.6,7.51-3.85,5.54-4.15,1.85-9.27-5.5-12.79-.79-.38-4.2-2.06-4.46-2.12-.43-2.26,2.92-1.52,5.02-2.28,2.84-1.04,3.63-3.18,3.43-5.14h-.01Z" fill="#d4480b"/><path d="M1007.79,1026.93c10.4-.11,17.73-7.11,6.09-11.4l4.04-2.15c7.36,3.52,11.03,8.64,5.5,12.79-.33.25-6.62,3.48-7.51,3.85-1.67.33-5.4.07-6.64.25-.92-.21-2.53-2.21-2.54-2.42-.01-.24,1-.67,1.06-.92h0Z" fill="#f7be2e"/><path d="M1013.46,1011.26c.26.06,3.68,1.74,4.46,2.12l-4.04,2.15c-1.22-.45-6.07-1.77-7.32-1.94-3.29-.44-5.04.13-7.63.66-.94.2-1.43.58-2.85.18-.11-.64-1.38-1.09-.25-2.12.49-.45,4.49-1.65,5.47-1.71.9-.06,11.56.52,12.15.65h.01Z" fill="#fdd350"/><path d="M993.52,1027.85c5.02,1.19,8.57.01,13.21.01,0,.2,1.62,2.2,2.54,2.42-.22.03-.84.88-2.04,1.04-2.77.36-11.11.12-13.03-1.27-.83-.6-.54-2.1-.68-2.19h0Z" fill="#fdd350"/><path d="M1006.57,1013.59c1.25.17,6.1,1.49,7.32,1.94,11.64,4.29,4.31,11.29-6.09,11.4.5-2.2,2.41-7.17,2-8.98-.32-1.45-3.55-2.66-3.23-4.36Z" fill="#d4480b"/><path d="M1571.6,1132.57l-4.01,36.84c-6.31,5.63-11.35,13.1-8.75,21.81.05.18,1.03,1.76,1.54,3.02.17,7.6-3.99,17.29-4,24.43,0,3.03,3.25,17.17,2.28,18.71-8.73,5.28-16.09,5.45-25.91,5.72-1.36.04-2.76.84-4.05.83-3.34-.03-23.78-3.69-25.06-5.77-.44-7.05,1.84-14.01,2.29-21.04-6.68-27.07-13.47-54.26-16.04-82.13,2.75.68,5.24,2.07,8,2.81,9.27,2.48,22.31,2.82,32.05,2.8v79.29l-11.98-.84-12.86-78.84c2.45,25.87,6.38,51.58,11.99,76.92.4,3.17-4.97-1.11-5.57,1.15,9.72,3.72,20.49,3.87,30.74,2.31,3.51-.53,8.21-1.21,10.91-3.51l-22.43,2.81v-79.29c12.32-.13,24.66-1.71,36.28-5.78,1.45-.51,2.91-2.01,3.78-2.23.22-.06.57-.01.8,0v-.02ZM1545.96,1217.46c5.17-25.86,7.36-52.21,9.62-78.48-1.45.3-1.5,1.57-1.63,2.77-1.27,11.92-1.72,24.11-3.18,36.06-1.48,12.16-4.41,24.87-5.5,36.96-.08.9-.74,2.87.69,2.69h0Z" fill="#d4480b"/><path d="M1537.95,1110.15c8.02,5.65,15.4,11.79,24.03,16.82-.51,1.54-1.96,1.56-3.18,2.02-16.05,6.02-42.55,5.91-59,1.28s-9.82-10.75,1.91-15.11c11.54-4.29,24-5.52,36.25-5.01h-.01Z" fill="#fdd350"/><path d="M1530.74,1140.58v79.29l22.43-2.81c-2.7,2.3-7.4,2.98-10.91,3.51-10.26,1.55-21.03,1.41-30.74-2.31.61-2.26,5.97,2.02,5.57-1.15-5.62-25.34-9.54-51.05-11.99-76.92l12.86,78.84,11.98.84v-79.29h.8Z" fill="#0e701c"/><path d="M1545.96,1217.46c-1.44.18-.77-1.79-.69-2.69,1.09-12.08,4.02-24.8,5.5-36.96,1.46-11.95,1.91-24.14,3.18-36.06.13-1.2.18-2.47,1.63-2.77-2.25,26.27-4.45,52.61-9.62,78.48h0Z" fill="#66250a"/><path d="M1325.44,1059.95c.08-5.87,1.39-13.01,3.97-18.59,4.07-8.81,10.65-13.29,18.45-20.17,6.21-5.47,14.46-10.58,16.6-17.72,13.59,6.02,15.92,9.64,26.28,17.94,2.87,2.29,10.5,6.67,12.03,8.94s-.89,2.85-1.5,4.92c-2.35,7.94-2.45,16.98.47,24.91.53,1.45.98,3.62,3.06,4.42-16.32,1.91-32.67,5.34-49.42,5.81-5.93.17-21.83.32-26.99-.46-3.75-.56-2.99-7.82-2.96-10.01h0Z" fill="#fdebaf"/><path d="M1459.28,1048.87c-7.52,2.4-11.02,6.54-14.06,11.66-.44.74-2.42,4.51-2.5,4.81-8.57-1.12-17.4-2.03-26.15-1.76-4.87-10.42-5.65-22.43-2.07-33.01,6.45-.48,14.3-4.31,22.67-5.16,4.06-.41,6.65-.83,11.08-.25,2.39.31,10.02,2.8,10.52,4.41.69,2.23-4.88,4.08-6.36,6.47-2.83,4.57,1.69,9.93,6.88,12.82h-.01Z" fill="#fdebaf"/><path d="M1416.56,1063.59c-3.67.11-8.11.59-11.75,1.02-2.08-.8-2.52-2.97-3.06-4.42-2.93-7.93-2.81-16.97-.47-24.91.61-2.08,3.02-2.66,1.5-4.92,3.72-.17,8.13.5,11.73.23-3.6,10.58-2.8,22.59,2.07,33.01h0Z" fill="#d4480b"/><path d="M1482.64,1054.93c-8.28-1.62-16.35-2.14-23.36-6.06-5.19-2.9-9.71-8.25-6.88-12.82,1.48-2.39,7.03-4.24,6.36-6.47,5.6-.19,10.37-2.74,16.3-2.17,2.46,2.07,4.14,4.96,7.11,5.74-.03.39-.1.87-.02,1.25-3.22-.34-6.01-1.89-9.45-1.93-5.54-.06-14.25,3.59-13.2,7.98.37,1.53,6.28,6.69,8.22,7.48,3.35,1.35,13.35,2.47,16.87,1.45-.13,1.94-1.22,3.74-1.92,5.56h0Z" fill="#d4480b"/></svg>