<?xml version="1.0" encoding="UTF-8"?><svg id="Layer_1" xmlns="http://www.w3.org/2000/svg" width="2500.58" height="1605.13" viewBox="0 0 2500.58 1605.13"><path d="M1553.04,1071.58c12.49,2.08,49.91,9.63,59.59,7.04,1.88-.5,1.49-4.04,1.86-4.29,3.42-2.27,6.69,4.36,10.86,6.05,5.72,2.31,12.68,1.55,17.03,2.96,7.21-9.46,33.57,13.46,16.46,16.46-8.23,9.75-26,14.43-37.62,9.4-3.06,6.66-6.39,7.36-11.76,2.35-15.36,9.85-33.87,13.09-51.72,9.4-2.82,1.75-5.69,3.4-8.69,4.75s-5.87,2.61-8.91,3.16c-76.08,13.75-156.57,22.68-233.87,24.46-3.1.07-6.23-.57-9.4-1.27-3.23-.71-6.38-1.75-9.51-2.88l-30.56,2.35c-6.11,6.24-22.01,9.62-28.21,2.35-65.81,1.49-131.64,1.49-197.49,0-6.01,4.5-13.87,5.33-23.59,2.5-27.91-2.74-67.44-9.73-95.07-15.75-13.69-2.98-55.58-12.75-62.22-21.98-1.03-1.44-1.81-3.06-2.51-4.74-11.81-6.28,2.25-18.41,10.53-23.49,9.76-5.99,77.08-20.88,87.28-18.13,3.12.84,6.11,1.79,8.81,3.6,8.19,7.8,16.07,12.2,27.39,12.15,3.25-6.76,8.38-6.39,11.76,0,8.76,1.2,17.07,5.32,24.92,12.37,25-.97,48.09,4.21,69.25,15.56l5.48-.7c8.95-3.76,40.25-14.3,34.36.99-.04.36-2.1,1.21-2.38,2.3,3.91.14,7.87-.01,11.79.05,6.77-1.61,15.12-2.54,21.16,0,4.21-4.92,35.65-3.75,37.14-2.57,3.64,2.89,3.78,4.06,2.83,9.62-.85,3.57-3.66,7.1-2.33,11.76,4.24-3.06,8.5-7.75,11.73-11.76l6.4-4.97c14.99-.76,29.99-1.29,45-1.6l5.03,4.22c.3.44-.66,2.61.5,4.14,2.08,2.75,10.88,3.23,8.93,12.32,5.9-.33,3.55-13.26,2.33-16.46l2.5-4.51c33.44,4.1,66.51,5.03,99.21,2.8,15.78-7.23,30.43-12.98,48.29-9.08,36.55,7.46,70.02,12.8,95.77-19.34l22.23-9.91c3.06-4.9,6.2-8.79,9.43-11.68Z" fill="#cbb36a"/><path d="M1362.6,1104.5c5.62-5.23-7.19-9.32-10.41-14.28-2.16-3.33-2.2-8.34-4.93-11.53-6.99-8.17-22.13-5.11-12.78-25.84,18.94,6.74,39.05,11.18,55.3,23.27,6.95,18.66,16.64,12.87,6.76-2.05-4.06-6.14-12.06-5.48-15.14-11.87,9.07,4.8,33.61,5.74,38.59,14.08.97,1.63-1.17,4.56-.97,4.69,2.1,1.34,12.04-2.54,17.12-1.93,6.17.74,6.02,6.12,8.06,6.57,3.22.72,7.44-.65,10.67.64,6.4,2.56,14.47,8.54,19.41,13.54,3.59-7.78-7.39-18.1-13.12-22.24-2.25-1.62-6.04-.74-6.87-1.26-7.79-4.89-18.73-10.92-25.86-16.46,2.3-3.6,9.26-2.74,13.01-2.5,34.89,2.26,68.05,6.59,102.19,11.91.93.8,1.74,1.65,2.14,2.66,4.7,12.06-43.31,16.1-51.03,16.38-2.89,18.43-19.64,25.4-36.64,23.22-29.7-7.07-59.49-5.09-90.1-2.46l-5.4-4.53Z" fill="#94824d"/><path d="M1553.04,1071.58c1.75,18.72-17.71,18.79-28.04,24.86-7.99,4.7-13.47,15.02-24.44,20.23-31.74,15.05-60.82-1.08-92-.5-13.59.25-26.65,11.7-40.2,11.93-10.1.17-21.17-3.55-32.83.07l-59.93-4.87c-1.09-2.84-7.18-8.66-9.4-14.11,2.1-21.93,13.79-37.92,27.81-10.42l7.45,5.72c9.55,3.57,14.69,10.33,18.1,11.29,4.75,1.33,10.22-.13,15.48.98,2.93.62,6.22,7.21,8.73,3.03l-7.04-12.95c3.68-6.16,11.52-6.94,23.51-2.35.78,0,1.57.02,2.35,0,20.32-.42,47.12-4.1,67.09-2.44,17.06,1.42,42.87,12.87,56.55-4.41,3.45-4.35,3.25-11.64,5.52-13.29,4.6-3.35,45.15.25,51.88-15.13,3.68.57,6.75,1.91,9.4,2.35Z" fill="#ad995a"/><path d="M1658.85,1099.79c0,.78-.02,1.57,0,2.35.13,4.69-.03,9.41,0,14.11,4.66,6.96,4.64,14.19,0,21.16-.03,8.57,2.28,17.59,2.35,23.51.01.78,0,1.57,0,2.35,5.5,12.79,1.64,22.27-7.05,30.56-.26,1.45.2,3.2,0,4.7,6.11,3.32,3.82,7.98-2.35,9.4-3.81,1.08-4.27,9.03-4.75,9.42-.38.3-5.92-2.2-9.35-2.37-12.5,6.01-42.78,4.85-23.42-10.7-1.22-9.53,2.94-19.57,10.32-25.8,11.34-6.29,22.45-15.15,21.03-29.27l3.83-4.76-5.3-1.28c-8.27-10.8-16.46-21.1-24.59-30.89l1.68-3.1c12.54-2.5,25.26-6.09,37.62-9.4Z" fill="#3f3115"/><path d="M1287.37,1240.86c7.44,13.67-10.55,13.74-18.81,7.05-7.85.25-21.13-8.82-28.68-14.08-8.55-10.99-13.34-12.08-14.36-3.26-13.54,9.14-13.03,27.08-4.25,39.3l.28,6.25c15.85-3.7,32.34-6.33,49.47-7.87-1.82-5.84-1.07-10.27,2.25-13.29,8.02-6.74,9.42,1.79,4.7,9.4,8.5-.86,8.61,10.23,0,11.76-14.55,4.53-9.27,1.76-22.07,2.6-9.82.64-33.23,9.26-40.88,1.56-6.32-6.36,4.35-6.64-12.28-8.86,1.69-10.88,2.24-17.26-4.7-2.35-45.67-.71-87.17,1.12-134.01-2.35,1.8-5.99,4.15-10.69,7.05-14.11-11.4-3.42-16.6-8.46-15.59-15.11l-7.92-3.7-4.1,4.52c-27.86,5.34-48.76,1.14-73.78-11.14-19.08,2.01-35.79-1.76-50.12-11.3-7.55,6.66-14.34,14.55-20.35,23.65-5.42-5.06-14.82-8.39-20.93-8.09-3.87-.26-4.91-3.35-3.11-9.26l-1.59-11.9-3.19.54c-4.96-5.06-10.17-9.94-15.62-14.65-5.98.12-6.88-.26-2.35-4.7-8.4.23-4.5-10.45,2.35-4.7,1.47-.3,1.82-1.24,1.29-2.75-12.78-36.88-3.93-54.6,34.98-36.5,47.34,1.34,94.37,10.56,140.7,23.89,40.34,6.42,81.21,4.5,122.61-5.77,25.51-5.38,47.82-4.42,72.56,1.29,16.73-4.39,33.07-5.86,49.03-4.41,19.63,8.06,24.85,63.25,11.44,78.33Z" fill="#503f21"/><path d="M1047.55,1233.81c8.93.79,13.99,11.38,2.95,11.97-.91.05,13.92,3.23,16.61,2.24l3.96,4.6c.31,8.63,2.9,16.48-7.05,14.11-38.35-2.84-75.86-8.31-114.05-11.73-8.84-.79-20.08,1.46-28.14-.08-7.37-1.41-9.6-11.73-15.32-8.19l7.04,8.22c-2.19.39-5.21-.5-7.05.02l-2.71.79c-5.72-10.77-11.87-15.73-18.45-14.89.21,23.67-22,1.09-7.05-9.4-2.19-17.74,18.02,7.57,21.16,4.68l-4.7-7.01c11.77,2.46,8.77-3.83,14.09-10.61,12.75-16.25,16.57-.71,30.42,2.52,10.49,2.45,21.32-.52,31.37,1.54,10.96,2.25,23.27,11.93,38.42,13.35,12.44,1.17,24.92-3.25,38.52-2.13Z" fill="#372b15"/><path d="M1515.43,1257.32c-20.68,4.39-33.28,5.24-54.08,7.05-.91-10.5-.09-20.81,9.5-26.95,20.31-12.99,32.65,6.03,44.58,19.89Z" fill="#48381d"/><path d="M1026.39,1088.04l-1.18,4.74c20.93-.84,40.84-8.74,59.96-16.47l-18.81,25.82c1.87,1.6,14.48-8.29,18.81-9.38,5.79-5.52,36.66-16.34,28.21,0-2.17,2.96-4.09,5.93-7.04,8.24,7.2,4.26,13.19-5.45,18.8-8.24,16.27-5.12,26.46-2.77,30.56,7.05-8.22,9.37-18.77,8.67-28.21,16.46.11-1.12-.05-1.85-1.18-2.33-15.67-4.15-29.88,8.28-39.37,6.66-7.97-1.36-21.59-11.49-31.71-13.18-12.69-2.11-28.89,1.46-41.15-3.52-5.82-2.36-13.34-12.9-20.6-15.84,2.68-9.04,31.64-11.04,32.92,0Z" fill="#ac985a"/><path d="M1209.78,1123.31c3.13-4.01,4.77-11.16,6.34-11.81,3.63-1.5,13.6-2.47,19.02-3.98,14.02-3.89,8.62-9.59,19.31,1.68,4.49,4.73,6.37,9.74,9.4,14.11l-56.43,2.35c.69-.85,1.69-1.5,2.35-2.35Z" fill="#ad995a"/><path d="M1158.06,1118.6c4.85-10.38,13.78-10.28,22.81-13.61,2.49-.92,5-4.61,7.01-4.92,1.49-.23,13.94,6.88,12.5,11.48-.89,3.21-1.12,8.95-2.35,14.11,1.3-7.34-3.68-4.3-8.15-4.67-10.64-.89-21.16-1.9-31.81-2.38Z" fill="#ad995a"/><path d="M1031.09,1153.87c65.82,1.49,131.65,1.49,197.49,0,9.05-.25,18.4-1.97,28.21-2.35l30.56-2.35c94.49-2.29,177.79-11.31,270.38-28.21l4.71,3.53-18.11,17.16c-16.51,1.85-132.47,10.67-136.76,17.23-2.76,4.22,2.24,14.52,1.95,19.56-.62,10.7-22.67,33.09-30.03,42.88-4.41,5.86-8.39,17.25-12.08,20.88-3.65,3.59-10,3.76-14.22,10.42-5.79,4.68-10.71,3.73-18.98.21-3.34,2.2-7.98,2.91-13.94,2.14h-2.35l-4.65-3.07c-2.01-12.41-5.47-14.61-16.51-11.04-3.42,2.94-4.68,1.61-2.35-2.35l-2.41-2.76c7.24-44.33.95-92.23-56.74-69.69l-9.53.9c-24.15-6.19-46.03-6.57-71.08-1.34-45.02,8.4-79.95,14.04-125.15,5.34-44.17-14.18-88.78-21.59-133.81-22.24-13.32-6.97-25.83-9.2-37.54-6.69-14.7,22.55-19.02,7.29-15.15-11.67.22-12.84,2.4-10.18,4.7-16.46,17.83,9.09,36.93,15.43,56.4,20.01,35.83,8.43,90.54,17.39,126.99,19.96Z" fill="#403114"/><path d="M981.72,1088.04c-6.58-5.45-20.4-5.62-21.15-16.45,22.55-.9,45.19-8.8,67.28-11.48,15.32-1.86,33.68,7.34,31.48-14.38l3.49,4.68,3.56-9.38,2.34,7.09,4.67-2.42c1.67,2.29-8.15,15.85,2.37,14.12-1.72,1.11-4.17,6.39-8.57,9.07-4.68,2.84-38.41,19.76-40.8,19.15-18.61-4.75-14.33-2.06-32.92,0-3.83.43-7.91-.4-11.76,0Z" fill="#94824c"/><path d="M1228.59,1153.87c-60.94,1.66-137.55,4.23-197.49,0h197.49Z" fill="#503f21"/><path d="M1287.37,1149.17c-7.94,4.6-20.76,1.97-30.56,2.35,7.9-4.49,20.81-2.11,30.56-2.35Z" fill="#503f21"/><path d="M843,1130.36c-.09,5.08-1.61,16.37,3.56,18.79,3.61,1.69,5.64-8.41,12.77-10.67,18.47-5.85,23.55,6.13,36.71,8.19,11.95,1.87,26.81-.84,39.54.43,48.57,4.84,101.4,29.38,150.72,25.54,32.2-2.51,68.95-11.53,101.79-13.39,14.42-.82,27.78,4.66,41.73,4.15,14.66-.53,28.81-7.54,43.93-4.36,26.47,5.56,25.58,58.72,20.65,79.47,2.41,6.27-3.69,8.52-7.05,2.35,7.06-19.32,6.08-51.32-5.01-69.05-11.66-18.63-39.9-1.17-57.32-1.27-9.53-.05-18.82-7.12-29.93-6.66-14.1.59-41.27,4.69-57,6.47-24.12,2.74-48.64,10.71-73.02,9.45-43.31-2.23-96.95-26.04-139.26-27.66-25.97-1-21.42,2.15-47.66-6.39-37.08-12.07-18.54,20.78-21.09,43.41-1.1-.28-1.96-2.35-2.3-2.38-8.19-4.11-12.89-9.59-14.11-16.46,1.35-12.76-2.97-28.54,2.35-39.97Z" fill="#403114"/><path d="M1047.55,1233.81c2.82.23,7.17-.86,9.54.99,3.22,2.52.14,8.83,4.54,8.39,1.49-8.24,11.71-17.5,16.49-7.06-4.46-.9-17.24,4.45-14.08,9.43l14.06-1.14c1.29,7.49-6.47-1.25-9.38,1.16-.34.28,2.2,2.75,2.35,7.03-6.65-5.46-9.23,2.47-14.08,4.7l-3.55-9.36c-5.21,6.99-10.6,4.3-17.64,2.27,2.86-10.45,4.26-4.42,7.68-5.55,3.72-1.23,6.8-4.31,11.12-3.84l-7.05-7.03Z" fill="#427527"/><path d="M1301.47,1259.67c-.57,3.49.82,8.73,0,11.76-.16.58-5.2,6.67-5.83,6.71-2.41.17-6.56-5.47-17.69-2.01,2.89-5.04.78-7.68,0-11.76-2.13-15.11,17.73-19.04,23.51-4.7Z" fill="#8d888b"/><path d="M1198.02,1269.08c-6.92-24.81,23.73-9.67,4.7,2.35-1.37-.18-3.56-2.33-4.7-2.35Z" fill="#979293"/><path d="M1221.54,1276.13c-11.15-6.63-14.08-28.69-8.05-39.8,1.92-3.54,5.96-5.31,8.17-8.36,2.02-2.78,2.03-7.89,2.35-8.18,6.03-5.58,16.38,8.74,18.77,10.36,9.58,6.51,18.38,8.79,25.79,17.76,4.25.6,6,1.47,2.35,4.7-2.86,12.25-26.22,7.95-35.81,3.5-2.23,12.85-6.75,19.52-13.56,20.01Z" fill="#979495"/><path d="M1270.91,1252.62c3.34-3.21,4.8-1.75,2.35,2.35,2,6.09,2.84,12.39,2.36,18.82-14.67-3.59-42.31,9.34-54.09,2.34,5.17-3.17,7.31-25.2,12.89-25.61.63-.05,6.6,4.11,11.73,4.52,6.95.55,18.75,1.45,24.75-2.42Z" fill="#6b696a"/><path d="M1296.77,1240.86c8.04-.99,9.42,12.95,7.05,18.81-.71-.22-1.63.22-2.35,0-10.29-3.1-13.11-9.98-23.51,4.7-.74-3.89.6-7.94-4.7-9.4-.26-.8-1.96-1.55-2.35-2.35-.71-1.43-1.5-3.67-2.35-4.7,14.81-.6,1.34-1.03,2.34-5.85,1.15-5.55,11.18,2.02,10.58,8.19,2.8-2.53,4.62-5.93,5.89-9.39,2.04.19,6.05-2.47,7.05-2.35.17.02,2.26,2.21,2.35,2.35Z" fill="#47732a"/><path d="M1296.77,1240.86c9.9-16.23,22.39.81,21.16,14.11-.97,10.55-7.43,6.8-14.11,4.7-5.69-5-3.7-13.53-7.05-18.81Z" fill="#8d888b"/><path d="M1609.47,1111.55l4.98,1.23c2.83,7.18,20.6,31.12,27.12,31.54,2.81-2.23,4.62-2.51,7.87.15,2.44,9.67.8,15.58-5.08,24.3-8.56,12.7-19.84,8.36-24.94,26.81-2.75,9.93,3.99,10.85-9.93,15.9,8.98,3.98,18.74,3.07,28.2,3.51-6.1,4.27-51.62,23.01-54.08,21.14,10.77-18.67,9.62-32.73-3.5-49.37-2.97-3.76-25.19-26.15-27.91-25.67-2.39.42-6.16,6.23-8.49,8.06,0,5.36,46.79,34.02,30.5,50.55-4.83.6-9.8.69-14.91.28-5.52,8.77-8.32,7.28-12.75.15l-.55,1.92c-22,13.57-40.07-20.33-26.34-39.89,4.41-1.78,33.36-36.2,23.69-28.87-12.39,9.4-33.47,28.22-33.76,43.93-.45,23.99,20.15,34.35,41.11,36.59.73-6.71,18.22-17.49,23.51-11.76-.01,1.25-3.05,3.89-2.02,7.7,1.09,4.04,9.42,6.63,4.4,9.96-8.52,5.66-34.04,10.08-44.7,12.91l-6.04-.75c-21.56-33.87-73.74-40.57-73.98,10.24l-4.62,4.61c-17.29-2.66-124.71,8.53-131.17,4.06-1.25-.87,1.31-5.09-4.01-4.09-.53.1-3.88,6.2-8.07,6.57l-2.52-1.84c-6.6-.81-6.64-10.51,0-11.76.72-.94,1.51-.91,2.35,0,3.87-1.93,8.57-3.5,14.11-4.7.67-2.05,1.45-2.02,2.35,0l3.42-1.16c12.61,5.04,16.72,3.7,29.5-1.19.07-7.05,5.12-10.6,11.53-14.45,13.41-20.21,26.79-40.24,40.15-60.08-4.08-15.37-5.91-25.65,13.37-27.46,41.18-5.89,82.5-10.37,123.95-13.44,6.35-5.05,11.53-10.46,15.55-16.23,17.13-3.13,34.62-6.12,51.72-9.4Z" fill="#4f3f21"/><path d="M1531.88,1252.62c-5.65,1.5-10.05,3.34-16.46,4.7l-6.52-.88c-14.43-22.47-43.18-27.71-43.04,5.16l-4.51,2.77c-4.82.42-9.7-.71-14.11,2.35-2.66-60.76,58.38-57.91,84.64-14.11Z" fill="#4f3f21"/><path d="M1545.99,1222.05c-1.94-1.58-5.23-1.89-4.69-4.68,4.42-2.28,10,4.65,10.58,4.63,1.91-.07,5.02-9.18,7.03-9.18.83,0,2.77,3.6,4.65,3.68,2.11.09,6.33-5.62,10.64-3.84-2.91,3.3.04,6.51,0,7.03-.06.77,0,1.57,0,2.35-8.5,3.66-14.05,9-23.51,11.76-18.2-.3-21.45-9.9-4.7-11.76Z" fill="#4f3f21"/><path d="M1621.23,1109.2c8.85,13.53,24.18,19.27,28.21,35.27-3.89,2.81-6.25,6.08-11.7,3.63-5.75-2.59-28.15-27.82-28.27-36.54,3.86-.74,7.85-1.57,11.76-2.35Z" fill="#4f3f21"/><path d="M1545.99,1222.05c.31.25,2.73-.32,2.35,2.33-18.51-.05-7.75,4.31,2.35,9.43-30.02,8.74-54.42-22.7-42.9-51.12,1.8-4.45,34.09-36.18,36.72-35.73,20.98,3.62-18.67,33-21.74,38.95-9.25,17.96,2.65,38.7,23.21,36.14Z" fill="#4f3f21"/><path d="M1578.25,1135.4c4.18-1.19,5.66-.11,9.01,1.89,2.07,1.23,29.62,28.77,30.52,30.74,3.14,6.87-2.73,9.56-7.13,13.99-5.03-6.48-39.39-36.3-38.66-40.78.28-1.72,4.34-5.28,6.26-5.83Z" fill="#4f3f21"/><path d="M1320.28,1254.97c4.04-3.65,6.57-5.12,11.73-2.35l-7.02-9.38c5.36-2.97,12.86,7.94,14.04,7.03,2.1-1.63,6.88-16.89,16.49-4.73l-14.09,7.06,11.75.02c-1.68,2.64,4.02,6.68-7.05,2.37l2.33,7.02c-5.08-3.61-10.8,1.87-12.92,1.7-.88-.07-11.15-8.47-15.28-8.74Z" fill="#4f3f21"/><path d="M1269.2,926.7c1.63,12.2,7.3,11.99,12.74,25.65-8.71,27.99-1.91,36.83,15,58.45,7.12,9.09,14.42,18.27,23.58,25.35,30.83,9.8,58.05,13.21,90.24,13.02,12.71,11.5,27.7,20.36,43.53,27.11,9.97-14.88,40.25,27.81,15.05,25.25-7.96-7.4-15.49-12.33-26.77-11.75-4.63-6.45-12.23-7.85-22.81-4.19-4.84-8.25-8.16-11.41-17.99-12.96,11,20.23-8.74,27.76-15.46,6.43-7.76-5.08-16.11-8.88-24.78-12.18-33.73-12.85-31.77-6.07-8.71,11.81l4.12,9.86c6.82,4.54,18.38,13.78,5.67,15.94-.43,2.1-1.23,2.02-2.35,0l-15.56-2.62c-11.45-12.4-23.66-23.89-36.62-34.46-12.32,21.51,4.31,35.07,26.52,34.43l2.15,5c7.6-.8,14.35,12.99,8.43,16.85-2.92,1.9-46.66-6.14-43.69-19.2-9.71-9.51-18.14-20.22-25.32-32.13l-4.5-1.39c1.44,12.08-.37,24.82-5.45,38.22,6.23-2,14.37,8.83,9.4,14.11,14.73,4.63,1.16,31.4-7.24,12.34-6.23-3.43-13.38-8.42-4.51-12.34-6.7-.77-13.66-7.84-9.4-14.11-1.69-3.93-4.13-6.4-7.32-7.41l-4.1-25.13c-2.73-1.02-33.73,40.94-33.25,46.65-.07,1.49-.86,2.27-2.35,2.35,5.83,5.14-7.8,16.95-12.33,14.79-7.01-3.34-5.36-15.87,2.93-14.79-4.71-8.94-3.92-13.64,2.35-14.11-2.21-8.16-.37-16.84,5.52-26.04-10.71,9.62-23.22,16.74-37.52,21.37-8.3,8.3-18.8,12.2-31.48,11.72-6.96,11.71-21.14-1.99-9.4-2.35-2.41-9.29,20.14-16.09,28.21-16.46-4.29-3.99.91-12.37,4.24-16.47,48.99-37.75,1.31-6.61-16.16,7.29l-18.65,2.13c3.93,7.72-15.21,17.84-19.6,12.42-4.88-6.01.68-15.26,7.85-12.42-1.17-4.45-1.12-7.72.14-9.82l18.39-13.87c-1.03-4.56-.94-8.42.27-11.58-2.53-4.52-.37-7.85,6.46-9.97,29.9-4.24,42.35-25.15,55.6-49.94,4.1-7.68,21.9-44.39,22.52-50.31.45-4.24.66-9.64.69-15.67" fill="#8c4326"/><path d="M1297.58,934.46c14.19,19.65,20.85,38.91,11.41,62.52,3.17,18.26,17.73,29.73,32.45,39.33,4.66,2.13,21.2,9.4,24.69,9.4h49.37c.96,0,8.29,10.5,12.93,14.11,8.72-.82,26.13,7.23,25.86,16.46-13.34-3.5-26.92-11.55-39.77-17.82-3.13-1.53-4.71-5.54-8.31-6.97-9.37-3.73-32.84.44-44.66-1.2-4.16-.58-7.75-3.59-12.13-4.32-9.57-1.6-21.61-1.83-30.09-5.18-9.76-3.85-43.31-47.35-45.54-57.9-3.01-14.26,3.74-21.25,3.66-27.26-.09-6.34-2.77-13.77-5.75-21.75" fill="#b55532"/><path d="M1300.17,935.76c6.51,13.23,18.89,18.72,20.11,34.72s-5.66,27.2,1.13,44.71c4.01,10.34,14.54,12.67,20.03,21.12-12.49-5.7-28.12-15.04-34.1-28.19-6.66-14.66-.52-15.37.99-27.25,2.5-19.62-6.69-32.31-14.72-45.66" fill="#e97040"/><path d="M1220.4,928.07c.01,10.76.06,9.8.93,19.88-12.7,28.36-31.27,83.04-60.18,97.34-11.81,5.84-19.17,2.8-28.96,12.18,1.29,11.24-8.31,17.66-28.8,19.25-6.16,5.77-12.23,11.11-18.22,16.01-6.27,18.53-33.94,17.94-14.19-5.81l-22.21,7.04c-10.64,5.86-38.53,1.44-22.38-5.93l.38-4.85,37.84-18.22c3.28-4.54,7-6.26,11.15-5.15.87-11.25,19.57-17.69,30.1-18.77,10.75.68,21.18-.29,31.3-2.91,7.41-14.17,15.43-28.06,24.07-41.65l6.23-2.51c-4.86-7.42,2.95-28.88,7.07-37.64,1.68-7.94,5.59-11.85,11.74-11.73l.52-5.21c7.19-4.01,11.8-.07,13.34-8.81" fill="#783a21"/><path d="M1360.25,1104.5c-7.98.09-17.98,2.5-23.51,2.35-2.97-.08-24.21-4.22-26.54-5.2-11.17-4.7-17.02-40.26-.46-38.9,1.06.09,14.35,11.44,16.49,13.47,11.27,10.69,16.91,23.05,34.02,28.28Z" fill="#937f4b"/><path d="M1209.78,1123.31c-3.38-11.2,25.08-48.69,32.14-51.37,1.66-.63,5.42-1.49,5.63,1.03,3.26,12.12,1.68,24.6,6.9,36.23-7.47-.74-11.69-.24-18.99,3.09l-16.72,2.88c-1.33,4.99-2.8,10.07-8.97,8.14Z" fill="#8d7c4a"/><path d="M1113.38,1092.74c1.66-9.87-10.27-1.6-15.9-.55-4.2.78-9.46-.18-12.32.55,2.83-11.22,11.78-19.75,22.88-22.97,4.73-1.37,9.97.41,14.72-1.72,3.11-1.4,6.45-7.73,9.42-10.57,13.9,16.35-5.81,19.63-14.01,27.19-2,1.84-2.98,5.59-4.8,8.08Z" fill="#917f4b"/><path d="M1125.14,1092.74c6.17-3.07,12.03-3.67,17.72-6.97,15.16-8.79,26.66-25.93,45.75-25.93-.21,14.21-17.09,17.6-23.57,24.61-3.75,4.06-4.86,10.25-9.34,15.35-8.94-4.65-20.59-6.95-30.56-7.05Z" fill="#917f4b"/><path d="M1136.89,1118.6c4.05-4.67,11.67-1.23,17.17-2.81,3.09-.89,9.65-8.66,14.49-11.38,12.27-6.89,26.84-12.3,36.19-24.93,3.39-4.58,4.53-14.38,5.06-14.96,3.1-3.38,4.41.27,4.75,3.56,1.3,12.34-10.52,30.28-14.18,43.46-8.08-5.46-13.91-6.24-17.48-2.35l-24.84,9.4c-7.01-.31-14.14.11-21.16,0Z" fill="#847346"/><path d="M1301.47,1104.5c-13.92-5.2-7.31-5.26-15.2-11.83-15.2-12.66-11.44,8.12-20.07,16.53-5.21-12.76,2.12-12.42,2.52-22.35.39-9.53-9.98-25.27,7.56-19.47,14.46,4.79,13.82,29.68,25.19,37.12Z" fill="#8d7346"/><ellipse cx="1243.7" cy="944.4" rx="63.45" ry="22.6" fill="#e97040"/><ellipse cx="1244.77" cy="942.9" rx="50.17" ry="17.87" fill="none" opacity=".6" stroke="#231f20" stroke-miterlimit="10"/><ellipse cx="1244.77" cy="942.9" rx="37.61" ry="13.4" fill="none" opacity=".6" stroke="#231f20" stroke-miterlimit="10"/><ellipse cx="1246.52" cy="941.37" rx="24.22" ry="8.63" fill="none" opacity=".6" stroke="#231f20" stroke-miterlimit="10"/><polygon points="1605.91 1227.41 1546.1 1248.73 1520.61 1158.01 1605.91 1158.01 1605.91 1227.41" fill="#4f3f21"/></svg>