<?xml version="1.0" encoding="UTF-8"?><svg id="Layer_1" xmlns="http://www.w3.org/2000/svg" width="2500.58" height="1605.13" viewBox="0 0 2500.58 1605.13"><path d="M1586.14,1077.58c12.49,2.08,49.91,9.63,59.59,7.04,1.88-.5,1.49-4.04,1.86-4.29,3.42-2.27,6.69,4.36,10.86,6.05,5.72,2.31,12.68,1.55,17.03,2.96,7.21-9.46,33.57,13.46,16.46,16.46-8.23,9.75-26,14.43-37.62,9.4-3.06,6.66-6.39,7.36-11.76,2.35-15.36,9.85-33.87,13.09-51.72,9.4-2.82,1.75-5.69,3.4-8.69,4.75s-5.87,2.61-8.91,3.16c-76.08,13.75-156.57,22.68-233.87,24.46-3.1.07-6.23-.57-9.4-1.27-3.23-.71-6.38-1.75-9.51-2.88l-30.56,2.35c-6.11,6.24-22.01,9.62-28.21,2.35-65.81,1.49-131.64,1.49-197.49,0-6.01,4.5-13.87,5.33-23.59,2.5-27.91-2.74-67.44-9.73-95.07-15.75-13.69-2.98-55.58-12.75-62.22-21.98-1.03-1.44-1.81-3.06-2.51-4.74-11.81-6.28,2.25-18.41,10.53-23.49,9.76-5.99,77.08-20.88,87.28-18.13,3.12.84,6.11,1.79,8.81,3.6,8.19,7.8,16.07,12.2,27.39,12.15,3.25-6.76,8.38-6.39,11.76,0,8.76,1.2,17.07,5.32,24.92,12.37,25-.97,48.09,4.21,69.25,15.56l5.48-.7c8.95-3.76,40.25-14.3,34.36.99-.04.36-2.1,1.21-2.38,2.3,3.91.14,7.87-.01,11.79.05,6.77-1.61,15.12-2.54,21.16,0,4.21-4.92,35.65-3.75,37.14-2.57,3.64,2.89,3.78,4.06,2.83,9.62-.85,3.57-3.66,7.1-2.33,11.76,4.24-3.06,8.5-7.75,11.73-11.76l6.4-4.97c14.99-.76,29.99-1.29,45-1.6l5.03,4.22c.3.44-.66,2.61.5,4.14,2.08,2.75,10.88,3.23,8.93,12.32,5.9-.33,3.55-13.26,2.33-16.46l2.5-4.51c33.44,4.1,66.51,5.03,99.21,2.8,15.78-7.23,30.43-12.98,48.29-9.08,36.55,7.46,70.02,12.8,95.77-19.34l22.23-9.91c3.06-4.9,6.2-8.79,9.43-11.68Z" fill="#cbb36a"/><path d="M1395.7,1110.5c5.62-5.23-7.19-9.32-10.41-14.28-2.16-3.33-2.2-8.34-4.93-11.53-6.99-8.17-22.13-5.11-12.78-25.84,18.94,6.74,39.05,11.18,55.3,23.27,6.95,18.66,16.64,12.87,6.76-2.05-4.06-6.14-12.06-5.48-15.14-11.87,9.07,4.8,33.61,5.74,38.59,14.08.97,1.63-1.17,4.56-.97,4.69,2.1,1.34,12.04-2.54,17.12-1.93,6.17.74,6.02,6.12,8.06,6.57,3.22.72,7.44-.65,10.67.64,6.4,2.56,14.47,8.54,19.41,13.54,3.59-7.78-7.39-18.1-13.12-22.24-2.25-1.62-6.04-.74-6.87-1.26-7.79-4.89-18.73-10.92-25.86-16.46,2.3-3.6,9.26-2.74,13.01-2.5,34.89,2.26,68.05,6.59,102.19,11.91.93.8,1.74,1.65,2.14,2.66,4.7,12.06-43.31,16.1-51.03,16.38-2.89,18.43-19.64,25.4-36.64,23.22-29.7-7.07-59.49-5.09-90.1-2.46l-5.4-4.53Z" fill="#94824d"/><path d="M1586.14,1077.58c1.75,18.72-17.71,18.79-28.04,24.86-7.99,4.7-13.47,15.02-24.44,20.23-31.74,15.05-60.82-1.08-92-.5-13.59.25-26.65,11.7-40.2,11.93-10.1.17-21.17-3.55-32.83.07l-59.93-4.87c-1.09-2.84-7.18-8.66-9.4-14.11,2.1-21.93,13.79-37.92,27.81-10.42l7.45,5.72c9.55,3.57,14.69,10.33,18.1,11.29,4.75,1.33,10.22-.13,15.48.98,2.93.62,6.22,7.21,8.73,3.03l-7.04-12.95c3.68-6.16,11.52-6.94,23.51-2.35.78,0,1.57.02,2.35,0,20.32-.42,47.12-4.1,67.09-2.44,17.06,1.42,42.87,12.87,56.55-4.41,3.45-4.35,3.25-11.64,5.52-13.29,4.6-3.35,45.15.25,51.88-15.13,3.68.57,6.75,1.91,9.4,2.35Z" fill="#ad995a"/><path d="M1691.94,1105.79c0,.78-.02,1.57,0,2.35.13,4.69-.03,9.41,0,14.11,4.66,6.96,4.64,14.19,0,21.16-.03,8.57,2.28,17.59,2.35,23.51.01.78,0,1.57,0,2.35,5.5,12.79,1.64,22.27-7.05,30.56-.26,1.45.2,3.2,0,4.7,6.11,3.32,3.82,7.98-2.35,9.4-3.81,1.08-4.27,9.03-4.75,9.42-.38.3-5.92-2.2-9.35-2.37-12.5,6.01-42.78,4.85-23.42-10.7-1.22-9.53,2.94-19.57,10.32-25.8,11.34-6.29,22.45-15.15,21.03-29.27l3.83-4.76-5.3-1.28c-8.27-10.8-16.46-21.1-24.59-30.89l1.68-3.1c12.54-2.5,25.26-6.09,37.62-9.4Z" fill="#3f3115"/><path d="M1320.46,1246.86c7.44,13.67-10.55,13.74-18.81,7.05-7.85.25-21.13-8.82-28.68-14.08-8.55-10.99-13.34-12.08-14.36-3.26-13.54,9.14-13.03,27.08-4.25,39.3l.28,6.25c15.85-3.7,32.34-6.33,49.47-7.87-1.82-5.84-1.07-10.27,2.25-13.29,8.02-6.74,9.42,1.79,4.7,9.4,8.5-.86,8.61,10.23,0,11.76-14.55,4.53-9.27,1.76-22.07,2.6-9.82.64-33.23,9.26-40.88,1.56-6.32-6.36,4.35-6.64-12.28-8.86,1.69-10.88,2.24-17.26-4.7-2.35-45.67-.71-87.17,1.12-134.01-2.35,1.8-5.99,4.15-10.69,7.05-14.11-11.4-3.42-16.6-8.46-15.59-15.11l-7.92-3.7-4.1,4.52c-27.86,5.34-48.76,1.14-73.78-11.14-19.08,2.01-35.79-1.76-50.12-11.3-7.55,6.66-14.34,14.55-20.35,23.65-5.42-5.06-14.82-8.39-20.93-8.09-3.87-.26-4.91-3.35-3.11-9.26l-1.59-11.9-3.19.54c-4.96-5.06-10.17-9.94-15.62-14.65-5.98.12-6.88-.26-2.35-4.7-8.4.23-4.5-10.45,2.35-4.7,1.47-.3,1.82-1.24,1.29-2.75-12.78-36.88-3.93-54.6,34.98-36.5,47.34,1.34,94.37,10.56,140.7,23.89,40.34,6.42,81.21,4.5,122.61-5.77,25.51-5.38,47.82-4.42,72.56,1.29,16.73-4.39,33.07-5.86,49.03-4.41,19.63,8.06,24.85,63.25,11.44,78.33Z" fill="#503f21"/><path d="M1080.65,1239.81c8.93.79,13.99,11.38,2.95,11.97-.91.05,13.92,3.23,16.61,2.24l3.96,4.6c.31,8.63,2.9,16.48-7.05,14.11-38.35-2.84-75.86-8.31-114.05-11.73-8.84-.79-20.08,1.46-28.14-.08-7.37-1.41-9.6-11.73-15.32-8.19l7.04,8.22c-2.19.39-5.21-.5-7.05.02l-2.71.79c-5.72-10.77-11.87-15.73-18.45-14.89.21,23.67-22,1.09-7.05-9.4-2.19-17.74,18.02,7.57,21.16,4.68l-4.7-7.01c11.77,2.46,8.77-3.83,14.09-10.61,12.75-16.25,16.57-.71,30.42,2.52,10.49,2.45,21.32-.52,31.37,1.54,10.96,2.25,23.27,11.93,38.42,13.35,12.44,1.17,24.92-3.25,38.52-2.13Z" fill="#372b15"/><path d="M1548.52,1263.32c-20.68,4.39-33.28,5.24-54.08,7.05-.91-10.5-.09-20.81,9.5-26.95,20.31-12.99,32.65,6.03,44.58,19.89Z" fill="#48381d"/><path d="M1059.49,1094.04l-1.18,4.74c20.93-.84,40.84-8.74,59.96-16.47l-18.81,25.82c1.87,1.6,14.48-8.29,18.81-9.38,5.79-5.52,36.66-16.34,28.21,0-2.17,2.96-4.09,5.93-7.04,8.24,7.2,4.26,13.19-5.45,18.8-8.24,16.27-5.12,26.46-2.77,30.56,7.05-8.22,9.37-18.77,8.67-28.21,16.46.11-1.12-.05-1.85-1.18-2.33-15.67-4.15-29.88,8.28-39.37,6.66-7.97-1.36-21.59-11.49-31.71-13.18-12.69-2.11-28.89,1.46-41.15-3.52-5.82-2.36-13.34-12.9-20.6-15.84,2.68-9.04,31.64-11.04,32.92,0Z" fill="#ac985a"/><path d="M1242.88,1129.31c3.13-4.01,4.77-11.16,6.34-11.81,3.63-1.5,13.6-2.47,19.02-3.98,14.02-3.89,8.62-9.59,19.31,1.68,4.49,4.73,6.37,9.74,9.4,14.11l-56.43,2.35c.69-.85,1.69-1.5,2.35-2.35Z" fill="#ad995a"/><path d="M1191.15,1124.6c4.85-10.38,13.78-10.28,22.81-13.61,2.49-.92,5-4.61,7.01-4.92,1.49-.23,13.94,6.88,12.5,11.48-.89,3.21-1.12,8.95-2.35,14.11,1.3-7.34-3.68-4.3-8.15-4.67-10.64-.89-21.16-1.9-31.81-2.38Z" fill="#ad995a"/><path d="M1064.19,1159.87c65.82,1.49,131.65,1.49,197.49,0,9.05-.25,18.4-1.97,28.21-2.35l30.56-2.35c94.49-2.29,177.79-11.31,270.38-28.21l4.71,3.53-18.11,17.16c-16.51,1.85-132.47,10.67-136.76,17.23-2.76,4.22,2.24,14.52,1.95,19.56-.62,10.7-22.67,33.09-30.03,42.88-4.41,5.86-8.39,17.25-12.08,20.88-3.65,3.59-10,3.76-14.22,10.42-5.79,4.68-10.71,3.73-18.98.21-3.34,2.2-7.98,2.91-13.94,2.14h-2.35l-4.65-3.07c-2.01-12.41-5.47-14.61-16.51-11.04-3.42,2.94-4.68,1.61-2.35-2.35l-2.41-2.76c7.24-44.33.95-92.23-56.74-69.69l-9.53.9c-24.15-6.19-46.03-6.57-71.08-1.34-45.02,8.4-79.95,14.04-125.15,5.34-44.17-14.18-88.78-21.59-133.81-22.24-13.32-6.97-25.83-9.2-37.54-6.69-14.7,22.55-19.02,7.29-15.15-11.67.22-12.84,2.4-10.18,4.7-16.46,17.83,9.09,36.93,15.43,56.4,20.01,35.83,8.43,90.54,17.39,126.99,19.96Z" fill="#403114"/><path d="M1014.82,1094.04c-6.58-5.45-20.4-5.62-21.15-16.45,22.55-.9,45.19-8.8,67.28-11.48,15.32-1.86,33.68,7.34,31.48-14.38l3.49,4.68,3.56-9.38,2.34,7.09,4.67-2.42c1.67,2.29-8.15,15.85,2.37,14.12-1.72,1.11-4.17,6.39-8.57,9.07-4.68,2.84-38.41,19.76-40.8,19.15-18.61-4.75-14.33-2.06-32.92,0-3.83.43-7.91-.4-11.76,0Z" fill="#94824c"/><path d="M1261.68,1159.87c-60.94,1.66-137.55,4.23-197.49,0h197.49Z" fill="#503f21"/><path d="M1320.46,1155.17c-7.94,4.6-20.76,1.97-30.56,2.35,7.9-4.49,20.81-2.11,30.56-2.35Z" fill="#503f21"/><path d="M876.1,1136.36c-.09,5.08-1.61,16.37,3.56,18.79,3.61,1.69,5.64-8.41,12.77-10.67,18.47-5.85,23.55,6.13,36.71,8.19,11.95,1.87,26.81-.84,39.54.43,48.57,4.84,101.4,29.38,150.72,25.54,32.2-2.51,68.95-11.53,101.79-13.39,14.42-.82,27.78,4.66,41.73,4.15,14.66-.53,28.81-7.54,43.93-4.36,26.47,5.56,25.58,58.72,20.65,79.47,2.41,6.27-3.69,8.52-7.05,2.35,7.06-19.32,6.08-51.32-5.01-69.05-11.66-18.63-39.9-1.17-57.32-1.27-9.53-.05-18.82-7.12-29.93-6.66-14.1.59-41.27,4.69-57,6.47-24.12,2.74-48.64,10.71-73.02,9.45-43.31-2.23-96.95-26.04-139.26-27.66-25.97-1-21.42,2.15-47.66-6.39-37.08-12.07-18.54,20.78-21.09,43.41-1.1-.28-1.96-2.35-2.3-2.38-8.19-4.11-12.89-9.59-14.11-16.46,1.35-12.76-2.97-28.54,2.35-39.97Z" fill="#403114"/><path d="M1080.65,1239.81c2.82.23,7.17-.86,9.54.99,3.22,2.52.14,8.83,4.54,8.39,1.49-8.24,11.71-17.5,16.49-7.06-4.46-.9-17.24,4.45-14.08,9.43l14.06-1.14c1.29,7.49-6.47-1.25-9.38,1.16-.34.28,2.2,2.75,2.35,7.03-6.65-5.46-9.23,2.47-14.08,4.7l-3.55-9.36c-5.21,6.99-10.6,4.3-17.64,2.27,2.86-10.45,4.26-4.42,7.68-5.55,3.72-1.23,6.8-4.31,11.12-3.84l-7.05-7.03Z" fill="#427527"/><path d="M1334.57,1265.67c-.57,3.49.82,8.73,0,11.76-.16.58-5.2,6.67-5.83,6.71-2.41.17-6.56-5.47-17.69-2.01,2.89-5.04.78-7.68,0-11.76-2.13-15.11,17.73-19.04,23.51-4.7Z" fill="#8d888b"/><path d="M1231.12,1275.08c-6.92-24.81,23.73-9.67,4.7,2.35-1.37-.18-3.56-2.33-4.7-2.35Z" fill="#979293"/><path d="M1254.63,1282.13c-11.15-6.63-14.08-28.69-8.05-39.8,1.92-3.54,5.96-5.31,8.17-8.36,2.02-2.78,2.03-7.89,2.35-8.18,6.03-5.58,16.38,8.74,18.77,10.36,9.58,6.51,18.38,8.79,25.79,17.76,4.25.6,6,1.47,2.35,4.7-2.86,12.25-26.22,7.95-35.81,3.5-2.23,12.85-6.75,19.52-13.56,20.01Z" fill="#979495"/><path d="M1304,1258.62c3.34-3.21,4.8-1.75,2.35,2.35,2,6.09,2.84,12.39,2.36,18.82-14.67-3.59-42.31,9.34-54.09,2.34,5.17-3.17,7.31-25.2,12.89-25.61.63-.05,6.6,4.11,11.73,4.52,6.95.55,18.75,1.45,24.75-2.42Z" fill="#6b696a"/><path d="M1329.87,1246.86c8.04-.99,9.42,12.95,7.05,18.81-.71-.22-1.63.22-2.35,0-10.29-3.1-13.11-9.98-23.51,4.7-.74-3.89.6-7.94-4.7-9.4-.26-.8-1.96-1.55-2.35-2.35-.71-1.43-1.5-3.67-2.35-4.7,14.81-.6,1.34-1.03,2.34-5.85,1.15-5.55,11.18,2.02,10.58,8.19,2.8-2.53,4.62-5.93,5.89-9.39,2.04.19,6.05-2.47,7.05-2.35.17.02,2.26,2.21,2.35,2.35Z" fill="#47732a"/><path d="M1329.87,1246.86c9.9-16.23,22.39.81,21.16,14.11-.97,10.55-7.43,6.8-14.11,4.7-5.69-5-3.7-13.53-7.05-18.81Z" fill="#8d888b"/><path d="M1642.57,1117.55l4.98,1.23c2.83,7.18,20.6,31.12,27.12,31.54,2.81-2.23,4.62-2.51,7.87.15,2.44,9.67.8,15.58-5.08,24.3-8.56,12.7-19.84,8.36-24.94,26.81-2.75,9.93,3.99,10.85-9.93,15.9,8.98,3.98,18.74,3.07,28.2,3.51-6.1,4.27-51.62,23.01-54.08,21.14,10.77-18.67,9.62-32.73-3.5-49.37-2.97-3.76-25.19-26.15-27.91-25.67-2.39.42-6.16,6.23-8.49,8.06,0,5.36,46.79,34.02,30.5,50.55-4.83.6-9.8.69-14.91.28-5.52,8.77-8.32,7.28-12.75.15l-.55,1.92c-22,13.57-40.07-20.33-26.34-39.89,4.41-1.78,33.36-36.2,23.69-28.87-12.39,9.4-33.47,28.22-33.76,43.93-.45,23.99,20.15,34.35,41.11,36.59.73-6.71,18.22-17.49,23.51-11.76-.01,1.25-3.05,3.89-2.02,7.7,1.09,4.04,9.42,6.63,4.4,9.96-8.52,5.66-34.04,10.08-44.7,12.91l-6.04-.75c-21.56-33.87-73.74-40.57-73.98,10.24l-4.62,4.61c-17.29-2.66-124.71,8.53-131.17,4.06-1.25-.87,1.31-5.09-4.01-4.09-.53.1-3.88,6.2-8.07,6.57l-2.52-1.84c-6.6-.81-6.64-10.51,0-11.76.72-.94,1.51-.91,2.35,0,3.87-1.93,8.57-3.5,14.11-4.7.67-2.05,1.45-2.02,2.35,0l3.42-1.16c12.61,5.04,16.72,3.7,29.5-1.19.07-7.05,5.12-10.6,11.53-14.45,13.41-20.21,26.79-40.24,40.15-60.08-4.08-15.37-5.91-25.65,13.37-27.46,41.18-5.89,82.5-10.37,123.95-13.44,6.35-5.05,11.53-10.46,15.55-16.23,17.13-3.13,34.62-6.12,51.72-9.4Z" fill="#4f3f21"/><path d="M1564.98,1258.62c-5.65,1.5-10.05,3.34-16.46,4.7l-6.52-.88c-14.43-22.47-43.18-27.71-43.04,5.16l-4.51,2.77c-4.82.42-9.7-.71-14.11,2.35-2.66-60.76,58.38-57.91,84.64-14.11Z" fill="#4f3f21"/><path d="M1579.09,1228.05c-1.94-1.58-5.23-1.89-4.69-4.68,4.42-2.28,10,4.65,10.58,4.63,1.91-.07,5.02-9.18,7.03-9.18.83,0,2.77,3.6,4.65,3.68,2.11.09,6.33-5.62,10.64-3.84-2.91,3.3.04,6.51,0,7.03-.06.77,0,1.57,0,2.35-8.5,3.66-14.05,9-23.51,11.76-18.2-.3-21.45-9.9-4.7-11.76Z" fill="#4f3f21"/><path d="M1654.32,1115.2c8.85,13.53,24.18,19.27,28.21,35.27-3.89,2.81-6.25,6.08-11.7,3.63-5.75-2.59-28.15-27.82-28.27-36.54,3.86-.74,7.85-1.57,11.76-2.35Z" fill="#4f3f21"/><path d="M1579.09,1228.05c.31.25,2.73-.32,2.35,2.33-18.51-.05-7.75,4.31,2.35,9.43-30.02,8.74-54.42-22.7-42.9-51.12,1.8-4.45,34.09-36.18,36.72-35.73,20.98,3.62-18.67,33-21.74,38.95-9.25,17.96,2.65,38.7,23.21,36.14Z" fill="#4f3f21"/><path d="M1611.34,1141.4c4.18-1.19,5.66-.11,9.01,1.89,2.07,1.23,29.62,28.77,30.52,30.74,3.14,6.87-2.73,9.56-7.13,13.99-5.03-6.48-39.39-36.3-38.66-40.78.28-1.72,4.34-5.28,6.26-5.83Z" fill="#4f3f21"/><path d="M1353.38,1260.97c4.04-3.65,6.57-5.12,11.73-2.35l-7.02-9.38c5.36-2.97,12.86,7.94,14.04,7.03,2.1-1.63,6.88-16.89,16.49-4.73l-14.09,7.06,11.75.02c-1.68,2.64,4.02,6.68-7.05,2.37l2.33,7.02c-5.08-3.61-10.8,1.87-12.92,1.7-.88-.07-11.15-8.47-15.28-8.74Z" fill="#4f3f21"/><path d="M1228.77,652.03c7.52,4.76,14.42,1.81,21.14-2.35.13,13.44-4.56,12.68-16.42,11.77,8.64,22.07,21.12-2.06,35.24,0,6.51,5.59-24.69,15.4-25.85,16.48-7.14,6.6,21.28,5.74,23.49,2.32.13,13.46-4.56,12.66-16.43,11.78,8.29,12.31,24,6.52,35.27,2.35-1.33,16.88-15.06,9.28-18.67,11.96-.94.7.26,3.72-.14,4.47,2.14,4.6-.07,10.81-6.61,18.62,12.68,9.12,21.78,21.82,27.29,38.1l12.24,13.82c7.15-9.32,14.2-13.24,21.16-11.76,7.38-3.68,15.35-6.02,23.51-7.05l-.51-5.41c5.18-6.34,10.05-12.37,14.62-18.1,4.05-1.85,3.09-5.12,7.05,2.35,3.98,2.37,10.37,10.46,7.05,14.11l-.78,5.9c-21.02,11.62-29.27,31.94-27.43,55.23,2.56,2.31,7.9-.37,15.01-4.39,8.71-7.51,17.81-11.53,27.31-12.06-1.28-8.73,21.75-17.96,25.86-9.4,5.62.59,10,1.95,13.13,4.08l.97,28.84c11.37,3.92-2.19,11.91-9.22,2.79-4.31-1.34-54.11,6.35-63.41,9.55-14.04,4.82-21.44,10.41-30.81,21.84-27.24,33.24-22.68,63.16-7.78,100.51-8.71,27.99-1.91,36.83,15,58.45,7.12,9.09,14.42,18.27,23.58,25.35,30.83,9.8,58.05,13.21,90.24,13.02,12.71,11.5,27.7,20.36,43.53,27.11,9.97-14.88,40.25,27.81,15.05,25.25-7.96-7.4-15.49-12.33-26.77-11.75-4.63-6.45-12.23-7.85-22.81-4.19-4.84-8.25-8.16-11.41-17.99-12.96,11,20.23-8.74,27.76-15.46,6.43-7.76-5.08-16.11-8.88-24.78-12.18-33.73-12.85-31.77-6.07-8.71,11.81l4.12,9.86c6.82,4.54,18.38,13.78,5.67,15.94-.43,2.1-1.23,2.02-2.35,0l-15.56-2.62c-11.45-12.4-23.66-23.89-36.62-34.46-12.32,21.51,4.31,35.07,26.52,34.43l2.15,5c7.6-.8,14.35,12.99,8.43,16.85-2.92,1.9-46.66-6.14-43.69-19.2-9.71-9.51-18.14-20.22-25.32-32.13l-4.5-1.39c1.44,12.08-.37,24.82-5.45,38.22,6.23-2,14.37,8.83,9.4,14.11,14.73,4.63,1.16,31.4-7.24,12.34-6.23-3.43-13.38-8.42-4.51-12.34-6.7-.77-13.66-7.84-9.4-14.11-1.69-3.93-4.13-6.4-7.32-7.41l-4.1-25.13c-2.73-1.02-33.73,40.94-33.25,46.65-.07,1.49-.86,2.27-2.35,2.35,5.83,5.14-7.8,16.95-12.33,14.79-7.01-3.34-5.36-15.87,2.93-14.79-4.71-8.94-3.92-13.64,2.35-14.11-2.21-8.16-.37-16.84,5.52-26.04-10.71,9.62-23.22,16.74-37.52,21.37-8.3,8.3-18.8,12.2-31.48,11.72-6.96,11.71-21.14-1.99-9.4-2.35-2.41-9.29,20.14-16.09,28.21-16.46-4.29-3.99.91-12.37,4.24-16.47,48.99-37.75,1.31-6.61-16.16,7.29l-18.65,2.13c3.93,7.72-15.21,17.84-19.6,12.42-4.88-6.01.68-15.26,7.85-12.42-1.17-4.45-1.12-7.72.14-9.82l18.39-13.87c-1.03-4.56-.94-8.42.27-11.58-2.53-4.52-.37-7.85,6.46-9.97,29.9-4.24,42.35-25.15,55.6-49.94,4.1-7.68,21.9-44.39,22.52-50.31,1.88-17.9-.45-56.5-2.14-75.6-.85-9.57-8.45-49.37-15.84-54.97-1.27-.96-23.91.16-26.64,3.32.59.98,1.07,1.97,1.19,3,1.52,12.73-32.06,19.14-42.78,17.51-14.84,9.87-25.85,8.34-33.03-4.6-6.39-15.07-14.43-28.99-24.12-41.78l-4.66-2.86c-.74-2.3,11.14-40.15,13.33-45.66.24-.6,1.51-.78,3.08-.85l4.88,3.43c-3.48,28.13,11.5-13.83,11.7-23.82l3.4-1.66c-3-8.32,8.43-8.88,5.88-1.46,1.37,1.02,2.64,2.3,2.57,3.92-.07,1.49-5.45,27.59-5.97,28.98-12.88,21.43-23.16,43.19,3.22,57.44,3.42,1.85,14.85,7.19,18.23,4.64,2.69-3.62,6.08-4.72,10.17-3.29,6.66-9.42,29.67-16.04,39.97-9.4,6.48-6.02,14.16-10.84,23.02-14.45,8.78-3.18,14.43-8.56,16.95-16.12l-5.81-1.03c-6.61-10.7-15.14-18.68-25.58-23.93l-1.53-5.61c-5.68,3.42-7.2,1.06-4.7-4.7-4.76,2.45-10.86-.74-18.3-9.58-18.24,6.17-35.78-6.87-47.53-18.63-.54,4.7-2.89,4.51-4.7,0,.26-1.46-.27-3.25,0-4.7,7.49-4.68,16.07-2.67,25.74,6.05,5.29,2.85,12.39,3.6,16.58-1.35-7.69-1.37-39.98-30.61-34.62-38.26l4.05-4.06c1.51-.68,3.65-2.81,4.44-2.05.88.85-.84,4.74,1.43,4.39,5.66-13.05,18.82-11.4,8.24,2.33,7.79-1.19,6.67-7.21,14.08.02.09-5.54.81-9.98,7.08-9.4l3.37,5.06c2.72,19.06,15.09,42.59,31.9,51.37-.8-7.3-.73-15.13.2-23.47l-6.2-24.29c-1.86-8.61-1.91-24.1,8.35-25.12Z" fill="#8c4326"/><path d="M1517.96,703.75c4.53,1.54,4.26,4.46-.79,8.77,1.78,3.51,1.26,8.43-1.56,14.75,1.76.97,2.66,2.35,2.48,4.25-10.61,9.14-16.14,19.48-16.58,31.02-1.15,5.49-.93,7.67,0,14.11,1.37,7.88.18,10.55-7.4,4.99-10.45,7.47-14.37-.87-6.71-9.69-2.8-1.55-5.73-.21-8.78,4.02l-2.97-1.67c-7.1,9.94-13.37,13.08-18.81,9.4-3.09,5.11-8.53,7.79-16.31,8.02.93,9.8-1.65,15.64-7.73,17.51-.29,5.51-.7,10.04-6.52,12.09,2.04.58,1.99,1.37,0,2.35l-4.73-28.2c-4.17-.25-1.52,5.35-3.64,9.33-.25.47-6.52,6.19-8.06,7.1-2.22-7.32,1.87-15.38,2.33-21.15-11.23-7.03-22.38-14.49-33.46-22.38l.55-5.83c-4.76,5.08-10.69-1.35-7.05-7.05-4.26-5.38-4.56-9.41-7.05-14.11.44-.91,2.26-1.86,2.35-2.35,6.77-1.58,12.7,5.45,9.4,11.76,6.21-3.59,8.88.85,7.05,7.05,19.04,18.07,33.17,24.86,61.13,21.16l3.34-5.34c18.06-6.91,34.19-18.45,48.38-34.63-1.91-4.44-.51-9.17,4.22-14.19,1.06-11.04,4.36-17.28,9.88-18.72.67-1.16,5.3-1.8,7.05-2.35Z" fill="#5a3512"/><path d="M1494.45,689.64l1.05,3.47c-12.11,10.77-21.23,22.61-26.79,37.91-12.95,10.86-21.02,21.41-7.17,31.51-5.1-14.87,24.4-26.79,35.27-23.51-11.67,19.17-27.51,36.77-51.72,39.97,5.42-9.95-1.39-18.24-2.19-27.36-1.68-19.13,26.9-40.13,30.41-59.63,13.88,5.74,9.32-7.16,21.16-2.35Z" fill="#884125"/><path d="M1087.7,724.91c.51.18,5.59-2.92,9.38,2.35-1.5-9.31,4.38-9.12,11.79-7.04l-2.35,7.04,9.39,2.36c-3.4,27.5-7.63,37.63-18.81,61.13-11.42-11.42,4.07-23.87-14.11-30.56l-2.35-14.11c2.5-3.93,7.29-4.46,14.36-1.59-4.76-7.11-7.19-13.64-7.3-19.57Z" fill="#8b4326"/><path d="M1275.79,715.51c-8.99,15.51,6.5,15.74,12.23,26.56,5.75,10.88,6.36,27.51,11.28,39.27-19.75-4.33-19.74-23.88-29.54-37.47-3.89-5.39-14.33-11.37-14.81-12.2-2.7-4.68,8.61-15.58,11.43-20.86,3.96-1.16,8.33,4.44,9.4,4.7Z" fill="#bb5a35"/><path d="M1499.15,691.99c2.05.67,2.02,1.45,0,2.35-2.96.63-2.55.45-4.7,2.35-9.68,8.54-15.84,25.2-22.49,35.12-7.07,10.55-22.3,14.85-10.43,30.72-1.63,1.61-.34,4.06-3.44-.08-18.33-24.42,2.41-21.01,9.22-35.28,1.88-3.93.81-8.33,3.49-12.97,4.07-7.04,19.15-15.93,23.64-24.56,1.47.6,3.79-.12,4.7,2.35Z" fill="#c9643b"/><path d="M1529.71,715.51c3.88.28,7.87-.23,11.76.02-5.31,3.64-4.34,8.92-4.7,9.38-11.94,15.27-30.59,15.24-35.27,37.62,3.11-6.16-4.96-7.7-4.69-8.21,2.08-3.98,8.08-14.03,10.63-17.58,1.71-2.39,7.67-8.98,8.17-9.48-.85-6.78,3.85-10.7,14.11-11.76Z" fill="#ab5732"/><path d="M1198.2,673.19c2.15,18.84,16.47,37.5,28.21,51.72-1.88,3.38-1.44,3.14-4.74,1.22-14.9-8.67-33.77-39.37-30.53-57.64,1.3.12,5.26,3.56,7.05,4.7Z" fill="#c15f38"/><path d="M1186.45,715.51c-.39,3.25-3.17,4.32-5.97,4.75-14.72,2.24-20.23-14.32-36.35-9.45.27-1.42,1.96-3.17,2.35-4.7,17.94-4.6,21.67,18.67,39.97,9.4Z" fill="#cf6b44"/><path d="M1388.65,287.6c.1,3.71-3.44,12.82-2.34,14.09,6.16,7.18,6.59-15.25,9.36-14.08,3.03,8.93,5.19,21.31,14.11,11.74l.05,14.11,14.06-16.46c-1.84,2.62.45,11.33-.03,11.65-2.29,1.5-8.85-3.01-6.98,4.8l9.4-2.33-1.19,4.7c27.63.36,7.29,4.49,3.33,17.62-2.12,7.04-.2,10.82.21,17.65l4.7-9.43,14.1,2.35-4.68-16.43,10.56,11.7,10.57-11.69-2.32,16.44c7.38-2.22,8.16-3.92,7.05-11.77l4.71-4.68,10.56,11.71,9.4-11.66,1.18,14.04,9.36-9.38c2.11,8.13.87,11.79,9.42,7.05l.04,11.75,11.72-11.74-4.69,11.72,16.44,2.39c1.47,1.38-14.58,21.96-11.73,28.19l11.71-4.68c2.17,8.77.64,10.77,9.42,7.02l1.18,7.07c3.35.09,8.46-21.79,12.93-16.43.52.62-2.5,15.21-2.91,15.9-1.12,1.87-6.48,1.68-6.48,5.22,5.62-2.13,15.88-2.94,18.79,3.58,1.73,3.87-5.04,3.79-7.3,9.08-2.02,4.71-2.23,10.5-2.06,15.58l14.06-16.45c-3.18,9.87,3.28,15.57-9.41,17.63l9.42,1.2c1.28,3.23-9.59,2.18-4.67,7.03.55.54,14.83-9.36,14.04-1.17-.09.95-10.98,6.98-9.36,15.26l9.38-9.38,2.41,11.74c1.91,2.71,2.98-9.83,7.01-4.67,1.38,1.76-2.8,11.82,2.33,11.73l9.41-14.09-7.03,14.09c9.14-4.73,6.12,1.7,8.58,2.37,3.24.88,12.43-2.31,10.24,3.5-.78,2.07-4.35,1.21-6.6,5.11-1.66,2.88-6.99,17.83-5.16,19.59l7.03.03,2.33-7.05c.36,3.34,1.72,6.59,3.59,9.36,4.56,6.78,1.94-2.92,5.82-2.31l4.7,9.37c-.46-3.03,7.67-20.56,11.78-16.42-2.87,4.12-1.29,10.62-3.57,14.14-1.47,2.27-5.65,2.09-5.84,2.34-.46.62,7.44,8.17,2.37,14.05,5.28-1.86,4.93-11.15,12.88-9.38,8.44,1.88-2.86,7.5-3.59,8.69-3.09,5.05-4.16,11.53-2.23,17.15l14.08-14.08c-3.57,6.57.16,16.05-9.39,16.47l7.04,2.34-4.68,11.73c5.85-4.26,9.46-16.53,16.43-4.75-9.26-.49-7.89,12.89-11.64,15.51-4.64,3.24-9.31-1.35-12.86-1.39-2.5-.03-19.46,24.29-17.81,30.59,8.38,2.23,6.36-4.19,11.72-7.04l4.72,12.95,4.69-3.54,1.19,11.73c3.51-.93,13.63-23.09,17.63-18.79-2.93,3.46-2.84,15.92-3.36,16.61-2.34,3.11-8.84.1-8.37,4.52l5.85,2.33-3.49,9.45c.98,1.25,6.42-7.11,10.54-7.14,9.47-.06,4.3,4.14,1.19,7.14-6.43,6.21-10.5,14.43-9.38,23.51,4.76.51,14.48-23.43,18.77-18.8-1.92,3.21-4.47,17.8-5.09,18.53-1.51,1.74-8.65-2.68-6.63,4.97l7-1.21-2.3,5.9c4.58-4.26,19.03-.19,14.1,4.69-.3.3-5.28-.46-8.23,2.33-2.79,2.64-2.68,10.01-7.46,11.54-5.66,1.81-16.96-3.34-27.38.7-6.34,2.46-2.87,9.85-3.97,11.35-1.01,1.37-25.5-7.63-23.74,15.27.57,7.38,10.1,12.76.24,19.96-3.31,1.87-2.76-7.47-2.78-7.01,2.06,10.64.64,18.46-4.27,23.47-1.61,3.7-3.36,3.77-6.39,1.96.59,16.36-11.5,8.83-18.56.2-5.21,8.24-25.09,5.91-22.09-4.47-11.36,8.42-17.62,8.4-18.8-.04-3.42-1.84-5.77-4.97-7.05-9.4-11.47,8.21-18.73.61-8.12-8.88l-3.64-2.87c-2.64,4.94-4.99,5.72-7.05,2.35-4.43,5.77-18.49-2.64-16.46-9.4-1.06-4.35,1.95-6.02,4.7-2.35v-2.35c-3.25,2.6-4.86,2.04-4.7-2.35-12.27,9.37-19.32,10.15-21.16,2.35-6.43,7.95-18.7-5.54-11.13-13.27-10.36-.39-20.31-2.02-29.85-4.89l-3.69-3.01-9.11,5.43c-2.51,7.89-7.32,17.37-14.4,8.68l-1.3,4.86c-10.55,1.09-6.83,10.1-3.4,16.3,7.94.59,4.1,12.39-2.52,11.9,1.37,10.15-5.18,20.47-13.94,23.37-5.78-2.65-11.27-3.44-16.46-2.35,2.18,3.48,1.13,4.78-2.35,2.35-2.37.62-4.72-.17-7.05-2.35-2.95,8.92-8.02,9.11-11-.37-13.27,4-19.1,2.08-17.47-5.74-7.8,1.48-16.04,2.54-13.61-8.2-10.53,2.23-27.73,2.83-25.81-11.24-4.57,4.92-11.32,10.91-14.39,2.03-3.63,5.76-8.35.56-9.4-4.7-5.14.4-6.19-2.44-3.36-6.72-18.14-2.04-23.74-17.37-2.39-16.73-16.13,2.47-23.53-1.78-22.2-12.76-6.41-3.46-9.36-9.65-8.86-18.59l-.81-3.99c-11.51,11.47-8.57-12.65,4.7-7.05,9.05-4.42,13.76-9.12,14.11-14.11l-3.13.71c-3.07-14.25-26.85-9.18-29.28,3.02,10.38,6.88,13.2,17.25,1.16,22.1,5.06,12.37-12.88,33.33-18.13,16.49-4.62,3.9-6,.07-7.05-4.7-2.16,2.8-3.35,6.03-3.59,9.69-3.85,3.13-24.59,5.76-19.74-4.6-3.06,6.75-8.64,6.61-11.93-.39-.81,4.15-3.19,7.59-7.14,10.34,8.96,13.72,8.2,21.24-2.27,22.57,4.03.76,3.25,2.33-2.35,4.7,6.29.77,5.61,2.01,0,4.7,7.41,6.87,2.8,9.22-6.21,9.79,1.12,9.05-3.72,9.17-14.53.35l-5.12,1.62-2.35,2.35c-3.29,8.06-13.74,2-13.67-5.91-2.33,5.95-7.18,6.35-14.55,1.21-4.18,5.25-8.1,2.89-11.76-7.05-3.38,4.67-7.71-.63-6.05-5.72l-5.86-2.82c-16.07-23.24-26.81-48.84-32.22-76.82,3.99,23.35,2.11,32.76-19.28,14.17l-9.47,3.01c13.68,12.35,33.39,31.73,47.19,48.4.52.63.28,1.89-.17,3.33,3.52.15,6.32,2.72,8.39,7.71,10.76-.86,23.15,18.77,13.9,27.4l1.22,2.51c5.22-.87,7.43,1.76,7.05,7.05,6.44,2.28,9.31,10.81,2.35,14.11-8.26,10.94-11.93,8.22-21.42,1-1.85,6.25-7.56,9.02-17.13,8.31-.31,12.72-10.3,6.12-16.78.13-5.82,9.84-15.01,8.6-21.9.12-8.36,5.43-18.83,8.57-20.75-4.13-2.77,2.01-5.34,1.97-7.83-.73-2.84,3.84-4.03,1.93-4.7-2.35-7.5-1.3-4.68-6.81,2.35-4.7,5.4-2.78,4.62-3.56-2.35-2.35-2.21,8.76-19.2,5.49-21.16-2.35-3.28-.64-4.12-2.55-4.19-5.33-11.57,4.04-32.91,8.46-29.15-9.99-19.64-3.44-23.11-15.14-1.08-19.32-19.91,3.42-25.66.14-17.26-9.84-6.44.65-17.54-6.51-14.4-13,4.27-8.85,24.41.08,5.18-3.39-23.93-4.32-9.12-15.97,5.03-20.77,4.87-2.56,7.66-4.32,3.38-9.03-10.33-8.46-10.8-14.25-1.41-17.37-5.92-14.48,7.03-19.57,14.19-5.71l3.13-12.51c-3.52-15.06-.02-22.53,10.48-22.43-7.45,1.93-22.22,1.03-16.22-8.85l-1.89-4.69c-16.07-6.2-18.7-11.59-7.9-16.17-9.28,1.25-16.82-4.33-9.49-12.41l20.96-11.42c-11.15-11.96-11.51-19.27-1.08-21.95-3.35-7.87-2.47-16.84,7.6-12.16,6.22,10.81,8.58,6.03,7.08-14.34,9.51-7.89,14.75-16.38,15.73-25.45,11.69-3.89,23.32-8.94,33.34-16.27-7.45-4.17-10.09-8.59-7.92-13.26,3.9-1.62,9.06-2.04,9.42-2.36,2.44-2.19-5.29-15.79-4.72-16.42,3.95-4.38,6.92,8.44,10.83,9.27,9.98,2.13,7.23-19.82,9.26-25.64,3.91-11.18,19.3-9.9,12.84-25.96,5.31,2.4,2.82,7.98,10.73,9.44,7.82,1.44,4.9-4.53,10.38-7.1l7.07,9.39c-1.45-12.03.93-9.58,11.76-9.41l-4.67-16.44c14.82,17.69,10.87,12.43,23.47-2.35l-2.32,18.8,7.06-11.76,3.53,1.85,1.18-6.52c5.02,2.07,5.78,11.82,12.87,11.78,1.86,0,4.4-10.36,7.09-11.81,5.16.1-1.72,24.09,5.84,16.47.89-.9,1.97-9.36,2.41-11.73,3.96-.53,2.97,6.7,5.83,7,8.54.88,11.78-14.26,8.28-21.12,10.85,13.53,14.05,16,24.67.01,2.98,6.11-2.37,15.65,7.61,10.95.57-.27,1.98-5.03,5.29-3.94l-4.67-4.64,14.09-.04-4.67-21.15c6.6,2.71,7.25,16.49,15.23,16.48l10.58-16.47c2.41,4.37-3.12,20.44-2.32,21.13,8.76,7.53,9.53-17.72,15.29-18.83,5.46-1.05,7.45,13.06,11.77,14.14,5.44,1.36,10.46-14.65,11.72-14.09,8.05,3.57,2.84,12,3.56,18.8l8.21-14.13c2.2.02,5.91,20.01,10.57,14.12,2.51-3.17-5.51-14.91,2.34-16.44,0,12.98,14.47,18.21,18.4,5.42,3.9-12.69-7.52-17.39,8.3-32.81,9.87-9.61,12.58.16,8.62-21.98,6.23,3.84,2.34,11.99,12.91,11.99,10.57,0,6.68-8.15,12.91-11.99-2.25,9.86,5.87,22.64,8.24,7.05,3.95,1.82,5.83,17.2,12.94,11.72,2.2-1.69-11.28-14.49-14.1-15.27l14.09-1.18-4.68-18.78,16.42,16.44,9.41-16.44.03,18.81c10.49,2.51,6.12-6.3,9.39-14.12,4.97-3.45,3.58,6.06,3.43,5.62-5.52-16.3,7.37-14.93,14.59-4.12,3.68-14.11,22.64-17.31,14.9-1.5Z" fill="#639b01"/><path d="M1442.72,830.71c-10.9,2.54-21.88,3.08-32.92,4.7-50.45-2.62-113.7,52.23-79.13,105.05,14.19,19.65,20.85,38.91,11.41,62.52,3.17,18.26,17.73,29.73,32.45,39.33,4.66,2.13,21.2,9.4,24.69,9.4h49.37c.96,0,8.29,10.5,12.93,14.11,8.72-.82,26.13,7.23,25.86,16.46-13.34-3.5-26.92-11.55-39.77-17.82-3.13-1.53-4.71-5.54-8.31-6.97-9.37-3.73-32.84.44-44.66-1.2-4.16-.58-7.75-3.59-12.13-4.32-9.57-1.6-21.61-1.83-30.09-5.18-9.76-3.85-43.31-47.35-45.54-57.9-3.01-14.26,3.74-21.25,3.66-27.26-.21-15.19-15.34-36.67-13.63-56.84.92-10.85,15.77-41.34,22.56-50.36,24.73-32.85,62.25-25.19,98.56-33.38l8.19,7.31c.2-1.52-.21-3.24.02-4.7.12-.76-.13-1.59,0-2.35l3.39-4.69c14.4,1.3,21.44-8.55,21.12-29.55l6.06-3.38c4.67-1.64,14.33-6.68,18.81-9.4.98,1.3,1.67,2.5,1.38,3.38-1.86,5.63-14.51,33.36-17.68,38.08-4.4,6.58-9.29,11.62-16.62,14.96Z" fill="#b55532"/><path d="M1409.81,835.41c-2.92.43-6.67-.55-9.4,0-15.18,3.06-30.16,14.11-42.32,23.51-8.05,6.22-20.94,14.43-24.06,24.14-2.45,7.64-4.01,26.04-4.16,34.64-.52,30.57,21.76,35.72,23.51,58.78,1.18,15.49-5.66,27.2,1.13,44.71,4.01,10.34,14.54,12.67,20.03,21.12-12.49-5.7-28.12-15.04-34.1-28.19-6.66-14.66-.52-15.37.99-27.25,4.34-34.11-26.62-47.28-25.5-79.39.38-10.78,8.32-35.04,16.42-42.54,4.41-4.09,32.05-23.32,37.46-26.02,10.5-5.24,28.96-9.08,39.99-3.5Z" fill="#e97040"/><path d="M1205.26,826.01c8.75-6.06,17.78-9.88,28.99-7.14,1.46.36,9.2,17.48,10.41,20.63,13.17,34.31,6.58,77.72,9.77,114.44-12.7,28.36-31.27,83.04-60.18,97.34-11.81,5.84-19.17,2.8-28.96,12.18,1.29,11.24-8.31,17.66-28.8,19.25-6.16,5.77-12.23,11.11-18.22,16.01-6.27,18.53-33.94,17.94-14.19-5.81l-22.21,7.04c-10.64,5.86-38.53,1.44-22.38-5.93l.38-4.85,37.84-18.22c3.28-4.54,7-6.26,11.15-5.15.87-11.25,19.57-17.69,30.1-18.77,10.75.68,21.18-.29,31.3-2.91,7.41-14.17,15.43-28.06,24.07-41.65l6.23-2.51c-4.86-7.42,2.95-28.88,7.07-37.64,1.68-7.94,5.59-11.85,11.74-11.73l.52-5.21c13.07-7.28,19.36-28.74,9.6-41.29l1.64-5.23-2.61-5.59c6.67-19,9.98-65.58-19.39-63.41l-3.87-3.88Z" fill="#783a21"/><path d="M1205.26,826.01c36.96-10.86,37.21,51.64,25.86,72.89-4.42,4.87-11.64-1.48-11.76-7.05l-3.93-4.21c2.7-14.83,2.69-31.19-5.94-44.12-12.44,8.62-27.21,12.2-44.29,10.75-19.98,11.47-28.83,6.64-41.52-9.92-4.39-5.73-12.51-16.67-7.76-23.03-5.34-4.21-9.44-8.98-12.28-14.31l2.87-4.49c-.15-.68.03-1.56,0-2.35,17.92,5.03,17.71,26.23,25.37,39.28,13.33,22.69,16.92,6.31,32.79,3.6,7.34-1.26,14.9.58,21.91-1.6,5.84-1.82,12.64-11.23,18.68-15.41Z" fill="#6f361f"/><path d="M1393.35,1110.5c-7.98.09-17.98,2.5-23.51,2.35-2.97-.08-24.21-4.22-26.54-5.2-11.17-4.7-17.02-40.26-.46-38.9,1.06.09,14.35,11.44,16.49,13.47,11.27,10.69,16.91,23.05,34.02,28.28Z" fill="#937f4b"/><path d="M1151.18,727.26v4.7l-3.5,29.07c-11.2,15.68-21.71,55.94,10.61,47.83l4.64,3.04c13.81-9.38,26.92,1.91,6.44,5.63l2.97,1.43c-1.48.75-5.3,6.7-9.54,8.18-10.19,3.56-8.9-2.25-14.17-4.46-11.34-4.76-17.42-2.98-22.68-17.26-9.34-25.39,8.56-30.58,12.9-46.98,2.39-9.04.08-21.9,5.27-31.17,1.38.55,3.72,2.76,4.62,2.34.24-.11.77-3.92,2.44-4.69.1.77-.13,1.6,0,2.35Z" fill="#ba5c35"/><path d="M1242.88,1129.31c-3.38-11.2,25.08-48.69,32.14-51.37,1.66-.63,5.42-1.49,5.63,1.03,3.26,12.12,1.68,24.6,6.9,36.23-7.47-.74-11.69-.24-18.99,3.09l-16.72,2.88c-1.33,4.99-2.8,10.07-8.97,8.14Z" fill="#8d7c4a"/><path d="M1193.5,795.44c.82.39,3.23-.2,4.69.02.13-4.69-.09-9.43.01-14.12.07.12,2.1-.64,2.44,1.35.51,3.03-.87,12.02-.08,12.74.44.4,11.15,2.38,11.75,2.36,13.01,3.52,12.05,6.25,0,11.76-9.59,2.17-31.88,5.3-39.97,9.4-14.08.01,7.89-4.81,4.7-7.03l-14.11-.02c-2.5-9.49,13.14-33.88,18.81-16.46,3.28-7.69,3.81-16.12,1.57-25.3,1.6-1.87,4.61-1.6,6.99-.73.26,8.69.69,17.75,3.2,26.02Z" fill="#66970e"/><path d="M1146.48,1098.74c1.66-9.87-10.27-1.6-15.9-.55-4.2.78-9.46-.18-12.32.55,2.83-11.22,11.78-19.75,22.88-22.97,4.73-1.37,9.97.41,14.72-1.72,3.11-1.4,6.45-7.73,9.42-10.57,13.9,16.35-5.81,19.63-14.01,27.19-2,1.84-2.98,5.59-4.8,8.08Z" fill="#917f4b"/><path d="M1214.66,743.72c2.45,1.73,3.54,3.82,4.7,4.7,1.4,9.62-20.01,17.94-20.79,19.17-1.33,2.1-.3,10.18-.37,13.74-.11-.19-1.8.27-2.03-.24-1.97-4.56,3.43-13.28-5.02-11.5l2.34,25.85c-4.27-2.04-2.21-19.2-5.88-23.54-4.42-.02,4.12,25.86-5.88,23.54-4.77-3.8-6.4-11.25-4.88-22.35-14.09-5.84-30.89-25.31-25.69-41.13-.35-1.27.26-3.23,0-4.7,12.71,32.81,38.56,52.65,63.48,16.46Z" fill="#5e3c1a"/><path d="M1386.29,800.15c-13.33,7.25-24.69,19.79-40.94,21.33-2.79-.2-.88-3.59-1.38-4.87-2.05-12.1,2.34-35.07,16.46-32.92,5.52,8.98,15.69,14.65,25.86,16.46Z" fill="#086b58"/><path d="M1158.23,1098.74c6.17-3.07,12.03-3.67,17.72-6.97,15.16-8.79,26.66-25.93,45.75-25.93-.21,14.21-17.09,17.6-23.57,24.61-3.75,4.06-4.86,10.25-9.34,15.35-8.94-4.65-20.59-6.95-30.56-7.05Z" fill="#917f4b"/><path d="M1372.19,755.48c.75.94,5.61,5.68,7.05,7.05-3.19,9.59-12.16,14.35-18.81,21.16-10.7,10.97-13.05,17.43-16.46,32.92-10.55-27.07,5.18-48.26,28.21-61.13Z" fill="#cf6339"/><path d="M1169.99,1124.6c4.05-4.67,11.67-1.23,17.17-2.81,3.09-.89,9.65-8.66,14.49-11.38,12.27-6.89,26.84-12.3,36.19-24.93,3.39-4.58,4.53-14.38,5.06-14.96,3.1-3.38,4.41.27,4.75,3.56,1.3,12.34-10.52,30.28-14.18,43.46-8.08-5.46-13.91-6.24-17.48-2.35l-24.84,9.4c-7.01-.31-14.14.11-21.16,0Z" fill="#847346"/><path d="M1334.57,1110.5c-13.92-5.2-7.31-5.26-15.2-11.83-15.2-12.66-11.44,8.12-20.07,16.53-5.21-12.76,2.12-12.42,2.52-22.35.39-9.53-9.98-25.27,7.56-19.47,14.46,4.79,13.82,29.68,25.19,37.12Z" fill="#8d7346"/><path d="M1212.31,809.55l7.08-5.88c-6.36-3.26-10.84,6.4-9.4-4.69l2.32-1.19c4.49-.09,16.89-10.07,21.82-12.27,5.8-2.6,13.1-1.1,18.15-6.54.89,2.23,3.66,2.49,2.04,7.67-2.37,7.55-33.38,20.95-42.01,22.9Z" fill="#bd5c36"/><path d="M1343.97,762.53c-8.58,5.66-13.69,4.61-23.51,7.05,8.15-5.14,10.31-9.71,23.51-7.05Z" fill="#157d57"/><path d="M1456.83,783.69c-9.45,22.85,3.9,38.31-30.56,37.62,1.91-11.19,3.23-21.42,2.38-32.9l7.01,18.79c-3.22-27.91,5.58-18.02,21.18-23.5Z" fill="#8c4326"/><path d="M1487.39,771.93c-24.94,17.63-10.63,50.85-44.67,58.78,17.97-15.77,19.14-37.36,32.92-56.43,4.18-2.54,7.24-5.91,10.59-9.39,2.33.57.99,4.88,1.16,7.04Z" fill="#e67141"/><path d="M1219.36,891.84c3.5-.03,9.34,4.6,11.76,7.05,13.27,13.52,8.23,34.08-3.43,47.18-3.14,3.53-7.74,3.95-8.32,4.55-11.13-.05-10.18-7.83-14.11-14.11-2.82-12.45,5.52-10.03,10.84.02,9.55-3.27,9.78-34.84-1.29-27.34-5.07,7.38-11.23,10.37-9.55-.89-6.92-3.34-5.28-8.79,2.35-9.4,3.19-.75,6.24-7.01,11.76-7.05Z" fill="#8c4326"/><path d="M1205.26,908.3c1.13,13.18,3.41-10.46,16.5-3.61,16.79,8.79-3.36,57.6-14.17,25.99l-2.33,5.84c-.5-.8-1.71-1.47-2.35-2.35-1.17-9.55.46-17.18,2.35-25.86Z" fill="#6a331d"/><polygon points="1101.94 797.38 1097.11 790.74 1110.65 749.04 1132.89 758.63 1101.94 797.38" fill="#8b4326"/></svg>